<?xml version="1.0" encoding="utf-8"?>
<!-- Generator: Adobe Illustrator 15.1.0, SVG Export Plug-In . SVG Version: 6.00 Build 0)  -->
<!DOCTYPE svg PUBLIC "-//W3C//DTD SVG 1.1//EN" "http://www.w3.org/Graphics/SVG/1.1/DTD/svg11.dtd">
<svg version="1.1" id="Layer_1" xmlns="http://www.w3.org/2000/svg" xmlns:xlink="http://www.w3.org/1999/xlink" x="0px" y="0px"
	 width="512px" height="512px" viewBox="0 0 512 512" enable-background="new 0 0 512 512" xml:space="preserve">
<g>
	<g>
		<path fill="#5B5B8C" d="M150.462,387.66c-2.281,2.456-9.545,4.018-17.512,4.171c-6.174,0.119-12.793,0.119-18.779-1.68
			c-2.328-0.701-3.285-1.886-4.201-3.975c-1.688-3.845-6.082-0.077-14.25-0.321c-10.266-0.307-11.996-3.378-12.873-1.327
			c-1.734,4.061-3.234,6.404-7.982,6.933c-2.914,0.323-5.496,0.217-8.715-0.24c-5.33-0.758-6.742-2.253-7.643-8.209
			c-1.16-7.674,1.633-44.908,4.063-55.209c3.295-15.271,8.131-31.398,15.512-44.314c2.953-5.171,5.576-6.5,10.797-7.509
			c6.994-1.354,31.387-1.092,35.717,0.64c3.871,1.547,5.355,5.086,6.957,8.468c3.168,6.689,9.725,27.207,13.377,43.654
			c5.641,25.4,6.35,37.298,6.76,42.426C151.995,374.997,152.755,385.19,150.462,387.66z M101.394,360.629
			c2.359-2.357,1.396-5.752,0.709-8.503c-0.709-2.835-4.299-11.596-7.324-10.393c-0.938,0.373-2.598,1.415-3.777,4.251
			c-1.398,3.356-6.461,14.821,0.234,15.825C95.96,362.519,100.212,361.81,101.394,360.629z"/>
		<g opacity="0.22">
			<path fill="#5B5B8C" d="M150.919,382.63c-2.283,2.457-9.545,4.019-17.512,4.172c-6.174,0.118-12.793,0.119-18.779-1.679
				c-2.33-0.702-3.285-1.887-4.201-3.976c-1.688-3.845-6.082-0.077-14.25-0.321c-10.266-0.307-11.998-3.379-12.873-1.327
				c-1.734,4.06-3.234,6.403-7.982,6.933c-2.914,0.324-5.496,0.217-8.715-0.24c-5.328-0.757-6.74-2.253-7.643-8.209
				c-0.668-4.414-0.027-18.61,1.1-31.835c-1.396,14.442-2.309,31.883-1.557,36.864c0.9,5.956,2.313,7.451,7.643,8.209
				c3.219,0.457,5.801,0.563,8.715,0.24c4.748-0.528,6.248-2.872,7.982-6.933c0.877-2.051,2.607,1.021,12.873,1.327
				c8.168,0.244,12.563-3.523,14.25,0.321c0.916,2.089,1.873,3.273,4.201,3.975c5.986,1.799,12.605,1.799,18.779,1.68
				c7.967-0.153,15.23-1.715,17.512-4.171c1.148-1.237,1.531-4.412,1.59-7.755C151.804,381.103,151.44,382.067,150.919,382.63z"/>
			<path fill="#5B5B8C" d="M102.558,347.097c-0.707-2.835-4.297-11.597-7.322-10.394c-0.938,0.374-2.598,1.417-3.777,4.252
				c-0.961,2.309-3.654,8.449-3.066,12.387c0.729-2.967,2.006-5.913,2.609-7.357c1.18-2.836,2.84-3.878,3.777-4.251
				c3.025-1.203,6.615,7.558,7.324,10.393c0.189,0.765,0.4,1.579,0.557,2.407C103.937,352.287,103.149,349.456,102.558,347.097z"/>
		</g>
		<g>
			<g>
				<g>
					<path fill="#7D7DB2" d="M59.263,361.406c0.697-9.162,1.189-18.688,3.307-27.66c3.295-15.271,8.131-31.398,15.512-44.314
						c2.953-5.17,5.576-6.499,10.797-7.51c6.994-1.353,31.387-1.091,35.717,0.641c3.871,1.547,5.355,5.086,6.957,8.468
						c3.168,6.689,9.725,27.208,13.377,43.654c5.641,25.4,6.35,37.299,6.76,42.426c0.205,2.56,0.191,5.077-0.041,7.549
						c0.762-4.084,0.273-10.601,0.041-13.492c-0.41-5.128-1.119-17.025-6.76-42.426c-3.652-16.447-10.209-36.965-13.377-43.654
						c-1.602-3.382-3.086-6.921-6.957-8.468c-4.33-1.731-28.723-1.993-35.717-0.64c-5.221,1.009-7.844,2.338-10.797,7.509
						c-7.381,12.916-12.217,29.044-15.512,44.314c-1.721,7.295-3.623,28.098-4.176,42.344
						C58.731,367.259,59.038,364.354,59.263,361.406z"/>
				</g>
			</g>
		</g>
		<circle fill="#7D7DB2" cx="103.411" cy="295.402" r="3.635"/>
		<circle fill="#7D7DB2" cx="74.489" cy="368.417" r="5.389"/>
		<circle fill="#7D7DB2" cx="113.88" cy="338.739" r="4.018"/>
		<ellipse fill="#7D7DB2" cx="126.906" cy="320.082" rx="8.579" ry="8.122"/>
		<circle fill="#7D7DB2" cx="138.175" cy="356.139" r="6.293"/>
		<circle fill="#7D7DB2" cx="123.909" cy="381.179" r="2.635"/>
		<circle fill="#7D7DB2" cx="79.811" cy="314.269" r="6.292"/>
	</g>
	<g>
		<path fill="#5B5B8C" d="M354.37,304.085c-0.207-4.536-8.02-31.008,0.813-31.33c2.314-0.083,6.063,2.504,7.531,4.202
			c4.01,4.637,1.098,10.559-2.297,14.652c3.818,0.463,8.121,1.42,9.734,5.47c1.49,3.747-3.344,9.839-2,11.931
			c1.5,2.33,6.949,0.868,8.596,4.573c0.002,0.005,0.004,0.009,0.006,0.016c1.672,3.801-2.002,7.152-3.174,10.471
			c3.757-1.854,7.316,1.24,8.449,4.875c1.082,3.475-0.641,7.667-3.192,10.063c2.05-1.18,4.88-2.973,7.292-3.319
			c4.428-0.636,6.299,1.302,9.887,3.464c-4.367-7.526,1.262-13.072,8.914-10.872c-2.973-2.548-5.941-6.167-5.176-10.406
			c0.691-3.823,3.635-6.469,6.855-8.371c-3.348-1.787-9.014-1.082-10.643-5.253c-1.742-4.465,2.668-9.766,6.197-11.7
			c-2.615-2.044-6.555-3.076-7.193-6.845c-0.551-3.251,2.643-8.785,6.24-8.499c-2.646-3.359-4.867-5.854-1.676-10.062
			c3.211-4.23,7.461-2.219,11.74-0.977c-0.486-8.646,7.354-11.396,14.596-7.972c1.443,0.683,3.135,3.624,4.613,3.724
			c0.85,0.056,1.949-1.621,2.895-1.982c2.484-0.95,5.959-1.366,8.508-0.41c3.967,1.485,3.898,5.485,4.188,9.045
			c2.902-1.605,7.031-2.362,9.523,0.314c3.039,3.265,0.785,6.02-1.273,8.907c8.139-0.911,11.129,9.952,3.244,12.564
			c2.309,3.362,4.801,6.127,2.162,10.342c-2.037,3.253-6.373,4.241-9.834,4.547c-0.244,3.402-0.258,7.169-4.115,8.688
			c-5.219,2.056-10.18,0.146-11.234-5.927c-3.063,0.064-7.652,0.346-9.316-2.887c-1.348-2.621,0.092-6.267,2.6-7.621
			c6.105-3.292,12.34,5.937,18.318,0.499c5.656-5.144,4.826-14.131-0.293-19.14c-6.35-6.215-15.965-9.863-24.807-8.219
			c-11.316,2.104-13.67,11.193-11.615,21.28c1.732,8.504,4.479,16.76,5.148,25.464c0.893,11.633-2.234,24.51-12.387,31.421
			c-10.061,6.85-25.078,6.404-34.592-1.24C354.981,337.423,355.046,318.806,354.37,304.085z"/>
		<path fill="#7D7DB2" d="M379.171,339.265c0.955,0.112,2.053-0.309,2.955-0.36c2.242-0.13,4.24-0.881,6.465-0.588
			c2.495,0.327,4.957,0.726,7.422,1.207c-2.811-2.396-5.977-4.397-9.885-3.836c-1.541,0.222-6.789,1.718-7.215,3.532
			C378.997,339.239,379.083,339.254,379.171,339.265z"/>
		<path fill="#7D7DB2" d="M395.052,286.056c0.631-3.085,3.262-6.623,6.158-6.392c-0.602-0.763-1.178-1.48-1.676-2.184
			c-2.846,1.146-5.029,5.49-4.564,8.224C394.989,285.828,395.024,285.939,395.052,286.056z"/>
		<path fill="#7D7DB2" d="M404.929,330.736c-1.006-0.86-2.01-1.845-2.869-2.933c-4.84-0.195-8.209,2.967-7.465,7.568
			C395.319,331.396,399.64,329.216,404.929,330.736z"/>
		<path fill="#7D7DB2" d="M406.608,311.96c-0.703-0.375-1.508-0.641-2.357-0.865c-2.207,1.724-3.982,3.922-4.498,6.778
			c-0.16,0.893-0.154,1.757-0.02,2.59c0.008-0.044,0.012-0.087,0.02-0.132C400.444,316.507,403.388,313.861,406.608,311.96z"/>
		<path fill="#7D7DB2" d="M402.163,295.007c-0.563-0.439-1.186-0.831-1.824-1.214c-2.766,2.25-5.355,6.045-4.645,9.524
			C396.343,299.835,399.503,296.465,402.163,295.007z"/>
		<path fill="#434370" d="M449.995,290.132c-0.264,2.912-1.49,5.724-3.848,7.866c-5.979,5.438-12.213-3.791-18.318-0.499
			c-2.199,1.187-3.576,4.135-2.973,6.61c0.373-1.729,1.48-3.348,2.973-4.153c6.105-3.292,12.34,5.938,18.318,0.5
			C449.165,297.712,450.336,293.875,449.995,290.132z"/>
		<path fill="#7D7DB2" d="M399.534,269.601c3.211-4.23,7.461-2.219,11.74-0.977c-0.486-8.646,7.354-11.396,14.596-7.972
			c1.443,0.683,3.135,3.625,4.613,3.724c0.85,0.057,1.949-1.621,2.895-1.982c2.484-0.95,5.959-1.366,8.508-0.41
			c3.967,1.486,3.898,5.485,4.188,9.046c2.902-1.605,7.031-2.363,9.523,0.313c0.664,0.714,1.076,1.403,1.291,2.076
			c0.416-1.438,0.207-2.924-1.291-4.533c-2.492-2.677-6.621-1.92-9.523-0.314c-0.289-3.56-0.221-7.56-4.188-9.045
			c-2.549-0.956-5.969-1.473-8.508,0.41c-0.813,0.602-2.045,2.038-2.895,1.982c-1.479-0.1-3.221-2.939-4.613-3.724
			c-6.816-3.843-15.082-0.675-14.596,7.972c-4.279-1.242-8.529-3.254-11.74,0.977c-1.527,2.014-1.813,3.635-1.408,5.146
			C398.345,271.465,398.792,270.579,399.534,269.601z"/>
		<path fill="#7D7DB2" d="M456.083,279.95c4.273-0.479,5.363,2.59,5.969,5.705c0.701-3.478-1.709-8.262-7.729-7.862
			C453.829,278.615,455.062,279.438,456.083,279.95z"/>
		<path fill="#7D7DB2" d="M375.073,323.637c-0.592,0.155-1.115,0.493-1.455,1.082c-0.207,0.356-0.611,1.675-0.282,2.048
			c0.466,0.533,0.419,0.013,0.991-0.172c1.799-0.579,2.691-0.79,4.492,0.358c1.57,1.003,2.658,2.679,3.209,4.449
			c0.107,0.344,0.18,0.696,0.234,1.052c0.17-1.188,0.115-2.386-0.234-3.51c-0.721-2.318-2.43-4.534-4.834-5.227
			C376.509,323.521,375.745,323.462,375.073,323.637z"/>
		<path fill="#7D7DB2" d="M368.169,309.03c-0.291,1.02-0.379,1.874-0.018,2.438c1.5,2.33,6.949,0.868,8.596,4.573
			c0.002,0.005,0.004,0.009,0.006,0.015c0.121,0.274,0.211,0.548,0.279,0.819c0.24-1.06,0.217-2.148-0.279-3.276
			c-0.002-0.007-0.004-0.011-0.006-0.016C375.106,309.889,369.687,311.331,368.169,309.03z"/>
		<path fill="#7D7DB2" d="M361.417,292.41c0.543,0.327,1.129,0.715,1.402,0.831c1.017,0.433,2.1,0.782,3.033,1.386
			c1.643,1.063,3.576,3.096,4.299,4.91c0.066,0.167,0.115,0.34,0.158,0.516c0.189-1.066,0.195-2.086-0.158-2.974
			c-1.496-3.758-6.021-5.469-9.82-5.167C360.519,291.897,360.954,292.132,361.417,292.41z"/>
		<path fill="#7B7BAF" d="M236.786,305.297c0.742,2.489,6.836,4.185,5.152,0.151C241.048,303.318,235.636,301.433,236.786,305.297z"
			/>

			<linearGradient id="SVGID_1_" gradientUnits="userSpaceOnUse" x1="261.9854" y1="316.7998" x2="264.3514" y2="320.6162" gradientTransform="matrix(0.9886 -0.1503 0.1503 0.9886 -68.5398 30.2198)">
			<stop  offset="0" style="stop-color:#5B5B8C"/>
			<stop  offset="0.5926" style="stop-color:#505088"/>
			<stop  offset="1" style="stop-color:#464685"/>
		</linearGradient>
		<path fill="url(#SVGID_1_)" d="M237.155,305.71c0.664,2.121,6.369,3.493,4.84,0.063
			C241.187,303.961,236.124,302.418,237.155,305.71z"/>

			<ellipse transform="matrix(0.4285 -0.9036 0.9036 0.4285 -146.6047 387.0703)" fill="#7B7BAF" cx="232.66" cy="309.42" rx="2.386" ry="3.672"/>
		<linearGradient id="SVGID_2_" gradientUnits="userSpaceOnUse" x1="230.1128" y1="309.6465" x2="236.1567" y2="309.6465">
			<stop  offset="0" style="stop-color:#5B5B8C"/>
			<stop  offset="0.5926" style="stop-color:#505088"/>
			<stop  offset="1" style="stop-color:#464685"/>
		</linearGradient>
		<path fill="url(#SVGID_2_)" d="M234.157,307.489c1.57,0.744,2.385,2.313,1.82,3.504c-0.564,1.191-2.295,1.554-3.865,0.81
			c-1.57-0.745-2.385-2.313-1.82-3.505C230.856,307.107,232.587,306.745,234.157,307.489z"/>

			<ellipse transform="matrix(0.1886 -0.982 0.982 0.1886 -124.6575 483.0975)" fill="#7B7BAF" cx="230.033" cy="316.989" rx="2.387" ry="3.672"/>
		<linearGradient id="SVGID_3_" gradientUnits="userSpaceOnUse" x1="227.5278" y1="317.0977" x2="233.6733" y2="317.0977">
			<stop  offset="0" style="stop-color:#5B5B8C"/>
			<stop  offset="0.5926" style="stop-color:#505088"/>
			<stop  offset="1" style="stop-color:#464685"/>
		</linearGradient>
		<path fill="url(#SVGID_3_)" d="M231.052,314.754c1.678,0.322,2.836,1.634,2.588,2.929c-0.248,1.294-1.811,2.081-3.49,1.76
			c-1.678-0.323-2.836-1.634-2.588-2.929C227.812,315.22,229.372,314.433,231.052,314.754z"/>

			<ellipse transform="matrix(-0.1849 -0.9828 0.9828 -0.1849 -44.2586 615.3672)" fill="#7B7BAF" cx="233.056" cy="326.037" rx="2.387" ry="3.673"/>
		<linearGradient id="SVGID_4_" gradientUnits="userSpaceOnUse" x1="230.5894" y1="325.9258" x2="236.6973" y2="325.9258">
			<stop  offset="0" style="stop-color:#5B5B8C"/>
			<stop  offset="0.5926" style="stop-color:#505088"/>
			<stop  offset="1" style="stop-color:#464685"/>
		</linearGradient>
		<path fill="url(#SVGID_4_)" d="M233.202,323.58c1.668-0.313,3.219,0.482,3.463,1.778c0.242,1.295-0.912,2.6-2.582,2.913
			c-1.668,0.313-3.219-0.481-3.461-1.777C230.378,325.199,231.532,323.895,233.202,323.58z"/>
		<path fill="#7FA840" d="M359.946,289.03c-0.039,2.886-0.453,6.041,0.188,8.844c0.689,3.027,2.4,6.089,3.83,8.826
			c2.711,5.185,5.867,9.831,7.447,15.522c1.525,5.5,1.703,12.479,4.383,17.519c2.854,5.369,11.488,3.338,16.348,2.81
			c6.967-0.76,11.115-8.446,13.346-14.303c2.34-6.143,3.791-12.802,2.564-19.35c-1.469-7.841-5.314-15.023-6.367-22.985
			c-2.645-19.977,18.188-27.816,34.555-21.422c9.572,3.738,18.777,12.148,20.533,22.673c1.361,8.165-2.951,16.692-10.602,20.092
			c-5.585,2.481-11.947,0.515-15.186-4.627c-1.209-1.916-2.934-5.155-0.352-6.83c2.627-1.703,5.971,1.962,8.541,2.149
			c8.123,0.593,6.754-10.176,3.277-14.316c-7.592-9.042-26.32-3.245-26.82,8.805c-0.252,6.053,4.277,11.292,7.391,16.054
			c3.996,6.109,6.842,12.609,7.375,19.969c1.201,16.578-6.699,32.019-21.877,39.164c-21.869,10.296-47.414,10.52-71.068,10.041
			c-7.441-0.15-14.881-0.488-22.299-1.116c-4.598-0.39-9.184-0.839-13.762-1.395c-10.711-1.302-20.314-2.698-29.518-8.773
			c-4.918-3.244-8.338-8.9-10.844-14.131c-6.918-14.442-4.064-30.158,4.857-43.002c2.654-3.821,5.504-7.692,8.662-11.117
			c4.602-4.987,10.023-8.779,16.545-10.751c6.168-1.866,11.16-5.803,17.119-8.086c7.824-2.998,15.941-5.191,24.287-6.068
			c4.387-0.461,8.811-0.456,13.189-0.942c3.994-0.444,10.529-4.23,14.344-1.952c2.506,1.498,2.365,4.524,1.875,7.039
			c-0.74,3.801-1.953,7.375-1.961,11.305C359.948,288.792,359.946,288.911,359.946,289.03z"/>
		<path opacity="0.3" fill="#7FA840" d="M446.735,297.792c-2.939,3.825-10.041,3.554-13.875,1.385
			c-1.951-1.105-4.096-3.28-0.816-3.713c2.346-0.31,4.787,2.313,7.135,2.484c8.657,0.631,6.25-10.96,3.479-14.292
			C449.165,284.221,450.083,293.435,446.735,297.792z"/>
		<path opacity="0.3" fill="#7FA840" d="M359.946,289.03c-0.047,3.129-0.461,6.638,0.459,9.987
			c-3.434-2.825-8.336-3.168-12.539-3.946c-4.139-0.768-8.137-0.957-12.449-0.955c-6.313,0.003-41.271,2.063-37.654-8.958
			c1.615-4.917,6.449-4.331,10.451-5.865c7.824-2.998,15.941-5.191,24.287-6.068c4.387-0.461,8.811-0.456,13.189-0.942
			c3.994-0.444,10.529-4.23,14.344-1.952c2.506,1.498,2.365,4.524,1.875,7.039c-0.74,3.801-1.953,7.375-1.961,11.305
			C359.948,288.792,359.946,288.911,359.946,289.03z"/>
		<path fill="#7FA840" d="M259.376,338.904c3.307,0.231,6.371-0.024,8.811-0.81c5.191-1.673,7.729-7,10.758-11.307
			c4.25-6.043,6.982-12.057,5.92-19.627c-0.691-4.927-4.586-12.986-10.789-10.903c-6.133,2.06-7.766,9.26-14.467,9.716
			c-4.459,0.304-8.873-0.716-13.291-1.032c-10.799-0.771-16.063,6.862-13.873,17.492
			C234.677,333.273,249.825,338.237,259.376,338.904z"/>
		<path opacity="0.3" fill="#7FA840" d="M259.108,309.383c0.455-0.004,0.908-0.019,1.363-0.049c3.967-0.26,8.107-1.456,10.973-4.351
			c1.561-1.576,2.959-3.841,3.063-6.099c0.033-0.724-0.029-1.847-0.824-2.17c-0.744-0.304-1.615,0.327-2.178,0.746
			c-1.334,0.996-2.547,2.24-3.697,3.441c-2.326,2.424-4.631,4.828-8.199,5.071c-4.459,0.304-8.873-0.716-13.291-1.032
			c-2.355-0.168-5.172-0.053-7.324,1.034c1.846-0.301,3.813,0.03,5.621,0.412c2.252,0.476,4.359,1.439,6.598,1.984
			C253.794,309.001,256.448,309.405,259.108,309.383z"/>
		<path opacity="0.2" fill="#44803C" d="M274.55,298.13c4.602-4.987,10.023-8.779,16.545-10.751
			c6.168-1.866,11.16-5.803,17.119-8.086c7.824-2.998,15.941-5.191,24.289-6.068c8.334-0.876,31.779-3.589,25.035,12.316
			c-3.879,9.147-18.004,12.461-25.67,17.562c-3.941,2.624-7.354,8.318-11.986,9.317c-7.875,1.701-16.436-1.031-24.377-0.939
			c-6.248,0.072-12.514,0.102-18.742-0.463c-1.574-0.144-8.012-0.296-9.025-1.685C265.79,306.662,272.698,300.139,274.55,298.13z"/>
		<path opacity="0.3" fill="#7FA840" d="M359.819,295.529c-0.074,1.871-0.084,3.756,0.314,5.504c0.689,3.028,2.4,6.09,3.83,8.827
			c2.711,5.185,5.867,9.831,7.447,15.523c1.525,5.498,1.703,12.479,4.383,17.518c2.854,5.368,11.488,3.339,16.348,2.809
			c6.967-0.759,11.115-8.446,13.346-14.303c1.941-5.093,3.264-10.543,2.963-15.989c-0.236,4.383-1.396,8.722-2.963,12.83
			c-2.23,5.856-6.379,13.543-13.346,14.303c-4.859,0.528-13.494,2.56-16.348-2.81c-2.68-5.039-2.857-12.019-4.383-17.519
			c-1.58-5.691-4.736-10.338-7.447-15.522c-1.43-2.737-3.141-5.799-3.83-8.826C359.96,297.115,359.866,296.329,359.819,295.529z"/>
		<path opacity="0.42" fill="#B8D442" d="M436.239,267.651c11.646,4.549,18.295,13.37,20.719,24.06
			c0.123-1.506,0.066-3.032-0.186-4.547c-1.756-10.524-10.961-18.935-20.533-22.673c-15.879-6.204-35.959,0.992-34.727,19.67
			C402.618,267.848,421.288,261.81,436.239,267.651z"/>
		<path opacity="0.3" fill="#7FA840" d="M423.022,308.49c-3.113-4.762-7.643-10.001-7.391-16.054
			c0.398-9.591,12.344-15.22,21.031-12.559c-8.43-6.279-24.418-0.486-24.879,10.635c-0.252,6.053,4.277,11.292,7.391,16.054
			c3.996,6.11,6.842,12.608,7.375,19.969c2.572,35.497-32.654,45.938-61.664,50.858c15.072-0.871,30.061-3.38,43.635-9.771
			c15.178-7.146,23.078-22.586,21.877-39.164C429.864,321.1,427.019,314.6,423.022,308.49z"/>
		<path fill="#7FA840" d="M277.315,328.547c-8.963-3.888-22.771-3.66-28.771,5.189c-1.877,2.768-2.449,7.982-2.018,11.31
			c1.012,7.818,4.986,17.604,12.008,20.764c-4.012,0.466-24.338,1.987-15.301,9.438c5.389,4.44,11.777,5.549,18.547,4.86
			c6.113-0.621,10.059-5.384,15.891-6.649c6.49-1.406,19.602-0.521,23.482-6.766c6.102-9.822-4.072-17.036-8.309-24.699
			C289.419,335.794,283.751,331.337,277.315,328.547z"/>
		<path opacity="0.4" fill="#44803C" d="M261.78,380.107c6.113-0.621,10.059-5.384,15.891-6.649
			c6.49-1.406,19.602-0.521,23.482-6.766c6.102-9.822-4.072-17.036-8.309-24.699c-3.426-6.199-9.094-10.656-15.529-13.446
			c-8.963-3.888-22.771-3.66-28.771,5.189c-1.877,2.768-2.449,7.982-2.018,11.31c0.818,6.335,3.346,14.541,8.65,18.628
			c2.408,1.856,7.656,3.551,8.563,6.795c1.398,5.012-6.537,6.463-9.006,9.619C257.194,380.24,259.28,380.362,261.78,380.107z"/>
		<path opacity="0.3" fill="#7FA840" d="M261.782,380.107c6.111-0.622,10.057-5.384,15.889-6.649
			c3.686-0.798,9.486,0.003,12.318-3.09c2.186-2.383,1.676-5.119-1.654-5.985c-3.531-0.916-8.43,0.938-11.549,2.537
			c-5.42,2.777-9.93,11.402-21.869,11.202c-4.422-0.074-12.41-4.695-13.549-7.445c-1.678,2.951,4.127,7.108,10.195,8.787
			C256.181,380.74,260.769,380.212,261.782,380.107z"/>
		<path opacity="0.1" fill="#7FA840" d="M268.901,334.057c0.787-0.731-1.838,1.65-1.281,0.419
			c3.119-6.883,1.727-17.695-1.982-23.802c-2.121-3.489-5.436-5.925-8.74-4.249c-8.701,4.411-10.379,29.561-10.379,29.561
			S260.519,341.854,268.901,334.057z"/>
		<path opacity="0.2" fill="#44803C" d="M294.505,310.876c4.252,3.943,7.439,8.886,8.533,14.461
			c4.197,21.423-12.975,52.019-29.799,46.071c-15.533-5.492-20.781-20.229-21.811-24.792c-1.1-4.864-1.66-14.973-1.172-18.965
			c1.799-14.683,9.984-29.479,26.766-25.901C283.208,303.068,289.573,306.301,294.505,310.876z"/>
		<path fill="#7FA840" d="M318.298,288.686c-3.107,15.757,0.51,28.998,5.109,44.069c1.76,5.764,3.623,11.496,5.445,17.24
			c1.982,6.25,2.934,9.333-0.145,15.344c-5.639,11.005-19.902,11.57-30.512,10.764c-9.574-0.727-20.176-0.888-28.262-6.752
			c-6.105-4.43-12.467-9.273-15.834-18.412c-2.781-7.547-2.879-15.351-1.902-23.319c0.934-7.617,4.064-14.908,8.422-21.181
			c2.656-3.821,5.504-7.691,8.664-11.117c4.6-4.987,10.023-8.779,16.545-10.751c6.854-2.074,11.756-6.684,17.736-10.223
			c3.316-1.963,9.104-5.842,12.717-2.69C320.683,275.493,319.243,283.883,318.298,288.686z"/>
		<linearGradient id="SVGID_5_" gradientUnits="userSpaceOnUse" x1="292.332" y1="281.6523" x2="298.1035" y2="378.8052">
			<stop  offset="0" style="stop-color:#698200"/>
			<stop  offset="0.161" style="stop-color:#849E17"/>
			<stop  offset="0.3403" style="stop-color:#9BB62A"/>
			<stop  offset="0.5313" style="stop-color:#ABC737"/>
			<stop  offset="0.7401" style="stop-color:#B5D13F"/>
			<stop  offset="1" style="stop-color:#B8D442"/>
		</linearGradient>
		<path fill="url(#SVGID_5_)" d="M323.563,291.493c-3.107,15.758,0.51,28.999,5.111,44.07c1.76,5.764,3.621,11.497,5.445,17.24
			c1.98,6.25,2.932,9.333-0.146,15.344c-5.639,11.005-19.9,11.571-30.512,10.764c-9.574-0.727-20.176-0.888-28.26-6.752
			c-6.107-4.43-12.469-9.273-15.834-18.412c-2.781-7.547-2.881-15.351-1.904-23.319c0.934-7.617,4.066-14.908,8.424-21.181
			c2.654-3.821,5.504-7.692,8.662-11.117c4.602-4.987,10.023-8.779,16.545-10.751c6.854-2.073,11.756-6.684,17.736-10.223
			c3.318-1.963,9.104-5.842,12.717-2.69C325.948,278.302,324.511,286.691,323.563,291.493z"/>
		<path opacity="0.5" fill="#A1B725" d="M274.55,298.13c4.602-4.987,10.023-8.779,16.545-10.751
			c6.854-2.073,11.756-6.684,17.736-10.223c3.318-1.963,9.104-5.842,12.717-2.69c4.4,3.836,2.963,12.226,2.014,17.032
			c-0.607,3.084-1.115,6.322-1.096,9.45c0.023,3.835,0.658,11.767,0.658,11.767s-7.057,1.679-9.891,2.076
			c-8.029,1.128-15.033,1.94-23.086,1.442c-3.252-0.2-6.496-0.526-9.711-1.07c-3.527-0.596-7.266-1.385-10.439-3.102
			c-0.795-0.431-1.533-0.84-2.236-1.41c-0.322-0.261-0.701-0.464-1.002-0.748c-0.629-0.595-0.619-1.045-0.139-1.704
			c0.613-0.845,1.207-1.704,1.822-2.546c1.232-1.684,2.506-3.34,3.844-4.938C273.021,299.836,273.774,298.972,274.55,298.13z"/>
		<path opacity="0.5" fill="#A1B725" d="M274.198,291.459c4.602-4.987,10.025-8.778,16.547-10.751
			c6.854-2.073,11.754-6.684,17.734-10.223c3.318-1.963,9.104-5.842,12.719-2.69c4.4,3.837,2.961,12.226,2.014,17.032
			c-0.609,3.084-1.115,6.322-1.098,9.45c0.025,3.835,0.658,11.767,0.658,11.767s-7.057,1.679-9.889,2.076
			c-8.031,1.128-15.035,1.94-23.086,1.442c-1.484-0.091-2.965-0.211-4.445-0.358c-1.801-0.18-3.592-0.436-5.377-0.728
			c-1.875-0.307-3.721-0.737-5.547-1.254c-1.705-0.482-3.406-1.075-4.959-1.935c-0.715-0.397-1.398-0.726-2.016-1.275
			c-0.531-0.473-1.383-0.759-1.51-1.564c-0.143-0.899,0.963-1.813,1.443-2.454c1.406-1.866,2.752-3.767,4.229-5.581
			C272.44,293.4,273.315,292.418,274.198,291.459z"/>
		<path fill="#44803C" d="M145.687,208.427c-4.309,2.485-12.777,1.483-15.986-2.742c-2.971-3.908-0.281-9.668,2.027-13.183
			c2.941-4.474,7.193-6.313,12.34-5.514C157.306,189.044,155.784,202.6,145.687,208.427z"/>
		<path fill="#7FA840" d="M393.843,239.872c-3.047,12.854-9.393,25.289-18.66,34.373c-5.322,5.217-11.264,9.807-17.629,13.684
			c-15.553,9.475-32.379,14.924-50.127,17.791c-40.41,6.53-79.164-0.916-112.951-24.83c-9.166-6.49-17.955-12.773-27.676-18.438
			c-6.588-3.838-13.273-8.428-20.986-9.546c-3.697-0.535-7.299,0.188-10.994-0.453c-3.59-0.623-7.01-2.173-9.639-4.726
			c-8.459-8.215-9.582-18.958-8.348-29.781c1.098-9.613,9.52-18.599,17.371-23.771c8.219-5.413,18.611-3.629,27.834-5.507
			c10.723-2.183,20.666-6.97,30.926-10.603c6.846-2.424,13.881-4.5,21.096-5.479c14.432-1.958,26.305,3.102,33.088-13.191
			c2.584-6.201,5.723-12.91,10.615-17.655c4.371-4.24,11.781-7.873,17.932-7.918c3.803-0.028,6.9,2.613,10.498,3.465
			c6.023,1.428,13.707-2.93,19.904-3.397c7.564-0.57,15.398,0.762,22.227,4.12c5.578,2.744,9.598,7.227,12.959,12.364
			c2.904,4.435,5.326,12.221,10.428,14.601c4.336,2.022,22.691,0.165,37.975,25.887
			C397.458,203.942,397.267,225.415,393.843,239.872z"/>
		<path opacity="0.3" fill="#7FA840" d="M395.403,211.962c-0.031,7.283-0.482,14.443-1.898,20.424
			c-3.146,13.281-9.705,26.127-19.279,35.512c-5.498,5.39-11.637,10.132-18.211,14.136c-16.068,9.789-33.451,15.42-51.787,18.382
			c-24.484,3.956-49.984,2.29-73.951-3.929c-8.26-2.144-16.406-4.851-24.279-8.18c30.98,18.038,65.596,23.278,101.521,17.474
			c17.748-2.867,34.236-8.26,49.789-17.734c6.363-3.876,12.334-8.73,17.656-13.946c9.266-9.085,15.613-21.519,18.66-34.374
			C395.526,231.692,396.31,221.685,395.403,211.962z"/>
		<path opacity="0.6" fill="#B8D442" d="M117.144,221.663c1.096-9.612,9.52-18.599,17.371-23.771
			c8.217-5.413,18.609-3.63,27.834-5.507c10.723-2.184,20.664-6.971,30.926-10.604c6.846-2.423,13.881-4.5,21.094-5.479
			c14.434-1.959,26.307,3.101,33.09-13.191c2.582-6.202,5.723-12.911,10.613-17.655c4.371-4.24,11.781-7.873,17.934-7.919
			c3.803-0.028,6.898,2.613,10.498,3.466c6.023,1.428,13.707-2.93,19.902-3.397c7.566-0.571,15.398,0.761,22.229,4.12
			c5.578,2.744,9.596,7.227,12.959,12.363c2.902,4.436,5.326,12.222,10.428,14.602c4.334,2.021,22.689,0.164,37.975,25.887
			c4.348,7.32,5.67,17.396,5.861,27.27c0.215-10.985-0.996-22.591-5.861-30.78c-15.285-25.723-33.641-23.865-37.975-25.887
			c-5.102-2.381-7.525-10.167-10.428-14.602c-3.363-5.138-7.381-9.619-12.959-12.363c-6.83-3.359-14.662-4.691-22.229-4.12
			c-6.195,0.468-13.879,4.824-19.902,3.397c-3.6-0.853-6.695-3.494-10.498-3.466c-6.152,0.046-13.563,3.679-17.934,7.918
			c-4.891,4.745-8.031,11.454-10.613,17.655c-6.783,16.293-18.656,11.233-33.09,13.192c-7.213,0.979-14.248,3.055-21.094,5.479
			c-10.262,3.633-20.203,8.42-30.926,10.603c-9.225,1.878-19.617,0.094-27.834,5.508c-7.852,5.172-16.275,14.158-17.371,23.771
			c-0.328,2.886-0.488,5.766-0.389,8.594C116.813,225.06,116.95,223.362,117.144,221.663z"/>

			<ellipse transform="matrix(0.9484 0.317 -0.317 0.9484 66.0237 -75.5514)" opacity="0.3" fill="#7FA840" cx="265.236" cy="165.163" rx="17.414" ry="26.575"/>

			<ellipse transform="matrix(0.9484 0.3169 -0.3169 0.9484 70.011 -85.0663)" opacity="0.3" fill="#7FA840" cx="296.481" cy="172.666" rx="22.061" ry="30.188"/>

			<ellipse transform="matrix(0.9485 0.3169 -0.3169 0.9485 65.6099 -74.9981)" fill="#365A53" cx="263.353" cy="164.189" rx="17.143" ry="23.458"/>

			<ellipse transform="matrix(0.9484 0.3169 -0.3169 0.9484 69.7147 -84.5031)" fill="#365A53" cx="294.604" cy="172.039" rx="19.475" ry="26.649"/>

			<ellipse transform="matrix(0.9484 0.317 -0.317 0.9484 65.6753 -74.5892)" fill="#E5EDBB" cx="262.098" cy="164.567" rx="15.602" ry="20.985"/>

			<radialGradient id="SVGID_6_" cx="268.9102" cy="165.1826" r="14.3578" gradientTransform="matrix(0.9167 0.3439 -0.4984 1.3346 101.1271 -149.046)" gradientUnits="userSpaceOnUse">
			<stop  offset="0" style="stop-color:#F9EC31"/>
			<stop  offset="0.2209" style="stop-color:#F5EC4B"/>
			<stop  offset="0.6893" style="stop-color:#ECED8C"/>
			<stop  offset="1" style="stop-color:#E5EDBB"/>
		</radialGradient>
		<path fill="url(#SVGID_6_)" d="M275.784,169.142c-3.672,10.992-13.027,17.772-20.893,15.144
			c-7.867-2.629-11.266-13.67-7.592-24.663s13.027-17.772,20.893-15.145C276.06,147.106,279.458,158.148,275.784,169.142z"/>
		<path opacity="0.7" fill="#FFFFFF" d="M251.384,160.501c2.725-8.154,8.316-14.204,14.393-16.469
			c-7.35-0.584-15.211,5.817-18.477,15.59c-3.523,10.542-0.414,21.165,6.932,24.387C249.716,178.65,248.36,169.55,251.384,160.501z"
			/>

			<ellipse transform="matrix(0.9484 0.3169 -0.3169 0.9484 69.4979 -84.0768)" fill="#E5EDBB" cx="293.188" cy="171.587" rx="17.68" ry="23.838"/>

			<radialGradient id="SVGID_7_" cx="296.4658" cy="171.1514" r="16.3274" gradientTransform="matrix(0.9326 0.2442 -0.3574 1.3397 79.8115 -130.4137)" gradientUnits="userSpaceOnUse">
			<stop  offset="0" style="stop-color:#F9EC31"/>
			<stop  offset="0.2209" style="stop-color:#F5EC4B"/>
			<stop  offset="0.6893" style="stop-color:#ECED8C"/>
			<stop  offset="1" style="stop-color:#E5EDBB"/>
		</radialGradient>
		<path fill="url(#SVGID_7_)" d="M308.269,176.627c-4.172,12.486-14.684,20.227-23.48,17.287
			c-8.795-2.938-12.541-15.443-8.369-27.931c4.174-12.487,14.684-20.228,23.48-17.289
			C308.694,151.634,312.442,164.14,308.269,176.627z"/>
		<path opacity="0.7" fill="#FFFFFF" d="M281.464,168.786c3.646-10.915,11.875-18.471,20.143-19.456
			c-0.363-0.159-0.73-0.309-1.109-0.436c-9.125-3.049-19.904,4.602-24.078,17.089c-3.818,11.428-0.777,22.94,6.76,27.149
			C279.325,187.005,278.429,177.871,281.464,168.786z"/>

			<ellipse transform="matrix(0.9724 0.2333 -0.2333 0.9724 45.5546 -57.2545)" fill="#231F20" cx="264.854" cy="163.981" rx="6.27" ry="8.527"/>

			<ellipse transform="matrix(0.9808 0.195 -0.195 0.9808 39.0485 -54.7839)" fill="#231F20" cx="297.843" cy="170.986" rx="7.171" ry="9.752"/>
		<path fill="#A1B725" d="M324.345,319.664c-0.055-0.226-0.107-0.454-0.16-0.683c-1.926,0.391-3.852,0.772-5.783,1.129
			c-6.727,1.242-13.533,2.152-20.381,2.259c-12.424,0.194-24.453-2.65-36.355-5.898c-0.137,0.281-0.268,0.566-0.398,0.852
			c12.33,3.342,24.693,6.08,37.563,5.788c6.949-0.157,13.863-1.215,20.684-2.495C321.126,320.313,322.737,319.993,324.345,319.664z"
			/>
		<path fill="#A1B725" d="M320.997,337.199c0.162-0.333,0.324-0.663,0.49-0.992c-3.92,0.257-7.855,0.365-11.777,0.435
			c-15.068,0.267-30.418-0.42-45.014-4.46c-2.412-0.668-4.809-1.442-7.146-2.36c-0.027,0.202-0.061,0.403-0.086,0.606
			c-0.021,0.183-0.041,0.364-0.063,0.547c7.512,2.869,15.553,4.257,23.49,5.336c6.773,0.921,13.574,1.301,20.402,1.349
			c5.889,0.043,11.781-0.054,17.662-0.354C319.634,337.271,320.315,337.235,320.997,337.199z"/>
		<path fill="#A1B725" d="M296.981,350.856c-13.652,0.034-27.15-2.703-39.889-7.527c0.033,0.386,0.074,0.769,0.117,1.153
			c13.496,4.962,27.539,7.338,41.975,7.227c5.201-0.04,10.402-0.208,15.59-0.568c0.121-0.292,0.248-0.58,0.377-0.865
			C309.104,350.703,303.038,350.842,296.981,350.856z"/>
		<path fill="#A1B725" d="M287.181,362.966c-6.266-0.587-12.52-1.619-18.584-3.313c-2.559-0.714-5.363-1.538-7.885-2.778
			c0.268,0.539,0.545,1.063,0.834,1.569c1.828,0.747,3.725,1.336,5.533,1.873c6.375,1.89,13.012,2.939,19.617,3.584
			c8.219,0.799,16.957,1.051,25.404-0.063c0.01-0.306,0.029-0.612,0.057-0.92C303.853,364.005,295.255,363.722,287.181,362.966z"/>
		<path fill="#A1B725" d="M315.733,372.356c-0.01-0.135-0.037-0.275-0.078-0.42c-8.238,1.322-16.781,1.313-25.02,0.605
			c-7.061-0.608-14.354-2.343-21.174-4.81c0.611,0.521,1.23,1.025,1.854,1.516c6.182,1.98,12.631,3.332,18.957,3.876
			C298.655,373.845,307.354,373.744,315.733,372.356z"/>
		<path fill="#CBE051" d="M324.044,318.321c-0.014-0.063-0.029-0.126-0.043-0.189c-0.033-0.165-0.061-0.332-0.096-0.497
			c-1.83,0.371-3.666,0.731-5.504,1.071c-6.727,1.243-13.533,2.153-20.381,2.26c-12.211,0.189-24.039-2.553-35.74-5.73
			c-0.145,0.279-0.283,0.562-0.422,0.843c12.133,3.27,24.307,5.915,36.971,5.628c6.949-0.157,13.863-1.215,20.684-2.495
			C321.024,318.927,322.534,318.628,324.044,318.321z"/>
		<path fill="#CBE051" d="M321.72,335.753c0.174-0.337,0.352-0.673,0.533-1.006c-4.174,0.296-8.365,0.416-12.543,0.49
			c-15.068,0.267-30.418-0.421-45.014-4.46c-2.34-0.647-4.67-1.396-6.943-2.278c-0.064,0.378-0.123,0.758-0.176,1.138
			c7.459,2.823,15.438,4.198,23.314,5.27c6.773,0.921,13.574,1.301,20.402,1.349c5.889,0.042,11.781-0.054,17.662-0.354
			C319.872,335.854,320.794,335.807,321.72,335.753z"/>
		<path fill="#CBE051" d="M296.981,349.452c-13.688,0.034-27.225-2.719-39.992-7.566c0.021,0.382,0.049,0.761,0.08,1.14
			c13.537,4.998,27.629,7.392,42.115,7.279c5.418-0.042,10.836-0.223,16.238-0.616c0.143-0.296,0.289-0.584,0.438-0.87
			C309.579,349.288,303.276,349.437,296.981,349.452z"/>
		<path fill="#CBE051" d="M287.181,361.562c-6.266-0.587-12.52-1.619-18.584-3.313c-2.844-0.794-5.992-1.727-8.721-3.213
			c0.229,0.547,0.469,1.079,0.719,1.597c2.113,0.946,4.357,1.649,6.484,2.28c6.375,1.89,13.012,2.939,19.617,3.584
			c8.254,0.803,17.029,1.053,25.508-0.077c0.033-0.31,0.072-0.619,0.113-0.927C303.964,362.604,295.306,362.323,287.181,361.562z"/>
		<path fill="#CBE051" d="M315.206,371.033c-0.086-0.136-0.176-0.267-0.268-0.395c-8.016,1.208-16.303,1.186-24.303,0.498
			c-7.963-0.685-16.221-2.802-23.762-5.789c0.533,0.535,1.08,1.051,1.635,1.55c7.018,2.5,14.473,4.196,21.764,4.822
			C298.479,372.426,306.993,372.34,315.206,371.033z"/>
		<path fill="#7FA840" d="M324.188,318.993c-0.053-0.227-0.102-0.455-0.148-0.683c-1.877,0.379-3.756,0.75-5.639,1.098
			c-6.727,1.243-13.533,2.152-20.381,2.26c-12.318,0.191-24.248-2.602-36.051-5.815c-0.141,0.28-0.283,0.561-0.416,0.846
			c12.232,3.307,24.504,5.999,37.275,5.71c6.949-0.158,13.863-1.216,20.684-2.495C321.073,319.62,322.632,319.312,324.188,318.993z"
			/>
		<path fill="#7FA840" d="M321.351,336.477c0.168-0.336,0.338-0.668,0.512-0.998c-4.045,0.275-8.105,0.39-12.152,0.461
			c-15.068,0.267-30.418-0.42-45.014-4.461c-2.379-0.658-4.744-1.421-7.053-2.321c-0.059,0.381-0.113,0.763-0.162,1.145
			c7.488,2.849,15.5,4.23,23.41,5.307c6.773,0.921,13.574,1.301,20.402,1.35c5.889,0.042,11.781-0.055,17.662-0.354
			C319.751,336.563,320.55,336.521,321.351,336.477z"/>
		<path fill="#7FA840" d="M296.981,350.154c-13.672,0.033-27.191-2.711-39.947-7.548c0.029,0.382,0.057,0.763,0.094,1.143
			c13.521,4.983,27.594,7.37,42.057,7.258c5.305-0.041,10.611-0.215,15.902-0.592c0.131-0.294,0.268-0.582,0.406-0.867
			C309.333,349.996,303.153,350.14,296.981,350.154z"/>
		<path fill="#7FA840" d="M287.181,362.264c-6.266-0.587-12.52-1.619-18.584-3.313c-2.707-0.757-5.691-1.639-8.324-3.005
			c0.248,0.546,0.508,1.074,0.777,1.588c1.979,0.848,4.055,1.495,6.029,2.08c6.375,1.89,13.012,2.94,19.617,3.583
			c8.232,0.802,16.984,1.053,25.443-0.067c0.023-0.308,0.055-0.617,0.088-0.924C303.903,363.304,295.278,363.022,287.181,362.264z"
			/>
		<path fill="#7FA840" d="M315.563,371.681c-0.053-0.126-0.113-0.254-0.193-0.387c-0.002-0.006-0.006-0.011-0.01-0.016
			c-8.146,1.274-16.584,1.261-24.725,0.561c-7.531-0.646-15.326-2.574-22.529-5.31c0.574,0.529,1.16,1.042,1.752,1.537
			c6.619,2.242,13.59,3.769,20.414,4.355C298.599,373.138,307.237,373.042,315.563,371.681z"/>
		<path opacity="0.5" fill="#A1B725" d="M321.659,372.374c-8.412,0.839-15.65,0.112-23.891-0.494
			c-8.277-0.613-16.453-1.225-24.137-5.016c-14.873-7.341-15.316-15.972-14.264-13.117c3.365,9.139,9.727,13.982,15.834,18.412
			c8.084,5.864,18.686,6.025,28.26,6.752c9.543,0.726,22.037,0.337,28.557-7.754C328.329,371.746,324.722,372.069,321.659,372.374z"
			/>
		<path opacity="0.5" fill="#7DAA00" d="M295.755,375.623c-1.496-0.091-2.988-0.254-4.473-0.458
			c-2.635-0.365-5.248-0.866-7.865-1.332c-1.309-0.233-2.615-0.457-3.93-0.651c-0.658-0.098-1.316-0.187-1.979-0.267
			c-0.549-0.067-1.135-0.373-1.688-0.315c1.754,1.119,3.555,2.098,5.5,2.849c3.51,1.353,7.217,2.075,10.939,2.53
			c3.721,0.457,7.465,0.649,11.201,0.933c9.543,0.726,22.037,0.337,28.557-7.754c-2.891,0.461-5.205-0.678-8.123,0.401
			c-4.254,1.572-7.678,4.245-12.273,4.229C306.349,375.771,301.022,375.945,295.755,375.623z"/>
		<path fill="#7FA840" d="M345.103,381.464c3.604-0.177,7.223-0.368,10.854-0.788c4.301-0.498,11.406-5.029,4.58-8.675
			c18.279,0.162,7.037-24.929,0.662-31.889c-7.02-7.663-11.951-8.463-22.166-7.979c-16.225,0.77-36.672,2.304-34.799,23.798
			c0.561,6.431,6.523,12.027,10.914,16.222c-2.053-1.961-14.355,3.135-15.826,5.079c-4.002,5.287,4.168,6.871,7.73,7.617
			c2.564,0.537,4.938,1.097,7.586,1.242c2.277,0.125,4.041,0.233,6.189-0.618c2.246-0.89,4.471-1.882,6.854-2.348
			C333.442,381.999,339.255,381.75,345.103,381.464z"/>
		<path opacity="0.2" fill="#44803C" d="M329.923,374.935c-8.824-2.87-17.99-7.526-21.619-16.728
			c-4.51-11.434,5.887-19.655,15.975-21.967c5.256-1.203,10.729-1.431,15.947-2.711c-5.539-3.766-18.9-0.085-24.635,2.395
			c-8.4,3.634-12.141,10.992-11.357,20.009C305.353,368.758,318.757,374.885,329.923,374.935z"/>
		<path opacity="0.2" fill="#44803C" d="M328.116,378.617c-0.826,0.527-1.898,0.852-2.625,1.108
			c-2.08,0.731-4.246,1.168-6.398,1.629c-3.215,0.688-5.873,1.13-9.137,0.635c-1.537-0.234-3.18-0.121-4.682-0.441
			c-1.422-0.304-2.576-1.386-3.816-2.087c-0.533-0.301-1.57-1.241-2.205-1.152c-1.088,0.151-0.846,1.973-0.594,2.675
			c0.426,1.203,1.607,1.951,2.729,2.419c1.553,0.646,4.455,1.152,6.08,1.447c3.059,0.556,4.529,0.661,7.234,1.075
			c5.033,0.771,8.295-1.884,12.979-2.799c5.762-1.127,11.574-1.376,17.422-1.662c3.604-0.177,7.223-0.368,10.855-0.788
			c4.033-0.469,10.537-4.892,6.014-8.942c-3.65,3.063-8.148,4.604-12.84,5.102c-5.242,0.556-10.654,0.401-15.762-0.881
			c-1.918-0.481-3.666-1.346-5.672-1.611c0.131,0.018,1.104,1.239,1.277,1.463C329.817,376.896,329.181,377.938,328.116,378.617z"/>
		<path opacity="0.3" fill="#7FA840" d="M355.606,377.867c-3.633,0.42-7.252,0.61-10.855,0.788
			c-5.848,0.286-11.658,0.535-17.42,1.661c-4.686,0.916-7.768,3.281-13.189,3.281c-2.734,0-4.73-0.771-7.508-1.112
			c-1.643-0.201-4.049-1.245-5.6-1.895c-0.967-0.403-1.721-1.25-2.311-2.384c-1.025,2.189,0.168,4.148,2.66,5.192
			c1.551,0.649,4.754,1.206,6.361,1.589c2.92,0.695,4.59,0.695,6.957,0.937c5.064,0.517,8.295-1.884,12.979-2.799
			c5.762-1.127,11.574-1.376,17.422-1.662c3.604-0.177,7.223-0.368,10.854-0.788c3.645-0.423,9.305-3.742,6.787-6.965
			C361.737,375.836,358.171,377.569,355.606,377.867z"/>
		<path opacity="0.3" fill="#7FA840" d="M148.806,192.003c5.426-5.366,16.291-7.102,23.045-3.243
			c7.088,4.05,9.234,16.048,2.674,21.521c-6.645,5.544-19.246,6.263-26.43,1.05C141.64,206.646,143.81,196.946,148.806,192.003z"/>
		<path fill="#44803C" d="M146.831,190.95c5.576-5.366,16.746-7.103,23.688-3.244c7.289,4.051,9.494,16.049,2.752,21.521
			c-6.832,5.545-19.785,6.263-27.17,1.05C139.464,205.593,141.696,195.893,146.831,190.95z"/>
		<path fill="#7FA840" d="M146.7,192.003c5.424-5.366,16.291-7.102,23.043-3.243c7.09,4.05,9.234,16.048,2.676,21.521
			c-6.646,5.544-19.246,6.263-26.432,1.05C139.532,206.646,141.704,196.946,146.7,192.003z"/>
		<path opacity="0.6" fill="#B8D442" d="M170.079,192.568c0.998,0.566,1.893,1.291,2.686,2.128
			c-0.969-1.879-2.283-3.478-3.896-4.532c-5.893-3.858-15.375-2.123-20.107,3.243c-0.543,0.616-1.049,1.306-1.506,2.05
			C152.833,190.373,163.433,188.797,170.079,192.568z"/>
		<path opacity="0.4" fill="#B8D442" d="M369.257,219.858c1.031,10.238-5.936,21.566-13.178,28.329
			c-8.939,8.346-16.225,14.653-33.803,18.23c-8.377,1.706-25.668,2.801-36.557,0.778c-19.039-3.536-39.258-8.542-57.279-13.84
			c-3.184-0.936-6.5-1.832-9.764-2.743c-12.109-3.382-27.703-7.055-43.236-6.326c-10.553,0.493-21.246,3.657-31.928,8.368
			c-0.055,0.023-0.66-0.2-0.252-1.395c0.15-0.445,1.014-1.185,1.355-1.365c10.568-5.546,19.887-7.016,30.627-7.519
			c15.73-0.734,31.764,3.085,43.975,6.494c3.266,0.913,6.568,1.854,9.762,2.763c18.719,5.331,38.701,11.068,57.828,13.229
			c31.455,3.554,52.25-2.708,68.313-17.703c0.807-0.752,1.553-1.594,2.297-2.408c0.768-0.837,1.508-1.698,2.207-2.593
			c0.721-0.923,1.402-1.878,2.039-2.861c0.652-1.007,1.26-2.042,1.83-3.097c0.574-1.063,1.109-2.145,1.605-3.244
			c0.492-1.087,0.947-2.189,1.354-3.31c0.395-1.089,0.742-2.194,1.023-3.317c0.27-1.075,0.475-2.167,0.598-3.269
			c0.119-1.057,0.16-2.119,0.139-3.181c-0.023-1.035-0.107-2.068-0.207-3.098c-0.023-0.238-0.098-0.495-0.068-0.733
			c0.121,0.021,0.141,0.077,0.16,0.178c0.025,0.12,0.059,0.22,0.109,0.334c0.111,0.254,0.223,0.508,0.332,0.763
			c0.213,0.509,0.41,1.025,0.545,1.562C369.165,219.205,369.224,219.53,369.257,219.858z"/>
		<path opacity="0.3" fill="#7FA840" d="M314.71,253.811c0.797-1.508,3.043-4.175,4.213-5.267c5.266-4.915,9.117-3.19,13.912-0.36
			c0.938,0.554,11.193,8.66,10.697,9.499c-3.275,5.539-12.088,6.255-17.414,7.677c-8.037,2.144-17.133,3.998-25.475,3.217
			c-5.684-0.531-13.861,1.271-18.969-1.811c-3.906-2.355,0.98-6.114,3.145-8.121c7.564-7.004,11.535-1.078,18.041,3.657
			C309.894,267.42,311.542,259.796,314.71,253.811z"/>
		<linearGradient id="SVGID_8_" gradientUnits="userSpaceOnUse" x1="310.4912" y1="267.7393" x2="311.4529" y2="251.8678">
			<stop  offset="0" style="stop-color:#CFD0DC"/>
			<stop  offset="1" style="stop-color:#F4F4F7"/>
		</linearGradient>
		<path fill="url(#SVGID_8_)" d="M315.233,255.649c0.762-1.395,1.578-2.74,2.635-3.81c3.799-3.844,8.402-4.166,12.984-1.548
			c0.896,0.512,10.697,8.01,10.223,8.785c-3.129,5.123-11.551,5.786-16.643,7.1c-7.68,1.983-16.371,3.698-24.346,2.976
			c-5.43-0.491-13.246,1.176-18.127-1.675c-3.732-2.179,0.938-5.655,3.006-7.51c7.229-6.479,11.023-0.998,17.242,3.382
			C308.927,268.083,312.204,261.186,315.233,255.649z"/>
		<path fill="#FFFFFF" d="M315.583,257.756c0.764-1.395,1.58-2.74,2.637-3.81c2.01-2.034,4.725-3.233,7.594-3.153
			c3.791,0.106,7.352,2.574,10.359,4.645c1.096,0.755,2.729,1.598,4.215,2.587c-2.195-2.285-8.807-7.316-9.535-7.732
			c-4.582-2.618-9.186-2.296-12.984,1.548c-1.057,1.069-1.873,2.415-2.635,3.81c-1.533,2.802-3.131,5.949-5.203,7.765
			C312.21,262.471,314.019,260.617,315.583,257.756z"/>
		<path fill="#FFFFFF" d="M282.052,263.888c2.146-1.281,4.617-3.388,6.924-4.258c4.559-1.72,8.088,2.4,12.229,3.672
			c0.539,0.166,1.063,0.306,1.57,0.424c-0.186-0.117-0.373-0.24-0.566-0.376c-6.219-4.38-10.014-9.861-17.242-3.382
			c-1.354,1.215-3.824,3.125-4.32,4.91C281.073,264.518,281.55,264.188,282.052,263.888z"/>
		<path fill="#365A53" d="M162.634,200.946c1.041-0.001,2.184,0.272,3.148,0.649c1.338,0.525,3.732,1.861,3.107,3.614
			c-0.922,2.585-3.334,2.791-5.682,2.646c-1.473-0.091-3.084,0.024-4.477,0.327c-1.646,0.358-3.395,0.542-5.08,0.466
			c-0.768-0.034-2.039-0.36-2.4-1.145c-0.885-1.913,1.869-3.975,3.262-4.743C156.894,201.445,159.94,200.95,162.634,200.946z"/>
		<path fill="#365A53" d="M274.729,125.828c-1.313,0.38-2.633,0.734-3.906,1.237c-1.973,0.78-3.893,1.762-5.67,2.923
			c-2.176,1.421-4.025,3.259-5.873,5.07c-0.535,0.525-2.852,2.958-3.605,3.94c-0.482-1.56,0.953-3.938,1.734-5.2
			c3.488-5.641,9.342-10.283,15.408-12.912c1.471-0.637,3.93-0.853,5.467-0.542c2.391,0.483,2.186,2.674,0.484,3.959
			C277.567,125.212,276.134,125.421,274.729,125.828z"/>
		<path fill="#365A53" d="M310.437,129.293c0.969,0.727,1.955,1.43,2.854,2.269c1.393,1.298,2.676,2.782,3.783,4.404
			c1.357,1.986,2.313,4.296,3.271,6.58c0.279,0.661,1.43,3.685,1.744,4.857c0.896-1.412,0.459-4.145,0.213-5.601
			c-1.107-6.505-4.496-12.657-8.705-16.879c-1.018-1.021-2.994-1.893-4.371-1.997c-2.141-0.163-2.668,2.056-1.664,3.779
			C308.272,127.925,309.397,128.515,310.437,129.293z"/>
		<path opacity="0.3" fill="#7FA840" d="M356.64,313.028c-1.025-7.783-6.367-13.531-16.238-10.416
			c-6.555,2.07-10.926,9.916-18.158,9.82c-3.873-0.05-8-1.503-11.844-0.624c-7.818,1.787-4.287,15.354-1.361,20.516
			c4.475,7.896,13.924,9.535,21.967,9.779c10.764,0.324,18.568-5.071,23.387-15.397C356.446,322.298,357.208,317.35,356.64,313.028z
			"/>
		<path fill="#7FA840" d="M355.925,311.273c-1.102-7.784-6.84-13.531-17.439-10.416c-7.041,2.069-11.734,9.915-19.504,9.82
			c-4.156-0.051-8.59-1.503-12.719-0.624c-8.396,1.786-5.559,14.241-2.418,19.402c4.807,7.896,15.912,10.648,24.549,10.892
			c11.559,0.325,19.941-5.071,25.115-15.397C355.718,320.543,356.534,315.595,355.925,311.273z"/>
		<path opacity="0.3" fill="#7FA840" d="M308.468,314.57c0.479-0.246,0.965-0.432,1.441-0.529c2.465-0.509,5.189-0.193,7.699-0.495
			c3.162-0.381,5.732-1.165,8.172-3.202c1.191-0.997,2.27-3.327,3.305-4.46c-0.756-0.045-2.201,1.793-2.947,2.471
			c-0.721,0.653-1.709,1.203-3.199,1.723c-0.943,0.327-2.031,0.494-4.225,0.752c-4.129,0.484-8.322-1.654-12.451-0.775
			c-7.58,1.612-5.641,11.159-3.854,16.383c0.283,0.829,0.555,1.661,0.992,2.427c0.762,1.332,1.701,3.079,2.998,3.94
			c0.279-1.322,0.191-2.888-0.201-4.179c-0.354-1.169-1.029-2.176-1.313-3.376c-0.291-1.233-0.516-2.587-0.5-3.857
			c0.016-1.369-0.021-2.951,0.846-4.089C305.993,316.301,307.2,315.223,308.468,314.57z"/>
		<path opacity="0.3" fill="#7FA840" d="M156.856,246.739c2.723,6.25,9.207,12.366,16.516,14.565
			c8.041,2.42,15.465-8.745,15.021-16.147C188.263,242.982,157.323,246.09,156.856,246.739z"/>
		<linearGradient id="SVGID_9_" gradientUnits="userSpaceOnUse" x1="170.231" y1="259.1846" x2="171.2025" y2="243.1517">
			<stop  offset="0" style="stop-color:#F4F4F7"/>
			<stop  offset="0.3152" style="stop-color:#EFEFF3"/>
			<stop  offset="0.6931" style="stop-color:#E0E1E9"/>
			<stop  offset="1" style="stop-color:#CFD0DC"/>
		</linearGradient>
		<path fill="url(#SVGID_9_)" d="M157.208,247.007c2.354,5.924,9.188,11.287,15.053,13.485c6.922,2.592,12.861-8.417,12.51-15.446
			C184.667,242.981,157.622,246.388,157.208,247.007z"/>
		<path opacity="0.3" fill="#7FA840" d="M286.378,269.998c-19.039-3.535-39.174-9.099-57.123-14.211
			c-3.191-0.909-6.492-1.85-9.756-2.76c-12.109-3.382-28-7.172-43.531-6.444c-10.035,0.469-18.799,1.794-28.523,6.588
			c-0.02,0.01-0.045,0.017-0.045,0.017s-0.613-0.135-1.203-0.228c-0.576-0.09-1.184-0.125-1-0.221
			c10.566-5.546,19.965-7.058,30.705-7.56c15.732-0.734,31.764,3.085,43.975,6.494c3.268,0.912,6.57,1.854,9.762,2.763
			c18.721,5.331,38.701,11.068,57.83,13.229c31.453,3.554,52.25-2.708,68.311-17.703c7.924-7.396,14.865-20.992,12.764-30.94
			c-1.129-5.354-3.939-10.052-9.895-12.125c-0.367-0.128-2.221-0.388-2.094-0.754s1.406,0.23,1.771,0.359
			c6.453,2.246,10.354,6.36,11.592,12.229c2.203,10.434-4.971,24.595-13.18,32.257c-8.939,8.346-16.223,14.653-33.803,18.231
			C314.558,270.926,297.267,272.021,286.378,269.998z"/>
		<path fill="#365A53" d="M285.72,268.951c-19.039-3.536-39.176-9.099-57.125-14.211c-3.191-0.909-6.492-1.85-9.754-2.76
			c-12.111-3.382-28.002-7.172-43.533-6.444c-10.553,0.493-19.246,2.597-29.928,7.308c-0.055,0.024-0.609-0.043-0.982-0.086
			c-0.293-0.034-0.592-0.042-0.871-0.062c-0.387-0.028,0.748-0.865,1.09-1.045c10.568-5.546,19.887-7.017,30.627-7.519
			c15.73-0.734,31.764,3.085,43.975,6.494c3.266,0.912,6.568,1.853,9.762,2.763c18.719,5.331,38.701,11.067,57.828,13.229
			c31.455,3.555,52.25-2.707,68.313-17.702c7.924-7.396,14.863-20.993,12.764-30.94c-1.131-5.354-4.723-9.12-10.68-11.194
			c-0.365-0.127-0.559-0.527-0.432-0.894s0.527-0.561,0.893-0.432c6.453,2.246,10.354,6.36,11.592,12.229
			c2.203,10.434-4.971,24.595-13.178,32.257c-8.939,8.346-16.225,14.654-33.803,18.231
			C313.899,269.879,296.608,270.975,285.72,268.951z"/>
		<radialGradient id="SVGID_10_" cx="351.7715" cy="184.2939" r="7.022" gradientUnits="userSpaceOnUse">
			<stop  offset="0" style="stop-color:#B8D442"/>
			<stop  offset="0.2738" style="stop-color:#ADCC42"/>
			<stop  offset="0.7495" style="stop-color:#91B641"/>
			<stop  offset="1" style="stop-color:#7FA840"/>
		</radialGradient>
		<circle fill="url(#SVGID_10_)" cx="351.771" cy="184.294" r="7.022"/>
		<radialGradient id="SVGID_11_" cx="211.0801" cy="191.5225" r="7.022" gradientUnits="userSpaceOnUse">
			<stop  offset="0" style="stop-color:#609908"/>
			<stop  offset="0.2776" style="stop-color:#669C13"/>
			<stop  offset="0.7598" style="stop-color:#76A42F"/>
			<stop  offset="1" style="stop-color:#7FA840"/>
		</radialGradient>
		<circle fill="url(#SVGID_11_)" cx="211.08" cy="191.522" r="7.022"/>
		<radialGradient id="SVGID_12_" cx="231.7598" cy="184.3086" r="5.5791" gradientUnits="userSpaceOnUse">
			<stop  offset="0" style="stop-color:#609908"/>
			<stop  offset="0.2776" style="stop-color:#669C13"/>
			<stop  offset="0.7598" style="stop-color:#76A42F"/>
			<stop  offset="1" style="stop-color:#7FA840"/>
		</radialGradient>
		<circle fill="url(#SVGID_12_)" cx="231.76" cy="184.309" r="5.579"/>
		<radialGradient id="SVGID_13_" cx="270.7168" cy="214.6084" r="6.0596" gradientUnits="userSpaceOnUse">
			<stop  offset="0" style="stop-color:#609908"/>
			<stop  offset="0.2776" style="stop-color:#669C13"/>
			<stop  offset="0.7598" style="stop-color:#76A42F"/>
			<stop  offset="1" style="stop-color:#7FA840"/>
		</radialGradient>
		<circle fill="url(#SVGID_13_)" cx="270.717" cy="214.608" r="6.06"/>
		<radialGradient id="SVGID_14_" cx="235.127" cy="207.875" r="6.0596" gradientUnits="userSpaceOnUse">
			<stop  offset="0" style="stop-color:#609908"/>
			<stop  offset="0.2776" style="stop-color:#669C13"/>
			<stop  offset="0.7598" style="stop-color:#76A42F"/>
			<stop  offset="1" style="stop-color:#7FA840"/>
		</radialGradient>
		<circle fill="url(#SVGID_14_)" cx="235.127" cy="207.875" r="6.06"/>
		<radialGradient id="SVGID_15_" cx="247.6318" cy="195.3701" r="5.5786" gradientUnits="userSpaceOnUse">
			<stop  offset="0" style="stop-color:#609908"/>
			<stop  offset="0.2776" style="stop-color:#669C13"/>
			<stop  offset="0.7598" style="stop-color:#76A42F"/>
			<stop  offset="1" style="stop-color:#7FA840"/>
		</radialGradient>
		<circle fill="url(#SVGID_15_)" cx="247.632" cy="195.37" r="5.578"/>
		<radialGradient id="SVGID_16_" cx="189.4355" cy="191.042" r="3.6553" gradientUnits="userSpaceOnUse">
			<stop  offset="0" style="stop-color:#609908"/>
			<stop  offset="0.2776" style="stop-color:#669C13"/>
			<stop  offset="0.7598" style="stop-color:#76A42F"/>
			<stop  offset="1" style="stop-color:#7FA840"/>
		</radialGradient>
		<circle fill="url(#SVGID_16_)" cx="189.436" cy="191.042" r="3.655"/>
		<radialGradient id="SVGID_17_" cx="269.2754" cy="197.2939" r="3.6553" gradientUnits="userSpaceOnUse">
			<stop  offset="0" style="stop-color:#609908"/>
			<stop  offset="0.2776" style="stop-color:#669C13"/>
			<stop  offset="0.7598" style="stop-color:#76A42F"/>
			<stop  offset="1" style="stop-color:#7FA840"/>
		</radialGradient>
		<circle fill="url(#SVGID_17_)" cx="269.275" cy="197.294" r="3.655"/>
		<radialGradient id="SVGID_18_" cx="297.6504" cy="209.7988" r="4.1123" gradientUnits="userSpaceOnUse">
			<stop  offset="0" style="stop-color:#609908"/>
			<stop  offset="0.2776" style="stop-color:#669C13"/>
			<stop  offset="0.7598" style="stop-color:#76A42F"/>
			<stop  offset="1" style="stop-color:#7FA840"/>
		</radialGradient>
		<circle fill="url(#SVGID_18_)" cx="297.65" cy="209.799" r="4.112"/>
		<radialGradient id="SVGID_19_" cx="374.8574" cy="192.9512" r="7.022" gradientUnits="userSpaceOnUse">
			<stop  offset="0" style="stop-color:#B8D442"/>
			<stop  offset="0.2738" style="stop-color:#ADCC42"/>
			<stop  offset="0.7495" style="stop-color:#91B641"/>
			<stop  offset="1" style="stop-color:#7FA840"/>
		</radialGradient>
		<circle fill="url(#SVGID_19_)" cx="374.858" cy="192.951" r="7.022"/>
		<radialGradient id="SVGID_20_" cx="341.2178" cy="203.0776" r="5.4417" gradientUnits="userSpaceOnUse">
			<stop  offset="0" style="stop-color:#B8D442"/>
			<stop  offset="0.2738" style="stop-color:#ADCC42"/>
			<stop  offset="0.7495" style="stop-color:#91B641"/>
			<stop  offset="1" style="stop-color:#7FA840"/>
		</radialGradient>
		<circle fill="url(#SVGID_20_)" cx="341.218" cy="203.077" r="5.441"/>
		<radialGradient id="SVGID_21_" cx="384.9277" cy="213.0835" r="3.8621" gradientUnits="userSpaceOnUse">
			<stop  offset="0" style="stop-color:#B8D442"/>
			<stop  offset="0.2738" style="stop-color:#ADCC42"/>
			<stop  offset="0.7495" style="stop-color:#91B641"/>
			<stop  offset="1" style="stop-color:#7FA840"/>
		</radialGradient>
		<circle fill="url(#SVGID_21_)" cx="384.928" cy="213.084" r="3.862"/>
		<radialGradient id="SVGID_22_" cx="337.5693" cy="162.6655" r="4.824" gradientUnits="userSpaceOnUse">
			<stop  offset="0" style="stop-color:#B8D442"/>
			<stop  offset="0.2738" style="stop-color:#ADCC42"/>
			<stop  offset="0.7495" style="stop-color:#91B641"/>
			<stop  offset="1" style="stop-color:#7FA840"/>
		</radialGradient>
		<circle opacity="0.31" fill="url(#SVGID_22_)" cx="337.569" cy="162.666" r="4.824"/>

			<radialGradient id="SVGID_23_" cx="375.2402" cy="305.6152" r="4.824" gradientTransform="matrix(0.7875 -0.1355 0.1695 0.9855 18.6521 75.8529)" gradientUnits="userSpaceOnUse">
			<stop  offset="0" style="stop-color:#B8D442"/>
			<stop  offset="0.2738" style="stop-color:#ADCC42"/>
			<stop  offset="0.7495" style="stop-color:#91B641"/>
			<stop  offset="1" style="stop-color:#7FA840"/>
		</radialGradient>
		<path opacity="0.31" fill="url(#SVGID_23_)" d="M369.751,325.535c0.453,2.626-0.883,5.047-2.98,5.408s-4.164-1.475-4.617-4.101
			c-0.451-2.626,0.883-5.046,2.982-5.407C367.233,321.075,369.3,322.909,369.751,325.535z"/>
		<radialGradient id="SVGID_24_" cx="366.4268" cy="340.123" r="3.3809" gradientUnits="userSpaceOnUse">
			<stop  offset="0" style="stop-color:#B8D442"/>
			<stop  offset="0.2738" style="stop-color:#ADCC42"/>
			<stop  offset="0.7495" style="stop-color:#91B641"/>
			<stop  offset="1" style="stop-color:#7FA840"/>
		</radialGradient>
		<circle opacity="0.31" fill="url(#SVGID_24_)" cx="366.427" cy="340.122" r="3.381"/>
		<radialGradient id="SVGID_25_" cx="409.7119" cy="329.0615" r="3.3809" gradientUnits="userSpaceOnUse">
			<stop  offset="0" style="stop-color:#B8D442"/>
			<stop  offset="0.2738" style="stop-color:#ADCC42"/>
			<stop  offset="0.7495" style="stop-color:#91B641"/>
			<stop  offset="1" style="stop-color:#7FA840"/>
		</radialGradient>
		<circle opacity="0.31" fill="url(#SVGID_25_)" cx="409.712" cy="329.061" r="3.381"/>
		<radialGradient id="SVGID_26_" cx="388.0693" cy="352.1602" r="4.2266" gradientUnits="userSpaceOnUse">
			<stop  offset="0" style="stop-color:#B8D442"/>
			<stop  offset="0.2738" style="stop-color:#ADCC42"/>
			<stop  offset="0.7495" style="stop-color:#91B641"/>
			<stop  offset="1" style="stop-color:#7FA840"/>
		</radialGradient>
		<circle opacity="0.31" fill="url(#SVGID_26_)" cx="388.069" cy="352.16" r="4.227"/>
		<radialGradient id="SVGID_27_" cx="405.3691" cy="346.8691" r="3.3816" gradientUnits="userSpaceOnUse">
			<stop  offset="0" style="stop-color:#B8D442"/>
			<stop  offset="0.2738" style="stop-color:#ADCC42"/>
			<stop  offset="0.7495" style="stop-color:#91B641"/>
			<stop  offset="1" style="stop-color:#7FA840"/>
		</radialGradient>
		<circle opacity="0.31" fill="url(#SVGID_27_)" cx="405.369" cy="346.869" r="3.382"/>
		<radialGradient id="SVGID_28_" cx="420.2939" cy="337.1484" r="4.2268" gradientUnits="userSpaceOnUse">
			<stop  offset="0" style="stop-color:#B8D442"/>
			<stop  offset="0.2738" style="stop-color:#ADCC42"/>
			<stop  offset="0.7495" style="stop-color:#91B641"/>
			<stop  offset="1" style="stop-color:#7FA840"/>
		</radialGradient>
		<circle opacity="0.31" fill="url(#SVGID_28_)" cx="420.294" cy="337.148" r="4.227"/>
		<radialGradient id="SVGID_29_" cx="415.0029" cy="274.2461" r="3.3809" gradientUnits="userSpaceOnUse">
			<stop  offset="0" style="stop-color:#B8D442"/>
			<stop  offset="0.2738" style="stop-color:#ADCC42"/>
			<stop  offset="0.7495" style="stop-color:#91B641"/>
			<stop  offset="1" style="stop-color:#7FA840"/>
		</radialGradient>
		<circle opacity="0.31" fill="url(#SVGID_29_)" cx="415.003" cy="274.245" r="3.381"/>
		<radialGradient id="SVGID_30_" cx="440.9736" cy="275.6895" r="3.3809" gradientUnits="userSpaceOnUse">
			<stop  offset="0" style="stop-color:#B8D442"/>
			<stop  offset="0.2738" style="stop-color:#ADCC42"/>
			<stop  offset="0.7495" style="stop-color:#91B641"/>
			<stop  offset="1" style="stop-color:#7FA840"/>
		</radialGradient>
		<circle opacity="0.31" fill="url(#SVGID_30_)" cx="440.974" cy="275.688" r="3.381"/>
		<path opacity="0.3" fill="#7FA840" d="M235.921,320.511c0.455,1.876,1.971,3.328,3.703,4.212c1.842,0.938,4.115,0.682,5.832-0.417
			c2.225-1.422,3.354-4.5,3.729-7.007c0.227-1.51,0.029-3.43-0.877-4.694c-1.557-2.17-4.375-2.898-6.893-2.433
			C240.112,310.413,233.97,312.433,235.921,320.511z"/>
		<path fill="#B8D442" d="M236.585,319.707c0.336,1.394,1.463,2.473,2.75,3.129c1.367,0.697,3.055,0.505,4.33-0.31
			c1.654-1.056,2.49-3.343,2.77-5.204c0.168-1.121,0.023-2.547-0.65-3.486c-1.156-1.611-3.248-2.152-5.121-1.806
			C239.696,312.208,235.136,313.708,236.585,319.707z"/>
		<radialGradient id="SVGID_31_" cx="427.9883" cy="270.8799" r="4.6489" gradientUnits="userSpaceOnUse">
			<stop  offset="0" style="stop-color:#B8D442"/>
			<stop  offset="0.2738" style="stop-color:#ADCC42"/>
			<stop  offset="0.7495" style="stop-color:#91B641"/>
			<stop  offset="1" style="stop-color:#7FA840"/>
		</radialGradient>
		<circle opacity="0.31" fill="url(#SVGID_31_)" cx="427.988" cy="270.879" r="4.649"/>
		<radialGradient id="SVGID_32_" cx="362.0986" cy="314.6465" r="3.3809" gradientUnits="userSpaceOnUse">
			<stop  offset="0" style="stop-color:#B8D442"/>
			<stop  offset="0.2738" style="stop-color:#ADCC42"/>
			<stop  offset="0.7495" style="stop-color:#91B641"/>
			<stop  offset="1" style="stop-color:#7FA840"/>
		</radialGradient>
		<circle opacity="0.31" fill="url(#SVGID_32_)" cx="362.099" cy="314.646" r="3.381"/>
		<path fill="#7B7BAF" d="M306.677,309.687c0.359,2.572,6.129,5.164,5.07,0.923C311.187,308.369,306.12,305.693,306.677,309.687z"/>
		<linearGradient id="SVGID_33_" gradientUnits="userSpaceOnUse" x1="308.1396" y1="308.6279" x2="310.5053" y2="312.4437">
			<stop  offset="0" style="stop-color:#5B5B8C"/>
			<stop  offset="0.5926" style="stop-color:#505088"/>
			<stop  offset="1" style="stop-color:#464685"/>
		</linearGradient>
		<path fill="url(#SVGID_33_)" d="M306.979,310.15c0.34,2.195,5.771,4.409,4.775,0.788
			C311.228,309.025,306.454,306.739,306.979,310.15z"/>
		<path opacity="0.3" fill="#7FA840" d="M354.962,214.003c-0.289,0-0.523-0.233-0.525-0.523c-0.016-3.502,0.295-6.58,4.309-8.783
			c2.32-1.273,5.455-1.274,8.221-1.275l0.535-0.001l0,0c0.291,0,0.525,0.235,0.527,0.525c0,0.291-0.234,0.527-0.525,0.528h-0.535
			c-2.639,0.001-5.631,0.002-7.715,1.146c-3.225,1.77-3.781,3.942-3.764,7.854c0.002,0.291-0.234,0.528-0.523,0.529H354.962z"/>
		<path opacity="0.4" fill="#B8D442" d="M354.261,213.301c-0.291,0-0.525-0.234-0.527-0.523c-0.016-3.502,0.297-6.58,4.309-8.783
			c2.322-1.273,5.457-1.274,8.223-1.275l0.533-0.001l0,0c0.293,0,0.527,0.235,0.529,0.525c0,0.291-0.236,0.527-0.525,0.528h-0.537
			c-2.639,0.001-5.631,0.002-7.715,1.146c-3.223,1.77-3.781,3.942-3.764,7.854c0.002,0.291-0.232,0.528-0.523,0.529H354.261z"/>
		<path fill="#365A53" d="M354.612,213.652c-0.291,0-0.525-0.234-0.527-0.524c-0.016-3.501,0.297-6.579,4.309-8.782
			c2.322-1.274,5.457-1.275,8.223-1.276h0.533h0.002c0.289,0,0.525,0.234,0.525,0.525c0.002,0.29-0.234,0.527-0.525,0.528h-0.535
			c-2.639,0-5.631,0.001-7.715,1.146c-3.223,1.77-3.781,3.941-3.764,7.854c0.002,0.291-0.232,0.527-0.523,0.529H354.612z"/>
		<circle fill="#FFFFFF" cx="266.918" cy="160.126" r="2.751"/>
		<circle fill="#FFFFFF" cx="299.827" cy="166.657" r="3.246"/>
		<circle fill="#FFFFFF" cx="266.773" cy="167.518" r="1.286"/>
		<circle fill="#FFFFFF" cx="300.153" cy="175.305" r="1.557"/>

			<ellipse transform="matrix(0.4284 -0.9036 0.9036 0.4284 -110.9603 451.2359)" fill="#7B7BAF" cx="301.168" cy="313.319" rx="2.387" ry="3.671"/>
		<linearGradient id="SVGID_34_" gradientUnits="userSpaceOnUse" x1="298.6211" y1="313.5439" x2="304.6641" y2="313.5439">
			<stop  offset="0" style="stop-color:#5B5B8C"/>
			<stop  offset="0.5926" style="stop-color:#505088"/>
			<stop  offset="1" style="stop-color:#464685"/>
		</linearGradient>
		<path fill="url(#SVGID_34_)" d="M302.665,311.387c1.57,0.745,2.385,2.314,1.82,3.505s-2.295,1.554-3.865,0.809
			c-1.57-0.744-2.385-2.313-1.82-3.504C299.364,311.005,301.097,310.644,302.665,311.387z"/>

			<ellipse transform="matrix(0.189 -0.982 0.982 0.189 -72.711 554.03)" fill="#7B7BAF" cx="299.058" cy="321.035" rx="2.387" ry="3.671"/>
		<linearGradient id="SVGID_35_" gradientUnits="userSpaceOnUse" x1="296.5537" y1="321.1436" x2="302.6973" y2="321.1436">
			<stop  offset="0" style="stop-color:#5B5B8C"/>
			<stop  offset="0.5926" style="stop-color:#505088"/>
			<stop  offset="1" style="stop-color:#464685"/>
		</linearGradient>
		<path fill="url(#SVGID_35_)" d="M300.075,318.8c1.678,0.322,2.838,1.633,2.588,2.928c-0.248,1.294-1.811,2.082-3.488,1.76
			c-1.678-0.323-2.836-1.634-2.588-2.929C296.835,319.266,298.397,318.478,300.075,318.8z"/>

			<ellipse transform="matrix(-0.1845 -0.9828 0.9828 -0.1845 33.4114 687.886)" fill="#7B7BAF" cx="302.08" cy="330.082" rx="2.387" ry="3.671"/>
		<linearGradient id="SVGID_36_" gradientUnits="userSpaceOnUse" x1="299.6133" y1="329.9717" x2="305.7207" y2="329.9717">
			<stop  offset="0" style="stop-color:#5B5B8C"/>
			<stop  offset="0.5926" style="stop-color:#505088"/>
			<stop  offset="1" style="stop-color:#464685"/>
		</linearGradient>
		<path fill="url(#SVGID_36_)" d="M302.226,327.626c1.67-0.313,3.221,0.481,3.463,1.778c0.244,1.294-0.912,2.599-2.58,2.913
			c-1.67,0.313-3.219-0.482-3.463-1.777S300.558,327.939,302.226,327.626z"/>

			<radialGradient id="SVGID_37_" cx="327.8545" cy="311.3564" r="20.6375" gradientTransform="matrix(0.9244 -0.3815 0.1987 0.4814 -37.0609 286.5358)" gradientUnits="userSpaceOnUse">
			<stop  offset="0" style="stop-color:#B8D442"/>
			<stop  offset="0.2738" style="stop-color:#ADCC42"/>
			<stop  offset="0.7495" style="stop-color:#91B641"/>
			<stop  offset="1" style="stop-color:#7FA840"/>
		</radialGradient>
		<path opacity="0.31" fill="url(#SVGID_37_)" d="M325.589,311.424c-0.713,0.661-1.471,1.247-2.34,1.647
			c-2.295,1.062-4.721,0.599-7.262,0.6c-3.484,0.001-10.883,0.198-11.016,5.343c-0.152,5.967,10.475,5.605,14.332,5.947
			c7.896,0.699,15.715,1.106,21.891-4.684c6.859-6.429,11.568-21.695-3.094-18.078C331.86,303.738,329.989,307.341,325.589,311.424z
			"/>

			<ellipse transform="matrix(-0.4036 -0.915 0.915 -0.4036 -3.4514 743.2901)" fill="#7B7BAF" cx="240.544" cy="372.77" rx="2.386" ry="3.672"/>

			<linearGradient id="SVGID_38_" gradientUnits="userSpaceOnUse" x1="417.8672" y1="207.5498" x2="423.9111" y2="207.5498" gradientTransform="matrix(0.6538 -0.7567 0.7567 0.6538 -191.206 555.062)">
			<stop  offset="0" style="stop-color:#5B5B8C"/>
			<stop  offset="0.5926" style="stop-color:#505088"/>
			<stop  offset="1" style="stop-color:#464685"/>
		</linearGradient>
		<path fill="url(#SVGID_38_)" d="M240.062,370.088c1.59-0.701,3.311-0.292,3.842,0.914c0.533,1.205-0.326,2.751-1.914,3.453
			c-1.59,0.702-3.311,0.292-3.844-0.913C237.614,372.336,238.474,370.79,240.062,370.088z"/>

			<ellipse transform="matrix(-0.5802 -0.8145 0.8145 -0.5802 79.4461 796.2729)" fill="#7B7BAF" cx="244.929" cy="377.663" rx="2.387" ry="3.672"/>

			<linearGradient id="SVGID_39_" gradientUnits="userSpaceOnUse" x1="410.4258" y1="201.125" x2="416.5693" y2="201.125" gradientTransform="matrix(0.6904 -0.7234 0.7234 0.6904 -185.5732 537.5943)">
			<stop  offset="0" style="stop-color:#5B5B8C"/>
			<stop  offset="0.5926" style="stop-color:#505088"/>
			<stop  offset="1" style="stop-color:#464685"/>
		</linearGradient>
		<path fill="url(#SVGID_39_)" d="M244.013,375.385c1.393-0.992,3.143-0.926,3.906,0.147c0.766,1.073,0.256,2.747-1.135,3.74
			c-1.393,0.99-3.141,0.923-3.906-0.15C242.114,378.049,242.622,376.375,244.013,375.385z"/>

			<ellipse transform="matrix(-0.6467 -0.7627 0.7627 -0.6467 125.5299 819.6572)" fill="#7B7BAF" cx="252.595" cy="380.756" rx="2.386" ry="3.67"/>

			<linearGradient id="SVGID_40_" gradientUnits="userSpaceOnUse" x1="353.4209" y1="142.377" x2="359.5283" y2="142.377" gradientTransform="matrix(0.8691 -0.4946 0.4946 0.8691 -127.1823 432.943)">
			<stop  offset="0" style="stop-color:#5B5B8C"/>
			<stop  offset="0.5926" style="stop-color:#505088"/>
			<stop  offset="1" style="stop-color:#464685"/>
		</linearGradient>
		<path fill="url(#SVGID_40_)" d="M251.507,378.55c1.295-1.099,3.035-1.174,3.887-0.168c0.854,1.005,0.494,2.71-0.801,3.809
			c-1.295,1.098-3.035,1.174-3.889,0.168C249.853,381.354,250.212,379.647,251.507,378.55z"/>

			<ellipse transform="matrix(-0.4036 -0.915 0.915 -0.4036 68.0045 808.3555)" fill="#7B7BAF" cx="297.479" cy="382.012" rx="2.386" ry="3.672"/>

			<linearGradient id="SVGID_41_" gradientUnits="userSpaceOnUse" x1="448.0967" y1="256.6729" x2="454.1406" y2="256.6729" gradientTransform="matrix(0.6538 -0.7567 0.7567 0.6538 -191.206 555.062)">
			<stop  offset="0" style="stop-color:#5B5B8C"/>
			<stop  offset="0.5926" style="stop-color:#505088"/>
			<stop  offset="1" style="stop-color:#464685"/>
		</linearGradient>
		<path fill="url(#SVGID_41_)" d="M296.997,379.33c1.59-0.702,3.311-0.292,3.842,0.914c0.531,1.205-0.326,2.752-1.916,3.453
			s-3.309,0.292-3.842-0.913C294.55,381.578,295.407,380.032,296.997,379.33z"/>

			<ellipse transform="matrix(-0.6904 -0.7234 0.7234 -0.6904 234.4857 870.9808)" fill="#7B7BAF" cx="303.602" cy="385.319" rx="2.386" ry="4.054"/>

			<linearGradient id="SVGID_42_" gradientUnits="userSpaceOnUse" x1="461.3408" y1="276.1445" x2="467.4873" y2="276.1445" gradientTransform="matrix(0.6537 -0.8849 0.8287 0.5665 -228.365 639.4035)">
			<stop  offset="0" style="stop-color:#5B5B8C"/>
			<stop  offset="0.5926" style="stop-color:#505088"/>
			<stop  offset="1" style="stop-color:#464685"/>
		</linearGradient>
		<path fill="url(#SVGID_42_)" d="M302.415,383.153c1.365-1.304,3.209-1.586,4.119-0.634c0.91,0.954,0.541,2.783-0.822,4.087
			c-1.365,1.302-3.209,1.583-4.121,0.63C300.683,386.283,301.052,384.455,302.415,383.153z"/>

			<ellipse transform="matrix(-0.7127 -0.7015 0.7015 -0.7127 262.6495 881.4723)" fill="#7B7BAF" cx="311.833" cy="386.951" rx="2.387" ry="3.673"/>

			<linearGradient id="SVGID_43_" gradientUnits="userSpaceOnUse" x1="429.0488" y1="186.9063" x2="435.1572" y2="186.9063" gradientTransform="matrix(0.8211 -0.5708 0.5708 0.8211 -149.2344 479.6998)">
			<stop  offset="0" style="stop-color:#5B5B8C"/>
			<stop  offset="0.5926" style="stop-color:#505088"/>
			<stop  offset="1" style="stop-color:#464685"/>
		</linearGradient>
		<path fill="url(#SVGID_43_)" d="M310.55,384.851c1.193-1.211,2.92-1.442,3.859-0.518s0.734,2.655-0.457,3.865
			c-1.191,1.209-2.918,1.442-3.857,0.518C309.157,387.792,309.36,386.062,310.55,384.851z"/>

			<radialGradient id="SVGID_44_" cx="324.0195" cy="365.3037" r="16.1852" gradientTransform="matrix(0.7234 -0.6905 1.241 1.3002 -363.7102 114.0637)" gradientUnits="userSpaceOnUse">
			<stop  offset="0" style="stop-color:#B8D442"/>
			<stop  offset="0.2738" style="stop-color:#ADCC42"/>
			<stop  offset="0.7495" style="stop-color:#91B641"/>
			<stop  offset="1" style="stop-color:#7FA840"/>
		</radialGradient>
		<path opacity="0.31" fill="url(#SVGID_44_)" d="M334.522,343.979c-6.213-2.551-14.27-5.226-20.348-2.315
			c-7.303,3.494-9.076,14.024-4.02,19.634c5.709,6.333,13.549,10.793,21.643,12.986c7.9,2.14,23.621,1.348,25.898-8.274
			c1.373-5.808-1.514-7.937-6.158-10.426c-5.504-2.949-8.777-8.107-14.879-10.709C335.978,344.584,335.263,344.283,334.522,343.979z
			"/>
	</g>
</g>
</svg>
