<?xml version="1.0" encoding="utf-8"?>
<!-- Generator: Adobe Illustrator 15.1.0, SVG Export Plug-In . SVG Version: 6.00 Build 0)  -->
<!DOCTYPE svg PUBLIC "-//W3C//DTD SVG 1.1//EN" "http://www.w3.org/Graphics/SVG/1.1/DTD/svg11.dtd">
<svg version="1.1" id="Layer_1" xmlns="http://www.w3.org/2000/svg" xmlns:xlink="http://www.w3.org/1999/xlink" x="0px" y="0px"
	 width="512px" height="512px" viewBox="0 0 512 512" enable-background="new 0 0 512 512" xml:space="preserve">
<g>
	<g>
		<g>
			<path fill="#DB8346" d="M260.367,394.928c-7.487,1.43-15.127,0.937-22.668,1.76c-5.13,0.562-10.325,0.982-15.454,0.219
				c-4.587-0.688-8.05-0.564-12.637-0.611c-8.769-0.087-18.985-1.519-25.703-7.661c-5.466-4.994-1.492-7.517-4.853-14.722
				c-6.628-14.217-8.419-30.908-4.272-46.604c3.11-11.767,9.259-22.164,17.613-30.636c4.341-4.401,9.637-8.294,15.167-11.049
				c11.542-5.747,22.084-7.563,33.035-0.105c8.829,6.019,16.853,12.945,21.888,22.548c3.42,6.521,4.701,13.964,4.889,21.264
				c0.078,3.128-1.094,7.381-0.424,10.361c0.656,2.898,3.213,3.389,5.254,5.121c1.883,1.594,3.18,3.417,4.434,5.544
				c2.514,4.26,3.594,7.661,4.707,12.456c0.994,4.289,0.885,9.305,0.268,13.818C280.27,386.368,269.457,393.193,260.367,394.928z"/>
			<path fill="#EF9D59" d="M232.023,310.822c10.796,9.613,17.051,23.771,16.779,38.224c-0.064,3.557-0.23,7.175-1.045,10.647
				c-0.732,3.139-2.858,5.946-3.414,9.014c-0.604,3.369,0.998,7.512,2.097,10.62c1.285,3.633,1.154,7.289-0.788,10.71
				c-3.396,5.998-11.343,8.335-17.648,9.326c-14.199,2.233-27.944-2.12-42.04-2.107c-10.156,0.011-22.067-6.821-28.503-14.558
				c-9.879-11.882-13.333-28.353-10.1-43.329c1.89-8.754,6.138-16.948,12.104-23.648c10.823-12.153,28.344-37.73,43.262-37.192
				C214.09,278.938,222.943,302.736,232.023,310.822z"/>
			<path fill="#D17C42" d="M246.287,331.886c-0.478,1.151-0.836,2.335-1,3.572c-1.663,12.624,11.538,27.898,24.538,22.257
				c10.426-4.524,21.463-21.624,13.854-32.337c-3.447-4.854-10.865-7.864-15.271-12.057c-5.055-4.81-10.232-10.028-14.119-15.845
				c0.652,0.975-0.572,18.406-1.022,20.568C252.226,323.027,248.244,327.177,246.287,331.886z"/>
			<path opacity="0.25" fill="#D99C54" d="M147.363,339.369c0.95-4.387,2.488-8.633,4.538-12.62
				c-0.918,2.399-1.661,4.866-2.203,7.381c-3.236,14.976,0.22,31.447,10.099,43.328c6.435,7.737,18.344,14.568,28.504,14.558
				c14.093-0.011,27.838,4.342,42.037,2.108c5.802-0.914,12.987-2.972,16.744-7.966c-0.242,1.317-0.711,2.613-1.428,3.879
				c-3.396,5.998-11.343,8.335-17.648,9.326c-14.199,2.233-27.944-2.12-42.04-2.107c-10.156,0.011-22.067-6.821-28.503-14.558
				C147.583,370.816,144.13,354.346,147.363,339.369z"/>
			<path fill="#D17C42" d="M258.287,310.355c0.652,2.992,1.104,6.039,1.254,9.299c0.326,6.886,0.686,13.931-0.207,20.786
				c-1.221,9.32-3.662,19.631-9.225,27.385c-1.078,1.504-3.918,6.167-6.14,6.149c-2.964-0.026-3.272-5.845-3.413-7.968
				c-0.244-3.626-1.745-6.802-3.12-10.112c-1.845-4.438-3.348-8.56-6.961-11.871c-10.138-9.294-19.771-17.423-21.722-32.032
				c-0.991-7.404,0.639-14.888,4.883-21.069c3.19-4.646,9.743-11.977,15.517-13.102c6.512-1.271,13.537,3.411,18.226,7.258
				c4.877,4.001,6.057,8.951,7.954,14.807C256.494,303.471,257.53,306.876,258.287,310.355z"/>
			<path opacity="0.25" fill="#D99C54" d="M251.726,310.071c0.648,2.991,1.1,6.036,1.256,9.296
				c0.324,6.886,0.682,13.933-0.211,20.788c-1.217,9.317-3.662,19.631-9.226,27.383c-1.078,1.506-3.92,6.169-6.14,6.149
				c-2.961-0.026-3.272-5.843-3.413-7.968c-0.242-3.624-1.743-6.8-3.119-10.11c-1.844-4.437-3.35-8.56-6.963-11.871
				c-10.138-9.293-19.771-17.426-21.722-32.032c-0.987-7.404,0.64-14.888,4.886-21.071c3.19-4.645,9.741-11.977,15.519-13.103
				c6.51-1.268,13.534,3.412,18.225,7.259c4.879,4.003,6.053,8.953,7.952,14.809C249.933,303.186,250.965,306.592,251.726,310.071z"
				/>
			<path fill="#E8A562" d="M254.533,309.551c0.648,2.991,1.102,6.036,1.256,9.296c0.324,6.886,0.684,13.933-0.211,20.788
				c-1.217,9.32-3.659,19.631-9.223,27.383c-1.08,1.506-3.922,6.169-6.143,6.149c-2.96-0.026-3.271-5.845-3.412-7.97
				c-0.242-3.622-1.743-6.798-3.119-10.108c-1.845-4.437-3.35-8.558-6.963-11.871c-10.139-9.294-19.771-17.426-21.722-32.032
				c-0.987-7.404,0.639-14.891,4.885-21.072c3.19-4.645,9.741-11.976,15.517-13.102c6.512-1.268,13.535,3.412,18.227,7.259
				c4.878,4.001,6.054,8.953,7.951,14.809C252.74,302.665,253.776,306.07,254.533,309.551z"/>
			<path fill="#C97135" d="M261.428,362.413c-1.553-7.752,5.043-9.085,7.781-9.811c3.074-0.812,7.834,0.857,10.674,2.139
				c6.352,2.861,12.449,8.829,11.691,17.356c-0.523,5.829-4.121,13.082-7.217,17.859c-2.539,3.93-7.174,8.34-12.516,8.558
				c-4.596,0.188-8.838-1.052-11.684-4.993c-2.98-4.128-1.939-9.287-0.326-13.754c1.168-3.228,4.211-6.182,4.502-9.704
				c0.105-1.31-0.207-2.497-0.641-3.663C263.143,364.916,261.756,364.046,261.428,362.413z"/>
			<path opacity="0.26" fill="#C97135" d="M264.033,367.381c-0.289-0.898-0.76-1.838-1.293-2.607
				c1.285,1.309,2.914,1.404,4.23,0.192c-0.072,1.354,1.436,2.266,1.848,2.547c0.896,0.615,2.18,0.654,3.248,0.576
				c0.238-0.018,2.711-0.369,2.434-0.788c0.15,0.229,0.24,0.656,0.326,0.924c0.633,1.957,2.758,2.793,4.643,2.942
				c0.881,0.069,1.73,0.097,2.574-0.182c0.428-0.141,1.773-0.9,2.109-0.16c1.074,2.385,0.404,5.146-0.459,7.479
				c-0.809,2.178-1.887,4.344-3.152,6.338c-0.863,1.362-2.682,4.967-4.498,5.114c-1.43,0.112-0.063-1.501-2.709-4.531
				c-1.984-2.274-5.914-3.201-8.111-3.37c-3.518-0.268-6.252,1.059-6.252,1.059s0.459-2.376,0.916-3.481
				c1.084-2.631,3.023-4.829,4.029-7.504C264.508,370.353,264.5,368.816,264.033,367.381z"/>
			<path fill="#C97135" d="M255.791,360.274c2.215,0.704,4.215,1.829,5.723,3.479c6.111,6.688-1.822,12.359-4.746,18.13
				c-3.236,6.383-3.438,17.586-10.687,20.663c-5.065,2.151-9.218,1.335-13.501-1.767c-4.871-3.526,1.015-8.849,2.242-12.747
				c2.125-6.756-0.49-11.775-1.054-18.46c-0.437-5.206,4.233-8.338,9.017-9.515C246.633,359.108,251.595,358.938,255.791,360.274z"
				/>
			<path opacity="0.26" fill="#C97135" d="M257.063,362.201c0.242-0.052,0.488-0.08,0.736-0.1c0.549-0.041,1.104-0.027,1.643,0.087
				c0.732,0.153,1.23,0.656,1.74,1.179c0.17,0.171,0.227,0.276,0.525,0.586c-0.498-0.235-1.191-0.51-1.516-0.601
				c-0.553-0.155-1.123-0.249-1.697-0.271c-0.311-0.011-0.617-0.002-0.928,0.021c-1.188,0.102-2.832,0.614-3.955,1.154
				C254.227,363.266,256.184,362.383,257.063,362.201z"/>
			
				<radialGradient id="SVGID_1_" cx="2913.717" cy="1351.9541" r="4.4453" gradientTransform="matrix(-1.7275 -0.5058 -0.3608 1.2321 5787.8257 196.5621)" gradientUnits="userSpaceOnUse">
				<stop  offset="0" style="stop-color:#E18766"/>
				<stop  offset="1" style="stop-color:#C97135"/>
			</radialGradient>
			<path opacity="0.57" fill="url(#SVGID_1_)" d="M258.811,386.267c-0.871,2.982,1.908,6.421,6.209,7.681
				c4.301,1.259,8.496-0.139,9.367-3.117c0.875-2.985-1.906-6.421-6.205-7.681C263.881,381.889,259.686,383.286,258.811,386.267z"/>
			<g opacity="0.26">
				<path fill="#C97135" d="M267.01,364.983c-1.566-1.918-1.887-3.882-1.045-5.979c0.943-2.358,2.895-4.005,5.504-4.076
					c-0.063,0.002-0.498,0.132-0.645,0.18c-1.428,0.458-2.742,1.335-3.506,2.654C265.809,360.376,266.442,362.32,267.01,364.983z"/>
			</g>
			<g opacity="0.26">
				<path fill="#C97135" d="M274.565,367.402c0,0-0.564-0.481-0.865-1.145c-2.053-4.525-0.18-8.593,5.525-8.743
					c0.379-0.011-3.471,0.82-4.785,3.395C273.235,363.276,274.565,367.402,274.565,367.402z"/>
			</g>
		</g>
		<g>
			<path fill="#C97135" d="M216.692,335.38c-24.104,7.404-21.603-49.048-35.866-39.374c-2.959,2.009-5.711,4.445-7.394,7.622
				c-2.151,11.724,1.329,31.441,10.849,45.057c15.037,21.51,35.843,28.743,51.433,21.26c4.136-1.987,8.371-6.788,9.687-10.38
				C252.703,338.412,234.816,329.816,216.692,335.38z"/>
			<path fill="#DB8342" d="M217.235,331.332c-24.269,7.517-22.249-44.739-36.633-34.982c-2.983,2.025-4.739-1.443-6.791,6.335
				c-2.214,11.762,1.259,28.494,10.78,42.11c15.039,21.512,37.57,28.845,53.275,21.283c4.17-2.004,7.341-6.711,8.482-10.972
				C250.267,333.533,235.481,325.687,217.235,331.332z"/>
		</g>
		<path opacity="0.27" fill="#EF9D59" d="M305.744,231.361c-1.99-6.396-3.15-12.838-4.232-19.456
			c-1.971-12.048-5.984-19.562-12.482-29.678c-5.613-8.744-8.014-19.853-16.051-26.981c-10.547-9.356-29.464-9.768-42.52-13.886
			c-5.009-0.287-10.054-0.387-15.106-0.416c-0.337,0.357-0.732,0.677-1.199,0.941c-11.367,6.445-22.858,12.707-33.897,19.719
			c-5.484,3.484-10.669,7.399-16.117,10.929c-2.702,1.752-5.499,3.341-8.298,4.931c-2.406,2.035-4.751,4.14-7.004,6.357
			c-0.209,0.207-0.413,0.417-0.62,0.625c-3.609,4.5-7.098,9.121-10.819,13.522c-0.976,1.456-1.927,2.93-2.86,4.416
			c-0.136,0.68-0.263,1.36-0.384,2.038c-1.209,6.779-2.156,13.698-4.877,19.965c1.182,5.318,1.801,10.905,1.413,16.335
			c1.086,1.061,2.134,2.199,3.136,3.397c1.987-3.256,6.838-4.344,9.117-0.19c2.492,4.542,3.998,9.658,4.7,14.948
			c1.879-3.493,3.628-7.052,5.119-10.738c1.086-2.685,3.594-4.495,6.594-3.623c2.572,0.746,4.71,3.903,3.625,6.595
			c-1.705,4.203-3.285,8.452-4.832,12.712c3.717-4.393,7.508-8.716,11.62-12.753c3.73-3.66,10.495,0.173,8.817,5.302
			c-1.454,4.445-3.128,8.928-5.031,13.345c0.666,1.121,0.875,2.49,0.309,3.948c-0.451,1.16-0.965,2.276-1.516,3.372
			c1.419-1.098,2.862-2.162,4.337-3.18c1.95-1.339,4.879-0.678,6.434,0.922c1.458,1.502,1.585,3.247,1.294,5.196
			c-0.663,4.469-2.382,9.967-4.994,15.058c4.02,8.155,7.434,8.827,21.825,16.246c7.247,2.212,18.005,5.435,25.685,5.401
			c13.056-0.054,24.927-1.237,35.295-9.749c-0.793-0.75-3.385-5.192-4.385-6.02c-4.145-3.43,0.496-8.823,5.018-8.048
			c0.104-0.749,0.195-1.501,0.389-2.233c0.145-0.786,0.205-0.89,0.176-0.317c0.477-3.322,3.582-5.628,6.414-5.191
			c2.092,0.32,10.201-5.112,12.631-5.99c4.316-1.56,8.932-3.146,13.428-4.089c8.666-1.82,9.518-2.726,12.082-11.964
			c2.938-10.57,1.281-20.797-1.988-30.942C305.905,231.877,305.824,231.62,305.744,231.361z"/>
		<path fill="#DB8342" d="M246.554,331.998c-1.685,5.319-1.132,11.598,2.848,17.943c4.643,7.394,12.36,11.274,20.424,7.771
			c10.047-4.36,23.039-24.422,12.461-33.996C268.748,311.462,250.74,318.772,246.554,331.998z"/>
		<path fill="#C97135" d="M269.865,354.914c-8.064,3.503-15.781-0.378-20.422-7.771c-2.367-3.771-3.513-7.514-3.708-11.05
			c-0.385,4.324,0.668,9.067,3.667,13.849c4.643,7.394,12.36,11.274,20.424,7.771c7.695-3.341,17.119-15.893,16.355-25.888
			C285.272,341.242,276.858,351.879,269.865,354.914z"/>
		<path fill="#EF9D59" d="M321.369,232.266c-0.262,50.32-40.545,71.842-96.552,72.068c-57.122,0.235-106.984-25.136-106.723-75.457
			c0.261-50.32,50.542-105.217,103.742-104.94C273.91,124.208,321.631,181.946,321.369,232.266z"/>
		<path opacity="0.45" fill="#EF9D59" d="M222.079,130.593c28.353,0.146,55.503,15.072,75.353,36.306
			c-18.768-24.715-46.5-42.81-75.595-42.962c-31.46-0.163-61.895,18.971-81.576,45.04
			C161.309,146.364,191.232,130.431,222.079,130.593z"/>
		<path opacity="0.25" fill="#D99C54" d="M320.563,220.305c0.213,2.504,0.32,4.998,0.309,7.473
			c-0.262,50.321-40.543,71.842-96.553,72.071c-52.992,0.216-99.731-21.609-105.999-64.943c3.6,46.313,51.705,69.653,106.498,69.429
			c56.007-0.227,96.29-21.748,96.552-72.068C321.389,228.313,321.115,224.315,320.563,220.305z"/>
		<g>
			<path opacity="0.47" fill="#F4B978" d="M206.591,216.502c2.551,12.475-6.091,24.776-19.303,27.479s-26.471-1.431-30.782-9.886
				c-7.51-14.734,2.704-37.021,22.21-42.131C191.755,188.547,204.04,204.029,206.591,216.502z"/>
			
				<path fill="#8A5D3B" stroke="#8A5D3B" stroke-width="3.3599" stroke-linecap="round" stroke-linejoin="round" stroke-miterlimit="10" d="
				M199.059,224.063c-0.115,8.28-6.421,14.905-14.084,14.797c-7.661-0.107-14.508-4.567-15.862-10.536
				c-2.356-10.401,6.045-23.155,17.497-23.708C194.262,204.247,199.178,215.784,199.059,224.063z"/>
			
				<linearGradient id="SVGID_2_" gradientUnits="userSpaceOnUse" x1="185.7366" y1="231.2344" x2="214.8567" y2="231.2344" gradientTransform="matrix(0.9999 0.0141 -0.0141 0.9999 -11.9791 -11.7547)">
				<stop  offset="0.0121" style="stop-color:#F1F1F2"/>
				<stop  offset="0.6047" style="stop-color:#DADBDC"/>
				<stop  offset="1" style="stop-color:#D1D2D3"/>
			</linearGradient>
			<path fill="url(#SVGID_2_)" d="M199.567,224.544c-0.112,7.949-6.166,14.309-13.521,14.205
				c-7.356-0.104-13.929-4.384-15.227-10.114c-2.264-9.985,5.804-22.228,16.793-22.759
				C194.958,205.521,199.677,216.597,199.567,224.544z"/>
			<circle fill="#5E2B02" cx="187.145" cy="225.082" r="9.35"/>
			
				<linearGradient id="SVGID_3_" gradientUnits="userSpaceOnUse" x1="194.467" y1="234.0059" x2="210.4216" y2="234.0059" gradientTransform="matrix(0.9999 0.0141 -0.0141 0.9999 -11.9791 -11.7547)">
				<stop  offset="0.0121" style="stop-color:#D99C54"/>
				<stop  offset="0.0746" style="stop-color:#D3954D"/>
				<stop  offset="0.4836" style="stop-color:#B16E24"/>
				<stop  offset="0.8061" style="stop-color:#9C560A"/>
				<stop  offset="1" style="stop-color:#944D01"/>
			</linearGradient>
			<circle fill="url(#SVGID_3_)" cx="187.146" cy="225.082" r="7.977"/>
			<circle fill="#231F20" cx="187.168" cy="225.262" r="4.976"/>
			<circle fill="#FFFFFF" cx="189.961" cy="221.869" r="2.23"/>
			<circle fill="#FFFFFF" cx="188.648" cy="229.917" r="1.373"/>
		</g>
		<g>
			<path opacity="0.47" fill="#F4B978" d="M243.066,216.358c-2.816,12.53,5.206,25.197,17.919,28.294
				c12.715,3.098,25.664-0.708,30.07-9.127c7.678-14.674-1.586-37.469-20.322-43.176
				C258.205,188.534,245.882,203.831,243.066,216.358z"/>
			
				<path fill="#8A5D3B" stroke="#8A5D3B" stroke-width="3.3234" stroke-linecap="round" stroke-linejoin="round" stroke-miterlimit="10" d="
				M250.146,224.205c-0.119,8.367,5.801,15.235,13.221,15.339c7.416,0.104,14.17-4.208,15.645-10.201
				c2.57-10.44-5.207-23.556-16.271-24.434C255.342,204.322,250.261,215.839,250.146,224.205z"/>
			
				<linearGradient id="SVGID_4_" gradientUnits="userSpaceOnUse" x1="7737.3955" y1="231.2695" x2="7765.5928" y2="231.2695" gradientTransform="matrix(-0.9999 -0.0141 -0.0141 0.9999 8017.749 100.8451)">
				<stop  offset="0" style="stop-color:#D1D2D3"/>
				<stop  offset="0.3953" style="stop-color:#DADBDC"/>
				<stop  offset="0.9879" style="stop-color:#F1F1F2"/>
			</linearGradient>
			<path fill="url(#SVGID_4_)" d="M249.642,224.678c-0.111,8.031,5.571,14.623,12.69,14.724c7.123,0.101,13.605-4.041,15.021-9.792
				c2.467-10.023-5-22.614-15.621-23.457C254.633,205.59,249.756,216.646,249.642,224.678z"/>
			
				<ellipse transform="matrix(-0.9999 -0.0141 0.0141 -0.9999 520.0999 454.7925)" fill="#5E2B02" cx="261.65" cy="225.566" rx="9.054" ry="9.448"/>
			
				<linearGradient id="SVGID_5_" gradientUnits="userSpaceOnUse" x1="7745.8496" y1="234.0698" x2="7761.2959" y2="234.0698" gradientTransform="matrix(-0.9999 -0.0141 -0.0141 0.9999 8017.749 100.8451)">
				<stop  offset="0" style="stop-color:#944D01"/>
				<stop  offset="0.1939" style="stop-color:#9C560A"/>
				<stop  offset="0.5164" style="stop-color:#B16E24"/>
				<stop  offset="0.9254" style="stop-color:#D3954D"/>
				<stop  offset="0.9879" style="stop-color:#D99C54"/>
			</linearGradient>
			<path fill="url(#SVGID_5_)" d="M253.928,225.458c-0.063,4.453,3.344,8.108,7.609,8.167c4.266,0.059,7.773-3.498,7.836-7.951
				c0.063-4.45-3.344-8.108-7.609-8.167C257.5,217.447,253.99,221.007,253.928,225.458z"/>
			
				<ellipse transform="matrix(-0.9999 -0.014 0.014 -0.9999 520.05 455.1457)" fill="#231F20" cx="261.622" cy="225.748" rx="4.818" ry="5.028"/>
			
				<ellipse transform="matrix(-0.9999 -0.0142 0.0142 -0.9999 526.5118 447.8265)" fill="#FFFFFF" cx="264.851" cy="222.038" rx="2.159" ry="2.254"/>
			<path fill="#FFFFFF" d="M262.696,230.744c-0.014,0.767,0.574,1.396,1.307,1.407c0.736,0.01,1.338-0.603,1.348-1.37
				c0.012-0.767-0.572-1.395-1.307-1.406C263.309,229.366,262.705,229.978,262.696,230.744z"/>
		</g>
		<path opacity="0.47" fill="#F4B978" d="M264.717,242.321c-6.35-2.063-12.792-3.426-17.86-4.586
			c-16.873-3.855-35.646-3.875-52.416,0.496c-13.515,3.522-35.521,11.792-35.597,28.733c-0.082,18.103,29.199,32.916,65.407,33.084
			c36.208,0.166,65.627-14.373,65.713-32.479C290.028,253.546,277.563,246.499,264.717,242.321z"/>
		<path fill="#F4B978" d="M262.643,242.504c-6.02-1.956-12.125-3.25-16.936-4.349c-15.995-3.657-33.797-3.674-49.698,0.471
			c-12.814,3.339-33.679,11.182-33.752,27.244c-0.078,17.165,27.687,31.209,62.018,31.367c34.33,0.159,62.227-13.628,62.305-30.792
			C286.641,253.147,274.824,246.467,262.643,242.504z"/>
		<path fill="#603813" d="M256.934,244.062c-0.078,5.686-14.49,16.958-30.373,16.733c-15.881-0.223-27.227-11.857-27.147-17.543
			c0.08-5.686,13.02-10.114,28.905-9.89C244.201,233.585,257.014,238.376,256.934,244.062z"/>
		<path opacity="0.77" fill="#603813" d="M228.347,240.847c13.902,0.194,25.716-0.159,28.327,4.571
			c0.162-0.477,0.254-0.934,0.26-1.356c0.08-5.686-12.732-10.477-28.615-10.7c-15.886-0.224-28.825,4.204-28.905,9.89
			c-0.011,0.699,0.153,1.487,0.475,2.333C201.504,240.443,213.507,240.637,228.347,240.847z"/>
		<path fill="#EF9D59" d="M150.521,178.843c-3.784,6.924-9.972,11.055-17.568,13.455c-7.452,2.355-16.925,6.839-24.625,7.396
			c-20.315,1.466-35.318-19.755-31.75-38.537c5.523-29.074,41.94-34.55,61.18-15.649c11.667,11.465,22.059,12.063,13.907,30.979
			C151.316,177.307,150.931,178.092,150.521,178.843z"/>
		<path opacity="0.25" fill="#D99C54" d="M134.892,188.379c-0.771,0.993-10.451,3.001-12.015,3.542
			c-5.272,1.824-10.549,3.982-16.182,4.389c-12.182,0.879-22.45-6.402-27.955-16.42c4.909,11.71,16.072,20.778,29.588,19.804
			C117,199.068,129.302,195.577,134.892,188.379z"/>
		<path opacity="0.45" fill="#EF9D59" d="M145.337,153.785c2.751,2.391,5.43,4.331,7.883,6.066
			c-2.648-4.833-8.849-7.842-15.462-14.342c-19.24-18.901-55.657-13.425-61.18,15.649c-0.382,2.011-0.551,4.05-0.522,6.086
			C82.053,138.735,123.032,134.411,145.337,153.785z"/>
		<g>
			<path fill="#B55A1D" d="M169.873,177.717c2.203-2.209,7.136-5.583,10.108-6.704c1.24-0.468,3.129-1.455,3.108-3.046
				c-0.023-1.516-2.181-1.484-3.166-1.112c-4.527,1.708-8.713,4.101-12.212,7.39c-3.097,2.913-6.681,7.756-6.67,12.299
				C161.048,189.423,164.653,182.95,169.873,177.717z"/>
		</g>
		<g>
			<path fill="#B55A1D" d="M277.623,180.585c-2.498-2.139-7.816-5.057-10.863-5.731c-1.271-0.281-3.258-1.037-3.51-2.935
				c-0.242-1.809,1.836-2.248,2.844-2.025c4.643,1.027,9.074,2.944,13.004,6.08c3.479,2.778,7.758,7.743,8.533,13.151
				C288.121,192.551,283.539,185.65,277.623,180.585z"/>
		</g>
		<path fill="#231F20" d="M218.969,254.882c0.44-0.892-0.171-2.359-0.413-3.476c-0.333-1.521-0.091-3.03-0.3-4.583
			c-1.378-0.465-3.281,1.584-4.268,2.449c-1.563,1.374-2.922,1.961-1.322,3.805c1.162,1.338,3.115,2.823,5.022,2.565
			C218.39,255.547,218.779,255.268,218.969,254.882z"/>
		<path fill="#231F20" d="M239.498,255.171c-0.412-0.905,0.237-2.354,0.512-3.462c0.373-1.511,0.177-3.026,0.43-4.573
			c1.391-0.428,3.235,1.676,4.196,2.569c1.527,1.416,2.866,2.042,1.216,3.839c-1.201,1.305-3.194,2.735-5.095,2.423
			C240.059,255.853,239.679,255.563,239.498,255.171z"/>
		
			<radialGradient id="SVGID_6_" cx="199.2659" cy="271.3271" r="19.8796" gradientTransform="matrix(0.9999 0.0141 -0.0135 0.9576 -12.1505 3.0318)" gradientUnits="userSpaceOnUse">
			<stop  offset="0" style="stop-color:#FDAA7C"/>
			<stop  offset="1" style="stop-color:#F4B978"/>
		</radialGradient>
		<path fill="url(#SVGID_6_)" d="M203.31,265.944c-0.147,10.515-9.168,18.913-20.145,18.758
			c-10.979-0.155-19.756-8.803-19.609-19.317c0.149-10.514,9.167-18.912,20.145-18.757
			C194.679,246.782,203.457,255.43,203.31,265.944z"/>
		
			<radialGradient id="SVGID_7_" cx="279.9026" cy="271.3252" r="19.8794" gradientTransform="matrix(0.9999 0.0141 -0.0135 0.9576 -12.1505 3.0318)" gradientUnits="userSpaceOnUse">
			<stop  offset="0" style="stop-color:#FDAA7C"/>
			<stop  offset="1" style="stop-color:#F4B978"/>
		</radialGradient>
		<path fill="url(#SVGID_7_)" d="M283.938,267.08c-0.146,10.516-9.17,18.913-20.145,18.757c-10.981-0.154-19.758-8.801-19.61-19.317
			c0.146-10.513,9.167-18.912,20.147-18.757C275.307,247.917,284.086,256.566,283.938,267.08z"/>
		<g>
			<ellipse opacity="0.47" fill="#F4B978" cx="109.768" cy="176.768" rx="19.688" ry="17.293"/>
			<ellipse fill="#F4B978" cx="109.751" cy="177.888" rx="16.59" ry="14.573"/>
			<path opacity="0.36" fill="#F4B978" d="M109.123,190.182c-5.143,0-9.801-1.614-13.188-4.226c2.976,3.92,8.052,6.504,13.816,6.505
				c7.151,0,13.247-3.975,15.577-9.547C122.086,187.258,116.045,190.182,109.123,190.182z"/>
			<path opacity="0.42" fill="#F4B978" d="M109.68,168.355c8.253,0,15.098,5.294,16.374,12.227c0.186-0.874,0.287-1.774,0.287-2.695
				c0-8.048-7.428-14.572-16.59-14.572s-16.59,6.524-16.59,14.572c0,0.798,0.076,1.582,0.216,2.346
				C94.818,173.473,101.565,168.355,109.68,168.355z"/>
		</g>
		<g>
			<path fill="#EF9D59" d="M360.871,173.501c1.141,18.837-17.715,33.939-36.307,33.677c-13.258-0.187-25.453-8.63-30.607-20.801
				c-11.48-27.112,26.209-52.16,49.488-43.382c13.025,4.91,15.219,15.446,17.156,27.973
				C360.731,171.818,360.824,172.663,360.871,173.501z"/>
			<path opacity="0.25" fill="#D99C54" d="M327.506,204.111c-7.76,1.61-14.83,0.627-14.83,0.627s7.764,2.381,11.889,2.439
				c17.457,0.247,35.148-13.059,36.297-30.281C355.651,190.837,349.938,199.456,327.506,204.111z"/>
			<path opacity="0.45" fill="#EF9D59" d="M342.479,149.7c13.664,4.921,15.971,15.457,18.008,27.985
				c0.064,0.399,0.119,0.795,0.164,1.191c0.248-1.75,0.334-3.545,0.221-5.376c-0.047-0.838-0.141-1.683-0.27-2.534
				c-1.938-12.527-4.131-23.063-17.156-27.973c-17.758-6.696-43.906,6.296-50.205,24.872
				C303.158,153.034,326.182,143.832,342.479,149.7z"/>
		</g>
		<g>
			
				<radialGradient id="SVGID_8_" cx="243.1799" cy="279.2422" r="18.0751" gradientTransform="matrix(0.9999 0.0141 -0.0069 0.4919 -13.785 144.6599)" gradientUnits="userSpaceOnUse">
				<stop  offset="0" style="stop-color:#FADDBD"/>
				<stop  offset="1" style="stop-color:#F4B978"/>
			</radialGradient>
			<path opacity="0.5" fill="url(#SVGID_8_)" d="M246.021,285.709c-0.067,4.77-8.44,8.52-18.698,8.375
				c-10.259-0.146-18.523-4.128-18.456-8.897c0.067-4.77,8.439-8.518,18.698-8.375C237.824,276.956,246.087,280.939,246.021,285.709
				z"/>
			<g opacity="0.11">
				<path fill="#F96E32" d="M227.697,273.582c-5.992-0.047-9.143-7.15-11.966-9.338c1.929,12.197,6.877,20.059,11.931,20.149
					c4.736,0.084,9.832-7.191,11.637-20.478C238.368,264.633,235.416,273.643,227.697,273.582z"/>
			</g>
			<g opacity="0.19">
				<path fill="#FFFFFF" d="M227.775,267.92c-5.989-0.048-10.605-3.821-12.093-4.174c1.397,4.296,7.015,14.299,12.069,14.389
					c4.734,0.085,10.329-10.734,11.628-14.743C238.623,263.041,235.496,267.981,227.775,267.92z"/>
			</g>
			<g>
				
					<linearGradient id="SVGID_9_" gradientUnits="userSpaceOnUse" x1="243.3679" y1="286.9492" x2="243.3679" y2="279.4971" gradientTransform="matrix(0.9999 0.0141 -0.0141 0.9999 -11.9791 -11.7547)">
					<stop  offset="0.0121" style="stop-color:#D98B54"/>
					<stop  offset="0.3129" style="stop-color:#D58750"/>
					<stop  offset="0.6073" style="stop-color:#C97B44"/>
					<stop  offset="0.8981" style="stop-color:#B66831"/>
					<stop  offset="1" style="stop-color:#AD5F28"/>
				</linearGradient>
				<path fill="url(#SVGID_9_)" d="M227.76,269.111c-5.992-0.045-9.257-3.178-12.078-5.365c1.397,4.296,6.989,16.086,12.043,16.177
					c4.737,0.084,10.354-12.522,11.654-16.531C238.451,264.108,235.481,269.174,227.76,269.111z"/>
			</g>
			
				<linearGradient id="SVGID_10_" gradientUnits="userSpaceOnUse" x1="243.3293" y1="280.5293" x2="243.6054" y2="287.1911" gradientTransform="matrix(0.9999 0.0141 -0.0141 0.9999 -11.9791 -11.7547)">
				<stop  offset="0" style="stop-color:#FF9494"/>
				<stop  offset="0.9879" style="stop-color:#CC0505"/>
			</linearGradient>
			<path opacity="0.27" fill="url(#SVGID_10_)" d="M232.848,271.144c0.449,0.059,1.167,0.253,1.423,0.668
				c0.227,0.362,0.188,0.695,0.084,1.068c-0.311,1.147-3.609,4.981-5.603,6c-1.171,0.6-2.625,0.1-3.562-0.699
				c-1.987-1.693-2.201-1.879-3.922-4.315c-0.272-0.387-1.318-1.825-0.847-2.248c0.285-0.258,1.063-0.545,1.449-0.584
				c1.792-0.173,2.129-0.107,3.097,0.082c0.832,0.165,1.667,0.438,2.518,0.519c0.769,0.073,1.773-0.33,2.592-0.442
				C230.989,271.068,231.934,271.027,232.848,271.144z"/>
			<path opacity="0.4" fill="#FFFFFF" d="M220.375,271.976c0.288-0.257,1.065-0.547,1.452-0.583c1.791-0.176,2.127-0.11,3.097,0.082
				c0.833,0.161,1.669,0.436,2.519,0.518c0.769,0.074,1.773-0.332,2.594-0.442c0.909-0.125,1.853-0.164,2.767-0.048
				c0.449,0.057,1.168,0.251,1.426,0.668c0.121,0.196,0.164,0.382,0.162,0.572c0.073-0.32,0.08-0.613-0.119-0.931
				c-0.257-0.415-0.974-0.609-1.423-0.668c-0.914-0.116-1.859-0.075-2.769,0.048c-0.819,0.112-1.823,0.516-2.592,0.442
				c-0.851-0.08-1.687-0.354-2.518-0.519c-0.968-0.189-1.305-0.255-3.097-0.082c-0.387,0.039-1.165,0.326-1.449,0.584
				c-0.112,0.099-0.134,0.255-0.108,0.438C220.332,272.025,220.351,271.999,220.375,271.976z"/>
			<path opacity="0.3" fill="#FFFFFF" d="M227.602,282.162c3.192,0.046,6.194-5.109,6.078-4.971
				c-1.598,1.952-3.678,4.518-6.138,4.438c-3.283-0.104-5.125-3.042-6.521-4.749C220.902,276.735,223.36,282.104,227.602,282.162z"
				/>
			
				<radialGradient id="SVGID_11_" cx="243.8562" cy="295.0156" r="2.5547" gradientTransform="matrix(0.9999 0.0141 -0.0141 0.9999 -11.9791 -11.7547)" gradientUnits="userSpaceOnUse">
				<stop  offset="0" style="stop-color:#FFFFFF"/>
				<stop  offset="1" style="stop-color:#FFFFFF"/>
			</radialGradient>
			<path opacity="0.13" fill="url(#SVGID_11_)" d="M231.131,286.371c-0.011,0.812-1.558,1.449-3.454,1.423
				c-1.895-0.025-3.423-0.706-3.413-1.519c0.013-0.813,1.507-0.755,3.404-0.729C229.565,285.572,231.142,285.558,231.131,286.371z"
				/>
		</g>
		<g>
			
				<ellipse transform="matrix(0.9942 -0.1078 0.1078 0.9942 -17.8926 36.4445)" opacity="0.47" fill="#F4B978" cx="328.113" cy="183.703" rx="19.688" ry="17.294"/>
			<path fill="#F4B978" d="M344.711,183.03c0.867,8.001-5.813,15.289-14.92,16.276c-9.111,0.988-17.199-4.698-18.068-12.699
				c-0.865-8.001,5.814-15.288,14.924-16.276S343.844,175.028,344.711,183.03z"/>
			<path opacity="0.36" fill="#F4B978" d="M328.918,197.109c-5.111,0.554-9.918-0.549-13.566-2.781
				c3.381,3.578,8.705,5.6,14.439,4.978c7.107-0.771,12.738-5.379,14.453-11.171C341.49,192.804,335.801,196.362,328.918,197.109z"
				/>
			<path opacity="0.42" fill="#F4B978" d="M327.119,175.349c8.205-0.89,15.578,3.636,17.596,10.391
				c0.092-0.889,0.096-1.794-0.004-2.71c-0.867-8.001-8.955-13.687-18.064-12.699s-15.789,8.274-14.924,16.276
				c0.088,0.794,0.248,1.563,0.469,2.308C312.895,182.039,319.053,176.223,327.119,175.349z"/>
		</g>
		<path fill="#C97135" d="M229.008,112.111c-0.67,0.804-2.324,4.04-3.016,6.055c10.253-7.1,21.689-11.651,33.967-12.915
			c-4.715,1.342-7.836,3.962-11.086,7.545c7.194,3.331,14.827,0.612,22.215,6.036c-7.15,0.478-13.906,1.966-20.686,4.808
			c6.571,1.27,14.729,6.818,16.668,13.945c-5.875-2.457-11.879-5.266-17.901-2.438c11.411,4.376,5.372,20.045,1.609,27.362
			c-2.523-6.517-0.543-11.789-6.631-16.915c-7.716-6.502-20.071-1.355-28.393-6.735C202.221,130.11,220.93,115.325,229.008,112.111z
			"/>
		<path opacity="0.13" fill="#EF9D59" d="M226.425,334.594c9.421,0.132,17.106,6.227,18.136,13.977
			c0.102-0.642,0.166-1.294,0.175-1.959c0.123-8.656-8.052-15.793-18.257-15.938c-10.203-0.143-18.575,6.761-18.698,15.419
			c-0.008,0.663,0.037,1.317,0.121,1.961C209.148,340.337,217.003,334.46,226.425,334.594z"/>
		<path opacity="0.13" fill="#EF9D59" d="M265.778,323.948c8.848,0.123,16.063,6.212,17.023,13.959
			c0.098-0.64,0.158-1.294,0.166-1.957c0.123-8.659-7.551-15.786-17.137-15.923c-9.584-0.134-17.456,6.776-17.577,15.435
			c-0.01,0.663,0.033,1.317,0.113,1.961C249.541,329.706,256.926,323.822,265.778,323.948z"/>
	</g>
	<g>
		<path fill="#842D02" d="M445.106,354.637c0.086-9.48-2.326-17.695-7.232-24.641c-4.166-5.832-9.385-9.988-15.658-12.465
			c8.912-3.826,11.666-13.764,11.447-19.817c-0.391-10.724-3.408-17.253-15.322-22.101c-9.209-3.768-21.32-5.719-36.336-5.852
			c-8.459-0.074-16.922,0.264-25.348,0.912c-6.32,0.488-10.951,0.938-13.533,1.307c-2.443,0.354-2.844,1.115-2.977,4.088
			c-0.549,12.438-5.18,89.146-6.969,112.893c-0.275,3.654,0.867,4.93,4.684,5.512c3.555,0.545,7.137,0.945,10.721,1.271
			c8.602,0.785,17.248,1.102,25.889,1.18C421.307,397.336,444.856,383.24,445.106,354.637z M407.451,301.912
			c-0.023,2.83-1.445,5.781-4.166,7.209c-2.768,1.451-7.471,2.33-10.639,1.84c-3.131-0.484-3.082-2.605-3.305-5.033
			c-0.281-3.113-0.229-5.798-0.094-8.774c0.074-1.629,0.51-4.534,2.076-5.661c1.742-1.25,6.738-0.408,8.586,0.283
			C405.194,293.758,407.492,297.194,407.451,301.912z M409.955,338.904c0.184,4.051-1.252,7.525-4.73,9.848
			c-3.166,2.109-7.455,2.863-11.289,3.234c-3.348,0.32-3.557-1.744-4.074-4.289c-0.662-3.248-0.877-7.256-0.527-11.404
			c0.346-4.082,1.549-8.125,4.385-8.439c4.982-0.549,10.521,0.814,13.85,4.51C409.231,334.213,409.846,336.531,409.955,338.904z"/>
		<g opacity="0.4">
			<path fill="#842D02" d="M341.992,277.418c2.674-0.371,7.467-0.818,14.012-1.307c8.725-0.648,17.486-0.986,26.242-0.912
				c15.547,0.133,28.086,2.084,37.621,5.852c6.482,2.563,10.232,6.305,13.26,11.074c-1.295-7.518-5.1-12.57-14.787-16.512
				c-9.209-3.768-21.32-5.719-36.336-5.852c-8.459-0.074-16.922,0.264-25.348,0.912c-6.32,0.488-10.951,0.938-13.533,1.307
				c-2.443,0.354-2.844,1.115-2.977,4.088c-0.023,0.533-0.055,1.184-0.092,1.941C340.5,277.715,341.117,277.541,341.992,277.418z"/>
		</g>
		<g opacity="0.4">
			<linearGradient id="SVGID_12_" gradientUnits="userSpaceOnUse" x1="388.6448" y1="294.75" x2="406.9583" y2="294.75">
				<stop  offset="0" style="stop-color:#4D1F03"/>
				<stop  offset="0.4794" style="stop-color:#4A1C03"/>
				<stop  offset="0.8965" style="stop-color:#3F1103"/>
				<stop  offset="1" style="stop-color:#3B0D03"/>
			</linearGradient>
			<path fill="url(#SVGID_12_)" d="M399.416,286.834c-1.848-0.693-6.846-1.535-8.586-0.283c-1.566,1.125-2.004,4.031-2.076,5.66
				c-0.135,2.976-0.188,5.661,0.096,8.775c0.084,0.939,0.131,1.832,0.338,2.605c-0.094-2.182-0.041-4.229,0.061-6.438
				c0.074-1.629,0.51-4.534,2.076-5.661c1.742-1.25,6.738-0.408,8.586,0.283c3.742,1.404,5.982,3.542,6.959,6.345
				c0.055-0.385,0.086-0.77,0.088-1.152C407,292.252,404.699,288.814,399.416,286.834z"/>
			<linearGradient id="SVGID_13_" gradientUnits="userSpaceOnUse" x1="333.1389" y1="371.8438" x2="445.1077" y2="371.8438">
				<stop  offset="0" style="stop-color:#4D1F03"/>
				<stop  offset="0.4794" style="stop-color:#4A1C03"/>
				<stop  offset="0.8965" style="stop-color:#3F1103"/>
				<stop  offset="1" style="stop-color:#3B0D03"/>
			</linearGradient>
			<path fill="url(#SVGID_13_)" d="M444.549,346.756c0.047,0.967,0.072,1.943,0.064,2.939
				c-0.254,28.604-23.801,42.699-70.637,42.285c-8.641-0.076-17.287-0.393-25.889-1.18c-3.584-0.326-7.168-0.727-10.723-1.271
				c-2.111-0.32-3.402-0.859-4.09-1.891c-0.033,0.455-0.064,0.9-0.098,1.322c-0.275,3.654,0.867,4.93,4.684,5.512
				c3.555,0.545,7.137,0.945,10.721,1.271c8.602,0.785,17.248,1.102,25.889,1.18c46.836,0.412,70.385-13.684,70.635-42.287
				C445.131,351.904,444.942,349.277,444.549,346.756z"/>
			<linearGradient id="SVGID_14_" gradientUnits="userSpaceOnUse" x1="388.675" y1="332.3242" x2="409.4749" y2="332.3242">
				<stop  offset="0" style="stop-color:#4D1F03"/>
				<stop  offset="0.4794" style="stop-color:#4A1C03"/>
				<stop  offset="0.8965" style="stop-color:#3F1103"/>
				<stop  offset="1" style="stop-color:#3B0D03"/>
			</linearGradient>
			<path fill="url(#SVGID_14_)" d="M389.334,336.293c0.346-4.082,1.549-8.125,4.385-8.439c4.982-0.549,10.521,0.814,13.85,4.51
				c0.898,1,1.49,2.139,1.863,3.348c0.043-0.57,0.057-1.152,0.027-1.75c-0.107-2.373-0.723-4.689-2.387-6.541
				c-3.326-3.695-8.867-5.059-13.848-4.51c-2.836,0.314-4.039,4.357-4.385,8.439c-0.318,3.775-0.166,7.428,0.363,10.506
				C389.137,340.068,389.174,338.197,389.334,336.293z"/>
		</g>
		<circle fill="#A33D04" cx="360.444" cy="293.014" r="6.426"/>
		<circle fill="#A33D04" cx="353.03" cy="379.518" r="6.426"/>
		<circle fill="#A33D04" cx="368.6" cy="332.805" r="2.719"/>
		<circle fill="#A33D04" cx="406.166" cy="367.406" r="2.719"/>
		<circle fill="#A33D04" cx="358.22" cy="356.037" r="4.696"/>
		<circle fill="#A33D04" cx="432.365" cy="366.418" r="5.685"/>
		<circle fill="#A33D04" cx="385.654" cy="385.447" r="5.19"/>
		<circle fill="#A33D04" cx="421.49" cy="333.299" r="4.202"/>
		<circle fill="#A33D04" cx="416.051" cy="302.654" r="3.707"/>
		<circle fill="#A33D04" cx="377.497" cy="286.342" r="5.19"/>
	</g>
</g>
</svg>
