<?xml version="1.0" encoding="utf-8"?>
<!-- Generator: Adobe Illustrator 15.1.0, SVG Export Plug-In . SVG Version: 6.00 Build 0)  -->
<!DOCTYPE svg PUBLIC "-//W3C//DTD SVG 1.1//EN" "http://www.w3.org/Graphics/SVG/1.1/DTD/svg11.dtd">
<svg version="1.1" id="Layer_1" xmlns="http://www.w3.org/2000/svg" xmlns:xlink="http://www.w3.org/1999/xlink" x="0px" y="0px"
	 width="512px" height="512px" viewBox="0.5 0.5 512 512" enable-background="new 0.5 0.5 512 512" xml:space="preserve">
<g>
	<g>
		<path fill="#007866" d="M423.543,381.813c-2.009,0.982-7.752,0.133-10.523,0.133c-8.867,0-16.07,2.328-21.607,6.982
			c-6.264,5.208-9.393,12.715-9.393,22.521c0,7.645,2.479,13.919,7.438,18.823c4.958,4.903,11.458,7.592,19.489,7.354
			c9.182-0.27,8.739-1.725,11.645,0.223c3.041,2.043,2.493,6.227,1.902,8.93c-0.611,3.184-1.463,6.319-2.316,9.447
			c-0.775,2.844-2.565,3.264-5.229,3.96c-1.885,0.495-3.792,0.876-5.719,1.175c-4.488,0.699-9.041,0.949-13.582,0.949
			c-17.564,0-34.932-5.957-47.396-17.76c-13.52-12.852-20.032-28.035-20.032-48.647c0-19.058,7.924-35.952,19.562-47.7
			c12.41-12.519,29.555-18.781,51.441-18.781c10.525,0,22.629,1.869,26.27,6.246c2.951,3.551-0.188,41.357-0.778,44.086
			C424.475,380.854,424.278,381.453,423.543,381.813z"/>
		<path fill="#007866" d="M423.543,381.813c-2.009,0.982-7.752,0.133-10.523,0.133c-8.867,0-16.07,2.328-21.607,6.982
			c-6.264,5.208-9.393,12.715-9.393,22.521c0,7.645,2.479,13.919,7.438,18.823c4.958,4.903,11.458,7.592,19.489,7.354
			c9.182-0.27,8.739-1.725,11.645,0.223c3.041,2.043,2.493,6.227,1.902,8.93c-0.611,3.184-1.463,6.319-2.316,9.447
			c-0.775,2.844-2.565,3.264-5.229,3.96c-1.885,0.495-3.792,0.876-5.719,1.175c-4.488,0.699-9.041,0.949-13.582,0.949
			c-17.564,0-34.932-5.957-47.396-17.76c-13.52-12.852-20.032-28.035-20.032-48.647c0-19.058,7.924-35.952,19.562-47.7
			c12.41-12.519,29.555-18.781,51.441-18.781c10.525,0,22.248,2.216,26.27,6.246c5.347,5.365,0.539,39.303-0.778,44.086
			C424.415,380.84,424.278,381.453,423.543,381.813z"/>
		<path opacity="0.6" fill="#007866" d="M347.207,354.498c12.41-12.518,29.559-18.78,51.445-18.78
			c7.143,0,17.127,0.008,23.344,4.085c3.466,2.275,5.767,8.749,6.002,9.314c0-10.051-1.467-12.195-2.506-13.449
			c-3.641-4.377-15.744-6.246-26.27-6.246c-21.887,0-39.031,6.263-51.441,18.781c-11.018,11.121-18.701,26.858-19.489,44.674
			C330.394,377.662,337.508,364.291,347.207,354.498z"/>
		<g opacity="0.5">
			<path fill="#007866" d="M420.286,453.318c-2.038,0.495-4.102,0.878-6.183,1.176c-4.855,0.699-9.777,0.947-14.688,0.947
				c-18.994,0-37.771-5.957-51.252-17.758c-9.361-8.231-15.609-17.42-18.897-28.375c2.328,14.069,8.578,25.349,18.985,35.242
				c12.465,11.803,29.832,17.76,47.396,17.76c4.541,0,9.094-0.25,13.582-0.949c1.927-0.299,3.834-0.68,5.719-1.175
				c2.663-0.696,4.453-1.116,5.229-3.96c0.279-1.023,0.558-2.054,0.828-3.084C420.772,453.2,420.534,453.26,420.286,453.318z"/>
		</g>
		<circle fill="#41BB93" cx="398.331" cy="348.688" r="7.727"/>
		<circle fill="#41BB93" cx="369.427" cy="377.59" r="4.007"/>
		<circle fill="#41BB93" cx="344.246" cy="398.764" r="6.295"/>
		<circle fill="#41BB93" cx="410.349" cy="445.696" r="3.72"/>
		<circle fill="#41BB93" cx="369.999" cy="431.959" r="4.579"/>
		<circle fill="#41BB93" cx="362.558" cy="351.263" r="4.006"/>
		<circle fill="#41BB93" cx="412.925" cy="371.294" r="5.151"/>
	</g>
	<g>
		
			<radialGradient id="SVGID_1_" cx="139.8635" cy="268.3994" r="65.9221" gradientTransform="matrix(1 0 0 1.2576 0 -69.1423)" gradientUnits="userSpaceOnUse">
			<stop  offset="0.0308" style="stop-color:#E2B179"/>
			<stop  offset="1" style="stop-color:#BE894A"/>
		</radialGradient>
		<path fill="url(#SVGID_1_)" d="M149.016,244.752c-8.201-29.678-52.843-24.282-68.918,3.84
			c-15.905,27.817-6.207,69.8,19.006,89.362c37.106,28.789,76.029,2.375,78.691,1.28c4.951-2.04,9.904-3.766,15.302-3.76
			c4.18,0.003,10.349,2.061,13.736-0.823c8.552-7.286-6.227-20.585-22.003-22.286c-12.861-1.389-44.875,8.628-51.819-7.679
			c-3.81-8.958,1.377-20.455,6.16-27.375C144.942,268.961,151.973,255.462,149.016,244.752z"/>
		
			<radialGradient id="SVGID_2_" cx="139.8635" cy="268.3994" r="65.9221" gradientTransform="matrix(1 0 0 1.2576 0 -69.1423)" gradientUnits="userSpaceOnUse">
			<stop  offset="0.0308" style="stop-color:#E2B179"/>
			<stop  offset="1" style="stop-color:#BE894A"/>
		</radialGradient>
		<path fill="url(#SVGID_2_)" d="M149.016,244.752c-8.201-29.678-52.843-24.282-68.918,3.84
			c-15.905,27.817-6.207,69.8,19.006,89.362c37.106,28.789,76.029,2.375,78.691,1.28c4.951-2.04,9.904-3.766,15.302-3.76
			c4.18,0.003,10.349,2.061,13.736-0.823c8.552-7.286-6.227-20.585-22.003-22.286c-12.861-1.389-44.875,8.628-51.819-7.679
			c-3.81-8.958,1.377-20.455,6.16-27.375C144.942,268.961,151.973,255.462,149.016,244.752z"/>
		
			<radialGradient id="SVGID_3_" cx="140.4133" cy="312.7588" r="48.128" gradientTransform="matrix(1 0 0 1.2576 0 -80.5698)" gradientUnits="userSpaceOnUse">
			<stop  offset="0" style="stop-color:#732603"/>
			<stop  offset="0.3214" style="stop-color:#772C06"/>
			<stop  offset="0.7483" style="stop-color:#843D0E"/>
			<stop  offset="1" style="stop-color:#8E4A15"/>
		</radialGradient>
		<path opacity="0.1" fill="url(#SVGID_3_)" d="M177.795,339.234c4.951-2.04,9.904-3.766,15.302-3.76
			c4.18,0.003,10.349,2.061,13.736-0.823c2.953-2.517,3.124-5.748,1.431-8.974c-0.207,1.413-0.942,2.792-2.417,4.05
			c-3.385,2.883-9.556,0.823-13.734,0.819c-5.4-0.005-10.354,1.721-15.305,3.76c-2.661,1.096-41.585,27.511-78.691-1.279
			c-12.334-9.569-20.951-24.504-24.679-40.523c2.995,17.847,12.075,34.906,25.665,45.45
			C136.21,366.743,175.133,340.329,177.795,339.234z"/>
		<g>
			<path opacity="0.4" fill="#E8B185" d="M184.831,316.304c11.401,1.23,22.279,8.52,24.209,15.216
				c2.455-7.438-10.498-17.677-24.209-19.154c-12.861-1.389-44.875,8.628-51.819-7.679c-0.674-1.585-1.062-3.25-1.225-4.953
				c-0.275,3.067,0.038,6.103,1.225,8.895C139.956,324.934,171.969,314.919,184.831,316.304z"/>
		</g>
		<path fill="#DBA671" d="M149.016,248.693c0.314,1.145,0.509,2.323,0.613,3.521c0.204-2.566,0.042-5.083-0.613-7.462
			c-8.201-29.678-51.571-26.733-67.646,1.39c-5.593,9.778-9.924,22.873-8.987,35.448c1.24-10.64,2.753-20.38,7.715-29.058
			C96.173,224.411,140.815,219.016,149.016,248.693z"/>
		<path fill="#BE894A" d="M289.238,343.422c0-16.964-21.691-30.716-48.449-30.716c-26.76,0-48.453,13.752-48.453,30.716
			c0,16.963,7.826,35.586,45.769,36.534C269.734,380.748,289.238,360.385,289.238,343.422z"/>
		<radialGradient id="SVGID_4_" cx="229.385" cy="316.373" r="13.6543" gradientUnits="userSpaceOnUse">
			<stop  offset="0" style="stop-color:#732603"/>
			<stop  offset="0.3214" style="stop-color:#772C06"/>
			<stop  offset="0.7483" style="stop-color:#843D0E"/>
			<stop  offset="1" style="stop-color:#8E4A15"/>
		</radialGradient>
		<path opacity="0.1" fill="url(#SVGID_4_)" d="M244.744,320.213c2.896-0.213,4.574-3.257,2.897-5.663
			c-1.256-1.806-4.165-2.092-6.86-2.013c-1.598,0.047-3.119,0.222-4.176,0.286c-9.026,0.534-18.049,2.521-26.143,6.646
			c5.159-1.188,10.726-1.836,16.531-1.836c3.38,0,6.768,0.209,10.115,0.669C239.232,318.594,242.768,320.356,244.744,320.213z"/>
		<path fill="#BE894A" d="M253.609,385.514c6.501,0.845,11.267-3.539,12.914-9.058c0.151-0.508-0.414,5.252,5.672,5.622
			c6.197,0.379,6.966-4.47,8.925-9.131c8.307-19.79,11.17-44.842,29.747-58.173c5.772-4.142,15.092-10.488,21.409-14.024
			c10.186-5.701,22.872-13.701,26.294-25.611c-9.48-6.067-23.643-1.637-33.916,0.391c-20.487,4.04-40.68,5.04-61.389,7.159
			c-14.669,1.502-29.313,2.812-43.816,4.831c-6.32,0.88-11.151-0.043-17.469,0.88c2.915,7.753,8.604,10.065,15.048,12.63
			c9.142,3.638,17.982,12.55,24.568,19.676c6.183,6.684,5.002,14.482,4.535,23.543C245.593,354.69,237.522,383.426,253.609,385.514z
			"/>
		<radialGradient id="SVGID_5_" cx="261.7561" cy="375.3447" r="14.7205" gradientUnits="userSpaceOnUse">
			<stop  offset="0" style="stop-color:#732603"/>
			<stop  offset="0.3214" style="stop-color:#772C06"/>
			<stop  offset="0.7483" style="stop-color:#843D0E"/>
			<stop  offset="1" style="stop-color:#8E4A15"/>
		</radialGradient>
		<path opacity="0.2" fill="url(#SVGID_5_)" d="M248.305,383.313c1.493,1.25,3.39,1.953,5.303,2.2
			c6.501,0.845,11.267-3.539,12.914-9.058c0.151-0.508-0.414,5.252,5.672,5.622c1.867,0.115,3.724-0.271,5.121-1.579
			c0.61-0.574,1.065-1.264,1.471-1.991c0.348-0.621,1.218-1.862,1.057-2.591c0.061,0.262-3.114,2.284-3.46,2.431
			c-0.99,0.411-2.217,0.935-3.281,0.893c-1.915-0.073-3.183-0.1-5.027-2.174c-0.597-0.666-0.936-2.811-1.139-3.691
			c-1.788,4.772-7.979,8.084-12.21,7.126c-2.587-0.588-4.805-1.984-6.788-4.577c-1.118-1.461-3.147-6.747-3.635-10.853
			c-0.915,2.984-0.717,6.055-0.32,8.917C244.448,377.364,245.596,381.05,248.305,383.313z"/>
		<g>
			<radialGradient id="SVGID_6_" cx="296.1213" cy="345.1543" r="31.2838" gradientUnits="userSpaceOnUse">
				<stop  offset="0" style="stop-color:#732603"/>
				<stop  offset="0.3214" style="stop-color:#772C06"/>
				<stop  offset="0.7483" style="stop-color:#843D0E"/>
				<stop  offset="1" style="stop-color:#8E4A15"/>
			</radialGradient>
			<path opacity="0.17" fill="url(#SVGID_6_)" d="M281.119,372.947c8.307-19.79,11.17-44.842,29.747-58.173
				c2.647-1.898,6.036-4.259,9.542-6.599c-1.138,0.324-2.259,0.711-3.355,1.214c-3.823,1.76-14.981,1.714-19.183,1.923
				c-12.271,0.606,7.271,2.575-1.27,15.168c-9.596,14.151-13.765,33.29-19.917,47.942c-1.189,2.836-2.822,5.408-4.849,7.609
				c0.117,0.015,0.232,0.032,0.359,0.046C278.367,382.727,279.16,377.608,281.119,372.947z"/>
		</g>
		<path fill="#BE894A" d="M210.617,378.25c3.097,7.236,12.427,6.958,17.552,2.016c4.905-4.731,6.027-14.2,6.203-20.618
			c0.503-18.47-22.083-44.465-39.487-26.499c-9.736,10.049-18.585,36.162-7.72,48.212
			C194.192,389.153,206.771,389.237,210.617,378.25z"/>
		<linearGradient id="SVGID_7_" gradientUnits="userSpaceOnUse" x1="228.6248" y1="379.1104" x2="229.1395" y2="361.8673">
			<stop  offset="0" style="stop-color:#DD914B"/>
			<stop  offset="1" style="stop-color:#BE894A"/>
		</linearGradient>
		<path fill="url(#SVGID_7_)" d="M243.194,352.138c-0.284-1.425-0.755-2.773-1.538-3.991c-3.237-5.034-10.248-3.914-15.008-1.804
			c-8.898,3.945-14.792,26.352-14.792,26.352s5.531,5.939,18.709,6.869c6.415,0.452,15.001,0.181,15.001,0.181
			s-2.488-4.285-1.898-13.104C243.984,361.932,244.121,356.81,243.194,352.138z"/>
		<radialGradient id="SVGID_8_" cx="205.6077" cy="364.1025" r="23.1153" gradientUnits="userSpaceOnUse">
			<stop  offset="0" style="stop-color:#732603"/>
			<stop  offset="0.3214" style="stop-color:#772C06"/>
			<stop  offset="0.7483" style="stop-color:#843D0E"/>
			<stop  offset="1" style="stop-color:#8E4A15"/>
		</radialGradient>
		<path opacity="0.2" fill="url(#SVGID_8_)" d="M187.165,381.36c7.026,7.793,19.606,7.877,23.452-3.11
			c3.097,7.236,12.427,6.958,17.552,2.016c0.306-0.297,0.873-0.939,0.873-0.939s-9.496,0.455-17.305-6.703
			c-3.664,10.626-15.65,10.543-22.347,3.009c-7.214-8.124-5.301-22.849-0.338-34.32C182.308,353.529,178.577,371.837,187.165,381.36
			z"/>
		<path fill="#BE894A" d="M311.422,164.187c15.993,8.435,45.287,34.126,60.086,11.83c9.063-13.653,2.275-49.182-3.46-63.159
			c-7.841-19.111-19.901-36.338-43.253-23.818c-7.395,3.964-14.124,9.179-19.932,15.223c-5.573,5.795-11.813,12.541-14.031,20.409
			c-0.517,1.819-0.674,3.664-0.908,5.558c-1.233,9.937,3.893,20.63,11.283,27.035C304.333,159.975,307.765,162.257,311.422,164.187z
			"/>
		<path fill="#DBA671" d="M369.254,118.769c1.08,2.403,2.197,5.444,3.254,8.902c-1.353-5.91-2.945-11.116-4.46-14.813
			c-7.841-19.111-19.901-36.338-43.253-23.818c-7.395,3.964-14.124,9.179-19.932,15.223c-2.457,2.553-5.037,5.289-7.35,8.225
			c0.811-0.787,1.619-1.559,2.413-2.313c6.376-6.042,13.755-11.26,21.868-15.224C347.418,82.43,360.647,99.658,369.254,118.769z"/>
		<path fill="#723206" d="M369.543,165.65c7.922-11.712-7.97-69.272-27.873-67.203c-9.339,0.971-21.006,16.706-24.883,23.886
			c-9.448,17.492,8.792,28.706,21.898,38.314C346.37,166.281,361.778,177.129,369.543,165.65z"/>
		<path fill="#8E4A15" d="M366.854,165.96c6.905-10.993-6.943-65.026-24.289-63.083c-8.136,0.912-18.301,15.682-21.679,22.423
			c-8.232,16.418,7.66,26.943,19.08,35.963C346.665,166.553,360.09,176.736,366.854,165.96z"/>
		
			<radialGradient id="SVGID_9_" cx="343.6379" cy="138.7397" r="22.4879" gradientTransform="matrix(1 0 0 1.382 0 -53.0042)" gradientUnits="userSpaceOnUse">
			<stop  offset="0" style="stop-color:#732603"/>
			<stop  offset="0.3214" style="stop-color:#772C06"/>
			<stop  offset="0.7483" style="stop-color:#843D0E"/>
			<stop  offset="1" style="stop-color:#8E4A15"/>
		</radialGradient>
		<path fill="url(#SVGID_9_)" d="M366.854,165.96c6.905-10.993-6.943-65.026-24.289-63.083
			c-8.136,0.912-18.301,15.682-21.679,22.423c-8.232,16.418,7.66,26.943,19.08,35.963
			C346.665,166.553,360.09,176.736,366.854,165.96z"/>
		<radialGradient id="SVGID_10_" cx="332.8323" cy="148.7432" r="39.7743" gradientUnits="userSpaceOnUse">
			<stop  offset="0" style="stop-color:#732603"/>
			<stop  offset="0.3214" style="stop-color:#772C06"/>
			<stop  offset="0.7483" style="stop-color:#843D0E"/>
			<stop  offset="1" style="stop-color:#8E4A15"/>
		</radialGradient>
		<path opacity="0.3" fill="url(#SVGID_10_)" d="M311.422,164.187c15.993,8.435,45.287,34.126,60.086,11.83
			c3.298-4.968,4.495-12.836,4.411-21.506c-9.084-24.478-32.647-41.922-60.288-41.922c-7.222,0-14.166,1.191-20.647,3.389
			c-1.808,2.734-3.287,5.628-4.151,8.695c-0.517,1.819-0.674,3.664-0.908,5.558c-1.233,9.937,3.893,20.63,11.283,27.035
			C304.333,159.975,307.765,162.257,311.422,164.187z"/>
		<path fill="#BE894A" d="M208.162,297.256c12.655,9.15,28.022,13.969,43.304,16.345c13.211,2.053,26.538,2.346,39.871,1.506
			c55.995-3.53,93.101-38.078,100.779-71.985c1.078-4.758-10.779-19.449-10.779-22.114c0-50.173-37.009-103.186-92.383-102.321
			c-57.739,0.902-90.893,48.065-105.396,99.486c-3.856,13.669-3.502,26.122-1.28,44.784
			C183.916,276.726,196.783,289.028,208.162,297.256z"/>
		<radialGradient id="SVGID_11_" cx="210.72" cy="252.1602" r="52.0392" gradientUnits="userSpaceOnUse">
			<stop  offset="0" style="stop-color:#732603"/>
			<stop  offset="0.3214" style="stop-color:#772C06"/>
			<stop  offset="0.7483" style="stop-color:#843D0E"/>
			<stop  offset="1" style="stop-color:#8E4A15"/>
		</radialGradient>
		<path opacity="0.17" fill="url(#SVGID_11_)" d="M196.05,185c-5.125,10.542-9.27,21.752-12.491,33.171
			c-3.856,13.669-3.502,26.122-1.28,44.784c1.637,13.77,15.298,25.072,25.884,34.3c4.537,3.956,19.717,10.429,19.717,10.429
			s5.215,3.762,12.337,11.636c4.638-1.898-18.931-24.162-28.813-42.188c-7.479-13.642-3.354-28.156-6.798-34.104
			c-3.567-6.162-8.717-8.927-9.104-16.749c-0.403-8.122,1.185-16.194,1.152-24.319C196.629,196.237,196.059,190.688,196.05,185z"/>
		<path fill="#DBA671" d="M323.665,130.527c9.855,4.943,18.784,9.742,27.364,17.324c3.819,3.374,7.376,7.045,10.865,10.794
			c-16.195-23.71-41.63-40.449-72.94-39.959c-14.167,0.221-27.849,3.552-40.216,9.307c10.258-3.781,21.246-5.932,32.539-6.109
			C295.918,121.656,310.716,124.032,323.665,130.527z"/>
		<radialGradient id="SVGID_12_" cx="226.9583" cy="158.5215" r="32.9724" gradientUnits="userSpaceOnUse">
			<stop  offset="0" style="stop-color:#732603"/>
			<stop  offset="0.3214" style="stop-color:#772C06"/>
			<stop  offset="0.7483" style="stop-color:#843D0E"/>
			<stop  offset="1" style="stop-color:#8E4A15"/>
		</radialGradient>
		<path opacity="0.17" fill="url(#SVGID_12_)" d="M223.76,165.791c4.435-18.227,40.458-43.763,33.957-41.469
			c-31.166,10.998-55.836,36.995-62.3,68.544C198.879,182.589,220.178,180.521,223.76,165.791z"/>
		<path fill="#BE894A" d="M223.414,240.483c11.401-6.042,21.311-22.019,24.466-34.304c3.245-12.629,2.383-31.419-3.351-42.917
			c-4.529-9.087-9.595-13.436-19.835-20.973c-7.598-5.592-23.029-14.215-48.506-17.621c-20.645-2.76-28.028,31.89-26.987,48.267
			C152.407,223.397,182.064,262.395,223.414,240.483z"/>
		<radialGradient id="SVGID_13_" cx="181.7649" cy="228.5063" r="21.6459" gradientUnits="userSpaceOnUse">
			<stop  offset="0" style="stop-color:#732603"/>
			<stop  offset="0.3214" style="stop-color:#772C06"/>
			<stop  offset="0.7483" style="stop-color:#843D0E"/>
			<stop  offset="1" style="stop-color:#8E4A15"/>
		</radialGradient>
		<path opacity="0.17" fill="url(#SVGID_13_)" d="M205.795,246.459c0,0,0.891-4.791,0.286-8.121
			c-19.095,1.723-41.537-9.968-48.842-28.15c4.415,10.985,11.147,21.6,20.683,28.904
			C191.263,249.308,205.795,246.459,205.795,246.459z"/>
		<path fill="#DBA671" d="M178.726,129.106c26.477,3.489,42.508,12.32,50.405,18.046c4.167,3.023,6.664,3.992,4.371,2.011
			c-2.46-2.131-5.338-4.319-8.807-6.874c-7.598-5.592-23.029-14.215-48.506-17.621c-20.645-2.76-28.028,31.89-26.987,48.267
			c0.62,9.764,2.235,19.096,4.727,27.644c-1.65-6.979-2.751-14.378-3.245-22.039C149.603,161.767,157.272,126.279,178.726,129.106z"
			/>
		
			<radialGradient id="SVGID_14_" cx="257.4905" cy="276.4551" r="45.8434" gradientTransform="matrix(1 0.0021 -0.0011 0.5021 0.2956 137.105)" gradientUnits="userSpaceOnUse">
			<stop  offset="0" style="stop-color:#E6894A"/>
			<stop  offset="0.3031" style="stop-color:#E1894A"/>
			<stop  offset="0.6529" style="stop-color:#D3894A"/>
			<stop  offset="1" style="stop-color:#BE894A"/>
		</radialGradient>
		<ellipse fill="url(#SVGID_14_)" cx="257.491" cy="276.455" rx="43.124" ry="29.907"/>
		
			<radialGradient id="SVGID_15_" cx="368.092" cy="248.5361" r="19.8465" gradientTransform="matrix(1 0 0 0.8829 0 29.0921)" gradientUnits="userSpaceOnUse">
			<stop  offset="0" style="stop-color:#E6894A"/>
			<stop  offset="0.3031" style="stop-color:#E1894A"/>
			<stop  offset="0.6529" style="stop-color:#D3894A"/>
			<stop  offset="1" style="stop-color:#BE894A"/>
		</radialGradient>
		<path fill="url(#SVGID_15_)" d="M369.726,268.714c11.737-3.415,23.067-14.479,19.741-25.917
			c-3.328-11.439-15.538-17.943-27.273-14.529c-11.733,3.415-18.549,15.456-15.223,26.893
			C350.299,266.599,357.991,272.127,369.726,268.714z"/>
		
			<radialGradient id="SVGID_16_" cx="327.5706" cy="288.0039" r="19.5213" gradientTransform="matrix(1 0 0 0.6619 0 97.3865)" gradientUnits="userSpaceOnUse">
			<stop  offset="0.0962" style="stop-color:#D8894A"/>
			<stop  offset="1" style="stop-color:#BE894A"/>
		</radialGradient>
		<path fill="url(#SVGID_16_)" d="M332.943,302.487c11.845-4.393,19.042-14.438,16.073-22.438
			c-2.964-7.999-14.973-10.923-26.817-6.53c-11.844,4.393-19.042,14.438-16.072,22.438
			C309.091,303.956,321.098,306.88,332.943,302.487z"/>
		<path fill="#723206" d="M352.89,247.596c10.837,0.024,24.892-5.216,28.199-16.747c3.799-13.231-3.498-34.816-9.454-46.697
			c-7.003-13.971-23.363-25.198-39.521-19.037c-19.224,7.33-11.732,48.13-4.963,62.18
			C332.597,238.602,339.379,247.567,352.89,247.596z"/>
		
			<radialGradient id="SVGID_17_" cx="352.4797" cy="212.3877" r="27.9326" gradientTransform="matrix(0.9504 -0.3111 0.4092 1.2502 -69.4216 56.5036)" gradientUnits="userSpaceOnUse">
			<stop  offset="0" style="stop-color:#BB6B2C"/>
			<stop  offset="0.3094" style="stop-color:#B7682A"/>
			<stop  offset="0.5953" style="stop-color:#AC6024"/>
			<stop  offset="0.8712" style="stop-color:#99521B"/>
			<stop  offset="1" style="stop-color:#8E4A15"/>
		</radialGradient>
		<path fill="url(#SVGID_17_)" d="M352.823,247.596c10.458,0.024,24.017-5.033,27.209-16.16c3.666-12.766-3.372-33.593-9.119-45.057
			c-6.759-13.481-22.545-24.314-38.135-18.369c-18.547,7.071-11.319,46.44-4.791,59.997
			C333.241,238.918,339.787,247.567,352.823,247.596z"/>
		<path fill="#8E4A15" d="M192.683,219.943c7.923,3.483,8.894-12.905,10.148-19.888c2.702-15.053,14.524-23.92,12.555-31.31
			c-1.978-7.416-12.225-18.406-19.159-21.703c-5.132-2.438-19.881-8.392-24.918-4.012c-2.964,2.578-3.279,15.61-3.42,19.688
			c-0.502,14.382,1.969,28.617,8.331,41.591C179.503,211.008,185.723,216.884,192.683,219.943z"/>
		<radialGradient id="SVGID_18_" cx="245.0881" cy="278.5" r="1.5518" gradientUnits="userSpaceOnUse">
			<stop  offset="0" style="stop-color:#732603"/>
			<stop  offset="0.3214" style="stop-color:#772C06"/>
			<stop  offset="0.7483" style="stop-color:#843D0E"/>
			<stop  offset="1" style="stop-color:#8E4A15"/>
		</radialGradient>
		<path opacity="0.49" fill="url(#SVGID_18_)" d="M246.64,278.499c0,0.857-0.695,1.553-1.553,1.553c-0.854,0-1.55-0.695-1.55-1.553
			c0-0.854,0.695-1.55,1.55-1.55C245.945,276.949,246.64,277.645,246.64,278.499z"/>
		<radialGradient id="SVGID_19_" cx="382.6848" cy="240.6987" r="1.5515" gradientUnits="userSpaceOnUse">
			<stop  offset="0" style="stop-color:#732603"/>
			<stop  offset="0.3214" style="stop-color:#772C06"/>
			<stop  offset="0.7483" style="stop-color:#843D0E"/>
			<stop  offset="1" style="stop-color:#8E4A15"/>
		</radialGradient>
		<circle opacity="0.49" fill="url(#SVGID_19_)" cx="382.685" cy="240.698" r="1.552"/>
		<radialGradient id="SVGID_20_" cx="384.2434" cy="244.0527" r="1.5513" gradientUnits="userSpaceOnUse">
			<stop  offset="0" style="stop-color:#732603"/>
			<stop  offset="0.3214" style="stop-color:#772C06"/>
			<stop  offset="0.7483" style="stop-color:#843D0E"/>
			<stop  offset="1" style="stop-color:#8E4A15"/>
		</radialGradient>
		<path opacity="0.49" fill="url(#SVGID_20_)" d="M385.794,244.051c0,0.858-0.695,1.553-1.551,1.553
			c-0.857,0-1.551-0.695-1.551-1.553c0-0.854,0.693-1.551,1.551-1.551C385.099,242.5,385.794,243.197,385.794,244.051z"/>
		<radialGradient id="SVGID_21_" cx="246.7346" cy="283.4375" r="1.552" gradientUnits="userSpaceOnUse">
			<stop  offset="0" style="stop-color:#732603"/>
			<stop  offset="0.3214" style="stop-color:#772C06"/>
			<stop  offset="0.7483" style="stop-color:#843D0E"/>
			<stop  offset="1" style="stop-color:#8E4A15"/>
		</radialGradient>
		<circle opacity="0.49" fill="url(#SVGID_21_)" cx="246.734" cy="283.438" r="1.552"/>
		<path fill="#723206" d="M194.236,226.677c9.071,3.67,9.707-14.664,10.934-22.499c2.639-16.893,15.781-27.126,13.342-35.326
			c-2.448-8.23-14.363-20.225-22.309-23.715c-5.879-2.583-22.752-8.823-28.334-3.792c-3.283,2.962-3.274,17.53-3.321,22.093
			c-0.168,16.081,3.032,31.914,10.602,46.231C179.057,217.061,186.264,223.453,194.236,226.677z"/>
		
			<radialGradient id="SVGID_22_" cx="197.1365" cy="187.1963" r="23.2715" gradientTransform="matrix(0.9016 -0.4325 0.7169 1.4943 -114.8009 -7.2737)" gradientUnits="userSpaceOnUse">
			<stop  offset="0" style="stop-color:#732603"/>
			<stop  offset="0.3214" style="stop-color:#772C06"/>
			<stop  offset="0.7483" style="stop-color:#843D0E"/>
			<stop  offset="1" style="stop-color:#8E4A15"/>
		</radialGradient>
		<path fill="url(#SVGID_22_)" d="M194.951,223.074c8.008,3.285,8.568-13.121,9.649-20.134
			c2.331-15.115,13.929-24.272,11.776-31.611c-2.16-7.364-12.678-18.098-19.691-21.221c-5.19-2.312-20.083-7.896-25.009-3.394
			c-2.899,2.65-2.891,15.686-2.931,19.768c-0.148,14.39,2.678,28.558,9.359,41.371C181.554,214.469,187.916,220.188,194.951,223.074
			z"/>
		<path fill="#723206" d="M282.095,274.457c16.913-6.143,29.127-21.546,30.28-39.683c0.589-9.262-1.585-19.17-7.007-28.837
			c-8.937-15.934-25.027-29.074-43.854-27.766c-26.571,1.846-41.718,29.263-38.613,60.457c0.725,7.277,3.965,18.492,8.345,24.512
			C244.217,280.979,262.418,281.601,282.095,274.457z"/>
		<radialGradient id="SVGID_23_" cx="267.9573" cy="229.8564" r="45.7908" gradientUnits="userSpaceOnUse">
			<stop  offset="0" style="stop-color:#BB6B2C"/>
			<stop  offset="0.3094" style="stop-color:#B7682A"/>
			<stop  offset="0.5953" style="stop-color:#AC6024"/>
			<stop  offset="0.8712" style="stop-color:#99521B"/>
			<stop  offset="1" style="stop-color:#8E4A15"/>
		</radialGradient>
		<path fill="url(#SVGID_23_)" d="M281.974,274.047c16.228-5.893,27.946-20.674,29.055-38.074
			c0.563-8.885-1.522-18.393-6.724-27.667c-8.575-15.288-24.013-27.896-42.074-26.641c-25.497,1.773-40.028,28.078-37.049,58.005
			c0.696,6.982,3.805,17.742,8.005,23.519C245.632,280.303,263.096,280.899,281.974,274.047z"/>
		<path opacity="0.29" fill="#8E4A15" d="M312.889,270.917c3.135,3.24,9.664,4.461,13.641,4.024
			c7.171-0.784,10.099-3.417,12.276-5.597c1.771-1.768,2.459-3.332,3.208-5.547c0.356-1.051-0.129-2.045-0.599-2.99
			c-1.741-3.484-5.753-4.81-9.374-5.244c-1.52-0.179-2.322-0.14-2.471,1.499c-0.113,1.272-0.305,2.506-0.676,3.73
			c-0.673,2.23-2.046,4.127-3.984,5.426c-1.257,0.839-2.678,1.402-4.129,1.804c-3.956,1.1-11.641,0.236-11.183-6.267
			C309.349,265.323,310.073,268.011,312.889,270.917z"/>
		<path fill="#8E4A15" d="M330.379,264.31c3.301,3.828,12.033,1.518,14.718-3.39c-2.962,1.083-6.313,3.442-9.556,2.065
			c-3.343-1.416-3.228-5.481-5.913-7.499c-0.097,0.346-0.072,0.561,0.007,0.716c0.004-0.131,0.012-0.261,0.016-0.393l0.492,0.983
			c-0.136-0.244-0.388-0.348-0.508-0.591c-0.301,6.06-2.461,10.046-8.854,11.82c-3.956,1.1-11.641,0.236-11.183-6.267
			C306.392,276.235,327.286,273.651,330.379,264.31z"/>
		<path fill="#8E4A15" d="M330.143,256.793l-0.492-0.983c-0.004,0.132-0.012,0.262-0.016,0.393
			C329.755,256.445,330.007,256.549,330.143,256.793z"/>
		<linearGradient id="SVGID_24_" gradientUnits="userSpaceOnUse" x1="273.385" y1="368.7686" x2="276.2737" y2="328.3303">
			<stop  offset="0" style="stop-color:#DD914B"/>
			<stop  offset="1" style="stop-color:#BE894A"/>
		</linearGradient>
		<path fill="url(#SVGID_24_)" d="M278.135,364.976c3.766-5.396,5.084-9.003,6.417-13.3c2.357-7.586,8.358-17.946,4.555-25.543
			c-2.21-4.418-13.552-4.005-17.719-2.612c-4.495,1.503-10.064,6.016-9.835,10.476c0.149,2.91,2.582,10.728,3.699,16.741
			c1.189,6.414,3.137,10.543,1.79,22.172C266.802,374.972,274.495,370.191,278.135,364.976z"/>
		<g>
			<g>
				<path fill="#4D1F03" d="M201.737,298.318c9.884-12.824,27.463-17.265,42.784-18.935c0.936-0.102,0.949-1.581,0-1.476
					c-15.922,1.734-33.806,6.362-44.06,19.663C199.878,298.327,201.163,299.061,201.737,298.318z"/>
			</g>
			<g>
				<path fill="#4D1F03" d="M208.143,307.049c3.454-6.111,9.21-10.574,15.145-14.122c7.088-4.239,15.017-7.064,23.104-8.645
					c0.935-0.183,0.538-1.606-0.392-1.424c-8.509,1.662-16.687,4.744-24.13,9.195c-5.903,3.528-11.583,8.192-15.003,14.25
					C206.397,307.135,207.676,307.879,208.143,307.049z"/>
			</g>
			<g>
				<path fill="#4D1F03" d="M383.559,241.21c5.631-1.544,11.337-3.328,17.209-3.589c6.675-0.295,13.448,1.165,19.999,2.217
					c0.933,0.149,1.331-1.275,0.394-1.423c-6.702-1.077-13.569-2.486-20.393-2.271c-5.989,0.188-11.871,2.071-17.604,3.64
					C382.247,240.036,382.637,241.462,383.559,241.21z"/>
			</g>
			<g>
				<path fill="#4D1F03" d="M401.709,245.531c5.844,0.843,11.225,3.118,16.2,6.247c0.809,0.508,1.548-0.769,0.744-1.275
					c-4.915-3.095-10.146-5.287-15.878-6.291c-5.899-1.031-11.97-0.837-17.931-0.836c-0.954,0-0.954,1.479,0,1.479
					C390.465,244.851,396.13,244.728,401.709,245.531z"/>
			</g>
		</g>
		<g>
			<g>
				<path fill="#4D1F03" d="M246.659,168.901c3.035,6.392,4.441,13.543,4.484,20.59c0.006,0.952,1.484,0.952,1.479,0
					c-0.046-7.536-1.669-14.983-4.908-21.802c-2.35-4.952-7.575-10.844-13.339-11.399c-0.951-0.09-0.941,1.388,0,1.478
					C239.788,158.29,244.498,164.347,246.659,168.901z"/>
			</g>
			<g>
				<path fill="#4D1F03" d="M261.581,187.628c2.572-7.076,2.82-15.109,2.056-22.541c-0.569-5.548-2.537-12.935-7.182-16.493
					c-0.755-0.579-1.491,0.706-0.744,1.276c4.425,3.392,6.129,11,6.543,16.263c0.555,7.033,0.331,14.422-2.098,21.102
					C259.831,188.132,261.257,188.517,261.581,187.628z"/>
			</g>
			<g>
				<path fill="#4D1F03" d="M257.29,188.267c0.983-6.803-0.124-14.066-1.774-20.673c-1.778-7.115-4.919-14.895-11.187-19.191
					c-0.789-0.54-1.523,0.742-0.744,1.276c6.126,4.2,8.926,11.995,10.652,18.898c1.532,6.118,2.536,12.996,1.629,19.297
					C255.733,188.807,257.155,189.208,257.29,188.267z"/>
			</g>
			<g>
				<path fill="#4D1F03" d="M338.347,170.383c0.438-14.097-4.707-30.771-18.542-36.96c-0.822-0.366-1.538,0.847-0.712,1.217
					c13.406,5.994,18.269,22.101,17.848,35.743C336.912,171.292,338.321,171.29,338.347,170.383z"/>
			</g>
			<g>
				<path fill="#4D1F03" d="M341.717,170.563c3.254-13.574,0.35-28.029-11.176-36.684c-0.695-0.523-1.366,0.651-0.681,1.167
					c11.003,8.263,13.647,22.256,10.551,35.158C340.21,171.05,341.513,171.41,341.717,170.563z"/>
			</g>
			<g>
				<path fill="#4D1F03" d="M328.931,156.857c2.229,4.813,3.713,9.984,4.866,15.149c0.193,0.85,1.494,0.49,1.305-0.358
					c-1.267-5.655-2.974-11.225-5.471-16.464c-2.663-5.592-6.895-11.686-13.444-12.771c-0.853-0.141-1.216,1.161-0.358,1.303
					C322.462,144.813,326.332,151.244,328.931,156.857z"/>
			</g>
		</g>
		
			<radialGradient id="SVGID_25_" cx="337.2991" cy="256.0488" r="11.3783" gradientTransform="matrix(1 0 0 0.8981 0 26.0947)" gradientUnits="userSpaceOnUse">
			<stop  offset="0" style="stop-color:#CE8D54"/>
			<stop  offset="1" style="stop-color:#BE894A"/>
		</radialGradient>
		<path fill="url(#SVGID_25_)" d="M347.702,256.339c0.121-4.354-4.437-8.012-10.184-8.172c-5.746-0.161-10.505,3.237-10.624,7.589
			c-0.121,4.354,4.438,8.016,10.183,8.175C342.826,264.092,347.58,260.691,347.702,256.339z"/>
		<radialGradient id="SVGID_26_" cx="318.5305" cy="260.5176" r="10.4144" gradientUnits="userSpaceOnUse">
			<stop  offset="0" style="stop-color:#CE8D54"/>
			<stop  offset="1" style="stop-color:#BE894A"/>
		</radialGradient>
		<path fill="url(#SVGID_26_)" d="M321.583,269.104c6.019-2.139,9.531-7.718,7.846-12.46c-1.686-4.744-7.933-6.853-13.951-4.712
			c-6.018,2.141-9.531,7.719-7.846,12.459C309.318,269.134,315.565,271.244,321.583,269.104z"/>
		<path fill="#4D1F03" d="M328.698,255.722c5.213-1.223,9.827-10.042,8.908-13.459c-0.92-3.415-7.201-4.693-14.031-2.853
			c-6.831,1.84-11.623,6.098-10.703,9.513C313.79,252.337,321.814,257.336,328.698,255.722z"/>
		<g>
			<radialGradient id="SVGID_27_" cx="272.0754" cy="232.2539" r="30.4161" gradientUnits="userSpaceOnUse">
				<stop  offset="0" style="stop-color:#BE894A"/>
				<stop  offset="0.0872" style="stop-color:#C58B4E"/>
				<stop  offset="0.6901" style="stop-color:#EE9567"/>
				<stop  offset="1" style="stop-color:#FE9970"/>
			</radialGradient>
			<path opacity="0.2" fill="url(#SVGID_27_)" d="M250.233,259.199c5.5,4.146,11.778-1.643,28.562-7.72
				c18.02-6.522,23.202-5.923,25.045-12.306c1.231-4.267,0.445-9.226-1.585-14.476c-6.454-16.716-25.194-25.054-41.857-18.618
				c-16.662,6.433-24.936,25.201-18.48,41.919C243.833,252.96,246.751,256.574,250.233,259.199z"/>
			<path fill="#723206" d="M256.006,256.522c4.531,3.226,9.881-1.508,24.024-6.651c15.188-5.517,19.51-5.124,21.158-10.26
				c1.103-3.433,0.526-7.387-1.082-11.553c-5.123-13.261-20.663-19.615-34.709-14.191c-14.045,5.424-21.281,20.573-16.161,33.834
				C250.758,251.641,253.137,254.48,256.006,256.522z"/>
			<path fill="#CCCCCC" d="M258.572,254.666c4.133,2.917,9.035-1.399,21.978-6.104c13.896-5.052,17.846-4.707,19.368-9.375
				c1.016-3.121,0.5-6.709-0.96-10.488c-4.645-12.03-18.83-17.759-31.688-12.796c-12.853,4.963-19.507,18.742-14.862,30.772
				C253.786,250.243,255.955,252.819,258.572,254.666z"/>
			<radialGradient id="SVGID_28_" cx="276.5217" cy="227.6851" r="21.6598" gradientUnits="userSpaceOnUse">
				<stop  offset="0" style="stop-color:#00CC99"/>
				<stop  offset="0.9923" style="stop-color:#007866"/>
			</radialGradient>
			<path fill="url(#SVGID_28_)" d="M280.549,248.562c13.896-5.052,17.846-4.707,19.368-9.375c1.016-3.121,0.5-6.709-0.96-10.488
				c-4.645-12.03-18.83-17.759-31.688-12.796c-8.134,3.141-13.778,9.813-15.656,17.335c3.845,9.29,12.289,16.192,22.492,17.87
				C276.006,250.301,278.14,249.438,280.549,248.562z"/>
			<path d="M289.36,245.578c6.939-2.218,9.423-2.915,10.558-6.392c1.016-3.121,0.5-6.709-0.96-10.488
				c-4.645-12.03-18.83-17.759-31.688-12.796c-3.523,1.361-6.579,3.388-9.063,5.858c3.437,13.693,15.82,23.833,30.578,23.833
				C288.979,245.593,289.166,245.582,289.36,245.578z"/>
			<path opacity="0.18" fill="#F2F2F2" d="M280.549,248.562c13.896-5.052,17.846-4.707,19.368-9.375
				c1.016-3.121,0.5-6.709-0.96-10.488c-4.645-12.03-18.83-17.759-31.688-12.796c-6.96,2.688-12.093,7.967-14.604,14.145
				c3.584,10.871,13.565,18.833,25.494,19.415C278.928,249.164,279.716,248.865,280.549,248.562z"/>
			<circle opacity="0.6" fill="#F2F2F2" cx="263.416" cy="233.524" r="7.144"/>
			<circle opacity="0.6" fill="#F2F2F2" cx="277.7" cy="242.884" r="3.695"/>
		</g>
		<g>
			<radialGradient id="SVGID_29_" cx="352.3752" cy="210.542" r="23.9952" gradientUnits="userSpaceOnUse">
				<stop  offset="0" style="stop-color:#BE894A"/>
				<stop  offset="0.0872" style="stop-color:#C58B4E"/>
				<stop  offset="0.6901" style="stop-color:#EE9567"/>
				<stop  offset="1" style="stop-color:#FE9970"/>
			</radialGradient>
			<path opacity="0.2" fill="url(#SVGID_29_)" d="M354.498,230.149c15.171-1.475,19.037,0.149,21.73-4.731
				c1.801-3.261,2.184-7.532,1.672-12.316c-1.63-15.231-14.392-26.202-28.497-24.506c-14.106,1.699-24.221,15.42-22.591,30.651
				c0.485,4.521,2.008,8.144,4.162,11.073C334.38,234.946,340.369,231.525,354.498,230.149z"/>
			<path fill="#723206" d="M354.907,229.095c13.734-1.358,17.222-0.024,19.688-4.145c1.653-2.754,2.03-6.346,1.602-10.36
				c-1.369-12.781-12.834-21.898-25.606-20.362c-12.772,1.535-22.019,13.143-20.652,25.925c0.407,3.794,1.759,6.826,3.688,9.271
				C336.674,233.281,342.115,230.359,354.907,229.095z"/>
			<path fill="#CCCCCC" d="M355.619,228.064c12.566-1.245,15.756-0.038,18.02-3.779c1.514-2.499,1.86-5.758,1.472-9.401
				c-1.243-11.594-11.723-19.853-23.414-18.448c-11.688,1.405-20.159,11.944-18.915,23.539c0.367,3.442,1.601,6.191,3.364,8.407
				C338.93,231.881,343.911,229.226,355.619,228.064z"/>
			<radialGradient id="SVGID_30_" cx="355.5471" cy="208.2168" r="18.4453" gradientUnits="userSpaceOnUse">
				<stop  offset="0" style="stop-color:#00CC99"/>
				<stop  offset="0.9923" style="stop-color:#007866"/>
			</radialGradient>
			<path fill="url(#SVGID_30_)" d="M355.619,228.064c12.566-1.245,15.756-0.038,18.02-3.779c1.514-2.499,1.86-5.758,1.472-9.401
				c-1.243-11.594-11.723-19.853-23.414-18.448c-7.396,0.889-13.5,5.438-16.672,11.594c1.168,9.014,6.654,16.988,14.722,20.789
				C351.49,228.547,353.438,228.282,355.619,228.064z"/>
			<path d="M373.639,224.286c1.514-2.499,1.86-5.758,1.472-9.401c-1.243-11.594-11.723-19.853-23.414-18.448
				c-2.307,0.277-4.483,0.918-6.487,1.846c-0.063,0.766-0.104,1.537-0.104,2.319c0,12.578,8.271,23.224,19.671,26.797
				C370.048,227.095,372.069,226.877,373.639,224.286z"/>
			<path opacity="0.18" fill="#F2F2F2" d="M355.619,228.064c12.566-1.245,15.756-0.038,18.02-3.779
				c1.514-2.499,1.86-5.758,1.472-9.401c-1.243-11.594-11.723-19.853-23.414-18.448c-6.33,0.761-11.706,4.208-15.117,9.044
				c0.616,10.336,7.145,19.589,16.866,22.826C354.148,228.222,354.864,228.14,355.619,228.064z"/>
			<path opacity="0.6" fill="#F2F2F2" d="M350.611,212.616c0.851-3.456-1.102-6.984-4.359-7.888c-3.259-0.901-6.59,1.167-7.44,4.621
				c-0.851,3.453,1.101,6.984,4.356,7.886C346.429,218.136,349.759,216.07,350.611,212.616z"/>
			<path opacity="0.6" fill="#F2F2F2" d="M357.542,223.287c0.439-1.786-0.57-3.612-2.256-4.078s-3.409,0.602-3.848,2.39
				c-0.44,1.785,0.569,3.612,2.253,4.078C355.377,226.144,357.101,225.074,357.542,223.287z"/>
		</g>
		
			<ellipse transform="matrix(0.2115 0.9774 -0.9774 0.2115 493.9822 -126.7587)" fill="#8E4A15" cx="325.552" cy="242.773" rx="2.33" ry="9.262"/>
	</g>
</g>
</svg>
