<?xml version="1.0" encoding="utf-8"?>
<!-- Generator: Adobe Illustrator 15.1.0, SVG Export Plug-In . SVG Version: 6.00 Build 0)  -->
<!DOCTYPE svg PUBLIC "-//W3C//DTD SVG 1.1//EN" "http://www.w3.org/Graphics/SVG/1.1/DTD/svg11.dtd">
<svg version="1.1" id="Layer_1" xmlns="http://www.w3.org/2000/svg" xmlns:xlink="http://www.w3.org/1999/xlink" x="0px" y="0px"
	 width="512px" height="512px" viewBox="0 0 512 512" enable-background="new 0 0 512 512" xml:space="preserve">
<g>
	<g>
		<path fill="#427EBA" d="M436.3,112.196c0,18.035-5.913,32.223-17.733,42.563c-12.197,10.742-29.376,16.111-51.547,16.111
			c-7.421,0-14.838-0.175-22.232-0.745c-5.233-0.403-10.742-0.181-10.981-6.432c-0.016-0.42-1.938-50.524-1.938-50.524
			c-0.632-13.129-1.729-30.841-3.296-53.132c-0.361-5.137,2.353-6.396,7.111-6.891c9.138-0.949,18.578-1.426,28.328-1.426
			c22.224,0,39.613,4.898,52.18,14.688C429.595,76.901,436.3,92.164,436.3,112.196z M401.373,121.974
			c0-5.875-2.427-11.193-6.438-13.992c-2.102-1.458-9.877-4.2-12.068-1.768c-1.396,1.553-1.081,10.498-1.114,12.396
			c-0.099,5.444,0.067,15.578,0,18.258c-0.065,2.521-0.737,6.743,2.902,6.29c3.673-0.456,7.569-2.398,10.259-4.754
			C399.22,134.686,401.373,129.209,401.373,121.974z"/>
		<path fill="#4596D8" d="M395.198,101.877c-2.121-1.471-9.976-4.241-12.188-1.784c-1.13,1.253-1.15,7.289-1.133,10.635
			c0.142-2.074,0.428-3.891,0.986-4.514c2.191-2.434,9.969,0.31,12.068,1.768c3.746,2.614,6.11,7.429,6.406,12.841
			c0.234-1.51,0.358-3.112,0.358-4.814C401.7,110.074,399.248,104.704,395.198,101.877z"/>
		<path fill="#326EA0" d="M419.058,149.117c-12.313,10.849-29.663,16.27-52.051,16.27c-7.494,0-14.986-0.177-22.453-0.752
			c-4.82-0.372-9.875-0.22-10.903-4.984c0.095,2.458,0.149,3.972,0.152,4.044c0.239,6.251,5.748,6.028,10.981,6.432
			c7.396,0.57,14.813,0.745,22.232,0.745c22.169,0,39.35-5.369,51.545-16.111c10.643-9.308,16.492-21.732,17.557-37.273
			C434.086,130.404,428.399,140.949,419.058,149.117z"/>
		<path fill="#4596D8" d="M334.083,58.281c9.45-0.98,19.216-1.473,29.3-1.473c22.979,0,40.967,5.063,53.959,15.188
			c8.291,6.489,14.103,14.744,17.436,24.761c-2.674-12.623-8.867-22.74-18.59-30.348c-12.563-9.79-29.955-14.688-52.178-14.688
			c-9.75,0-19.19,0.477-28.328,1.426c-4.729,0.49-7.438,1.737-7.119,6.788C329.833,58.96,331.713,58.528,334.083,58.281z"/>
		<circle fill="#4596D8" cx="358.421" cy="90.942" r="6.612"/>
		<circle fill="#4596D8" cx="411.828" cy="88.907" r="5.596"/>
		<circle fill="#4596D8" cx="365.543" cy="155.03" r="4.068"/>
		<circle fill="#4596D8" cx="422.509" cy="123.495" r="5.595"/>
		<circle fill="#4596D8" cx="347.487" cy="131.887" r="7.375"/>
		<circle fill="#4596D8" cx="381.566" cy="71.868" r="3.814"/>
		<circle fill="#4596D8" cx="406.742" cy="142.568" r="3.814"/>
		<circle fill="#4596D8" cx="342.149" cy="70.087" r="3.004"/>
	</g>
	<g>
		
			<linearGradient id="SVGID_1_" gradientUnits="userSpaceOnUse" x1="154.9368" y1="663.6533" x2="209.8744" y2="681.5679" gradientTransform="matrix(1 0 0 1 -83.2002 -328.9805)">
			<stop  offset="0" style="stop-color:#00C7F7"/>
			<stop  offset="0.0933" style="stop-color:#09BFEF"/>
			<stop  offset="0.4692" style="stop-color:#29A5D2"/>
			<stop  offset="0.7848" style="stop-color:#3D95C0"/>
			<stop  offset="1" style="stop-color:#448FBA"/>
		</linearGradient>
		<path fill="url(#SVGID_1_)" d="M136.52,401.215c1.361,0.066,2.703,0.086,4.024,0.064c-0.604,0.017-15.305-19.486-16.963-21.805
			c-8.229-11.479-17.658-27.498-20.558-41.787c-3.126-15.429,1.631-27.352-0.834-42.773c-9.804,7.6-17.38,16.764-21.609,27.268
			c-6.365,15.795-6.087,29.924-1.563,47.606C84.858,392.596,113.986,400.148,136.52,401.215z"/>
		
			<linearGradient id="SVGID_2_" gradientUnits="userSpaceOnUse" x1="458.468" y1="561.5605" x2="451.714" y2="667.3743" gradientTransform="matrix(1 0 0 1 -83.2002 -328.9805)">
			<stop  offset="0" style="stop-color:#00C7F7"/>
			<stop  offset="0.0933" style="stop-color:#09BFEF"/>
			<stop  offset="0.4692" style="stop-color:#29A5D2"/>
			<stop  offset="0.7848" style="stop-color:#3D95C0"/>
			<stop  offset="1" style="stop-color:#448FBA"/>
		</linearGradient>
		<path fill="url(#SVGID_2_)" d="M328.322,246.846c24.061-33.437,43.506-3.907,45.967,25.572c10.67-5.966,30.656-13.464,42.77-8.413
			c27.762,11.573-3.188,51.882-17.299,60.269c-25.76,15.313-57.061,17.58-73.676-4.465
			C310.616,299.28,313.931,266.845,328.322,246.846z"/>
		
			<linearGradient id="SVGID_3_" gradientUnits="userSpaceOnUse" x1="483.9768" y1="659.6074" x2="471.3005" y2="641.0813" gradientTransform="matrix(1 0 0 1 -83.2002 -328.9805)">
			<stop  offset="0" style="stop-color:#0074B8"/>
			<stop  offset="0.4822" style="stop-color:#0077BA;stop-opacity:0.5178"/>
			<stop  offset="0.8533" style="stop-color:#0081C2;stop-opacity:0.1467"/>
			<stop  offset="1" style="stop-color:#0087C7;stop-opacity:0"/>
		</linearGradient>
		<path fill="url(#SVGID_3_)" d="M427.241,273.841c-1.029,17.208-19.947,39.452-30.316,45.593
			c-21.135,12.521-45.754,16.834-64.008,7.483c17.473,14.171,44.279,10.771,66.842-2.644
			C411.064,317.555,433.171,290.346,427.241,273.841z"/>
		
			<linearGradient id="SVGID_4_" gradientUnits="userSpaceOnUse" x1="426.2668" y1="559.9717" x2="421.5948" y2="633.1674" gradientTransform="matrix(1 0 0 1 -83.2002 -328.9805)">
			<stop  offset="0" style="stop-color:#48D5F7"/>
			<stop  offset="1" style="stop-color:#00AFEA"/>
		</linearGradient>
		<path fill="url(#SVGID_4_)" d="M328.322,246.966c0.334-0.468,0.742-0.898,1.109-1.341c1.494-1.792,3-3.575,4.59-5.278
			c1.391-1.485,2.844-2.915,4.436-4.178c1.309-1.037,2.711-1.963,4.227-2.652c1.285-0.584,2.646-0.992,4.045-1.187
			c1.291-0.181,2.605-0.184,3.898-0.034c1.27,0.146,2.52,0.436,3.729,0.86c1.219,0.429,2.385,0.998,3.467,1.702
			c1.137,0.742,2.076,1.729,3.104,2.616c1.973,1.709,4.797,6.254,5.23,7.372c-0.76-0.444-1.477-0.922-2.199-1.431
			c-2.9-2.032-6.055-3.729-9.357-4.996c-7.641-2.935-15.078,3.489-19.973,8.66c-11.092,11.72-15.205,29.625-15.516,44.857
			c-0.105,5.151,0.021,9.72,0.598,15.898c-1.557-2.887-2.734-9.391-3.096-11.313C313.476,279.905,318.54,260.557,328.322,246.966z"
			/>
		
			<linearGradient id="SVGID_5_" gradientUnits="userSpaceOnUse" x1="483.0891" y1="598.2793" x2="441.3631" y2="624.4561" gradientTransform="matrix(1 0 0 1 -83.2002 -328.9805)">
			<stop  offset="0" style="stop-color:#48D5F7"/>
			<stop  offset="1" style="stop-color:#00AFEA"/>
		</linearGradient>
		<path fill="url(#SVGID_5_)" d="M350.532,299.58c5.295-22.08,36.26-33.565,46.508-35.896c3.754-0.852,7.584-1.328,11.438-1.147
			c1.84,0.086,3.797,0.274,5.564,0.823c3.133,0.977,6.508,2.515,8.568,4.307c-8.305-3.102-17.643-1.677-27.432,0.651
			C388.697,269.858,361.116,279.176,350.532,299.58z"/>
		
			<linearGradient id="SVGID_6_" gradientUnits="userSpaceOnUse" x1="287.9885" y1="683.8643" x2="380.6545" y2="650.8322" gradientTransform="matrix(1 0 0 1 -83.2002 -328.9805)">
			<stop  offset="0" style="stop-color:#448FBA"/>
			<stop  offset="0.2152" style="stop-color:#3D95C0"/>
			<stop  offset="0.5308" style="stop-color:#29A5D2"/>
			<stop  offset="0.9067" style="stop-color:#09BFEF"/>
			<stop  offset="1" style="stop-color:#00C7F7"/>
		</linearGradient>
		<path fill="url(#SVGID_6_)" d="M287.181,315.002c2.469,6.631-4.102,17.417-8.184,22.941
			c-9.074,12.293-28.506,23.932-45.008,23.879c-10.904-0.035-28.212-8.074-26.285-20.771c2.066-13.613,23.576-11.91,34.283-15.229
			c9.77-3.032,30.176-20.098,41.068-15.063C285.224,311.762,286.525,313.232,287.181,315.002z"/>
		
			<linearGradient id="SVGID_7_" gradientUnits="userSpaceOnUse" x1="362.0198" y1="641.9688" x2="316.3644" y2="690.419" gradientTransform="matrix(1 0 0 1 -83.2002 -328.9805)">
			<stop  offset="0" style="stop-color:#0087C7;stop-opacity:0"/>
			<stop  offset="0.4887" style="stop-color:#007BBE;stop-opacity:0.4887"/>
			<stop  offset="1" style="stop-color:#0074B8"/>
		</linearGradient>
		<path fill="url(#SVGID_7_)" d="M287.044,315.206c2.396,7.121-5.504,19.294-8.045,22.737c-6.197,8.396-15.305,14.854-24.748,19.086
			c-6.197,2.777-15.941,6.998-22.664,3.947c-4.156-1.889-4.447-8.021-4.102-11.887c0.211-2.322,0.646-5.021,1.855-7.064
			c1.346-2.278,3.77-3.328,3.834-6.254c2.318,2.166,6.73,1.806,9.754,2.381c14.57,2.781,26.041,2.632,36.738-8.986
			c3.361-3.652,5.398-9.54,7.084-14.15C286.855,315.076,287.009,315.1,287.044,315.206z"/>
		
			<linearGradient id="SVGID_8_" gradientUnits="userSpaceOnUse" x1="331.8938" y1="640.2949" x2="322.1037" y2="665.4684" gradientTransform="matrix(1 0 0 1 -83.2002 -328.9805)">
			<stop  offset="0" style="stop-color:#48D5F7"/>
			<stop  offset="1" style="stop-color:#00AFEA"/>
		</linearGradient>
		<path opacity="0.46" fill="url(#SVGID_8_)" enable-background="new    " d="M211.164,351.424
			c0.564-15.236,24.438-16.078,35.806-21.08c7.631-3.361,20.648-15.809,32.029-20.486c-11.35-0.418-28.355,13.277-37.012,15.966
			c-10.705,3.317-32.216,1.614-34.282,15.229c-0.634,4.189,0.833,7.868,3.466,10.924
			C211.171,351.789,211.157,351.611,211.164,351.424z"/>
		
			<linearGradient id="SVGID_9_" gradientUnits="userSpaceOnUse" x1="188.0164" y1="550.3203" x2="406.6258" y2="727.1194" gradientTransform="matrix(1 0 0 1 -83.2002 -328.9805)">
			<stop  offset="0" style="stop-color:#00C7F7"/>
			<stop  offset="0.0933" style="stop-color:#09BFEF"/>
			<stop  offset="0.4692" style="stop-color:#29A5D2"/>
			<stop  offset="0.7848" style="stop-color:#3D95C0"/>
			<stop  offset="1" style="stop-color:#448FBA"/>
		</linearGradient>
		<path fill="url(#SVGID_9_)" d="M351.798,310.88c16.809,15.3-9.1,54.981-18.152,67.886
			c-24.604,35.082-66.262,55.771-108.818,55.771c-72.67,0-131.582-57.257-131.582-127.889c0-60.273,48.012-122.04,112.109-105.164
			c17.824,4.693,24.063,23.021,43.002,14.305c16.021-7.373,26.607-20.269,35.313-0.716c5.566,12.516-24.719,63.189-34.42,82.517
			c-7.154,14.256-25.711,29.02-10.717,41.875c13.977,11.985,39.301,14.241,55.883,9.036c27.188-8.532,40.947-41.501,56.467-38.396
			C351.279,310.184,351.507,310.615,351.798,310.88z"/>
		
			<linearGradient id="SVGID_10_" gradientUnits="userSpaceOnUse" x1="160.2498" y1="617.0527" x2="208.9735" y2="632.9163" gradientTransform="matrix(1 0 0 1 -83.2002 -328.9805)">
			<stop  offset="0" style="stop-color:#8DE2F7"/>
			<stop  offset="0.2184" style="stop-color:#7DDCF6"/>
			<stop  offset="0.6427" style="stop-color:#54CDF2"/>
			<stop  offset="1" style="stop-color:#2CBFEE"/>
		</linearGradient>
		<path fill="url(#SVGID_10_)" d="M153.694,415.939c-12.176-16.066-40.609-42.854-47.77-103.105
			c-3.624-30.493,3.833-57.039,21.926-83.289c5.515-7.997,12.063-15.313,19.573-21.475c-33.002,17.873-54.182,58.55-54.182,98.578
			C93.243,351.134,117.89,390.843,153.694,415.939z"/>
		
			<linearGradient id="SVGID_11_" gradientUnits="userSpaceOnUse" x1="335.4817" y1="535.7002" x2="317.794" y2="562.5007" gradientTransform="matrix(1 0 0 1 -83.2002 -328.9805)">
			<stop  offset="0" style="stop-color:#48D5F7"/>
			<stop  offset="1" style="stop-color:#00AFEA;stop-opacity:0"/>
		</linearGradient>
		<path opacity="0.4" fill="url(#SVGID_11_)" enable-background="new    " d="M270.847,207.331c-1.941,0.975-3.92,2.066-4.289,2.308
			c-3.248,2.125-6.518,4.227-9.881,6.162c-3.549,2.042-7.432,3.966-11.229,5.455c-8.053,3.161-19.189,5.537-27.776,3.546
			c4.896-0.602,9.776-1.235,14.62-2.675c5.32-1.583,10.977-4.095,16.063-6.337c7.133-3.146,13.695-8.203,19.979-10.335
			c1.652-0.563,4.684-1.252,7.449,0.013C275.591,205.2,272.827,206.341,270.847,207.331z"/>
		
			<linearGradient id="SVGID_12_" gradientUnits="userSpaceOnUse" x1="269.4319" y1="725.5967" x2="287.4995" y2="767.8328" gradientTransform="matrix(1 0 0 1 -83.2002 -328.9805)">
			<stop  offset="0" style="stop-color:#0074B8"/>
			<stop  offset="0.4822" style="stop-color:#0077BA;stop-opacity:0.5178"/>
			<stop  offset="0.8533" style="stop-color:#0081C2;stop-opacity:0.1467"/>
			<stop  offset="1" style="stop-color:#0087C7;stop-opacity:0"/>
		</linearGradient>
		<path fill="url(#SVGID_12_)" d="M212.686,421.063c2.875,3.199,6.069,6.107,9.481,8.649c1.313,0.978,4.891,2.836,4.916,4.793
			c-2.139,0.103-5.654-0.039-8.266-0.123c-2.736-0.088-6.075-0.334-9.094-0.663c-4.671-0.516-9.646-1.365-14.351-2.4
			c-6.565-1.443-18.457-2.814-22.717-8.842c-2.793-3.951-0.494-10.569-0.021-14.973c0.187-1.697,0.063-4.498,1.183-5.895
			c0.927-1.152,3.106-2.123,4.397-2.771c4.198-2.109,11.279-4.786,15.992-3.148c3.41,1.186,5.337,6.526,7.273,9.276
			c2.195,3.109,3.977,6.515,6.13,9.656C209.156,416.875,210.856,419.025,212.686,421.063z"/>
		
			<linearGradient id="SVGID_13_" gradientUnits="userSpaceOnUse" x1="257.3723" y1="627.8037" x2="427.3606" y2="627.8037" gradientTransform="matrix(1 0 0 1 -83.2002 -328.9805)">
			<stop  offset="0" style="stop-color:#D4F3FC"/>
			<stop  offset="1" style="stop-color:#8BDAFC"/>
		</linearGradient>
		<path fill="url(#SVGID_13_)" d="M251.253,298.486c-10.693,16.539-28.07,27.593-10.887,41.816
			c14.182,11.738,37.514,12.752,54.047,7.361c15.949-5.209,31.895-22.77,37.648-27.416c14.859-12.006,15.064-0.169,5.859,10.313
			c-11.348,12.929-23.748,24.941-37.916,34.736c-29.029,20.073-64.813,28.133-97.227,10.778
			c-23.351-12.505-34.906-39.647-25.111-65.118c4.852-12.607,19.291-32.198,28.371-32.198c12.753,0,14.057,1.176,26.496-5.308
			c28.16-14.678,34.391-48.74,45.9-59.004c2.006-1.789,3.521-3.031,4.291-2.028c3.789,4.919,1.277,15.885-4.291,29.742
			C268.913,265.856,254.382,293.646,251.253,298.486z"/>
		
			<linearGradient id="SVGID_14_" gradientUnits="userSpaceOnUse" x1="248.0813" y1="628.1104" x2="341.6462" y2="706.4437" gradientTransform="matrix(1 0 0 1 -83.2002 -328.9805)">
			<stop  offset="0" style="stop-color:#FFFFFF"/>
			<stop  offset="0.8559" style="stop-color:#FFFFFF;stop-opacity:0.1441"/>
			<stop  offset="1" style="stop-color:#FFFFFF;stop-opacity:0"/>
		</linearGradient>
		<path fill="url(#SVGID_14_)" d="M208.825,372.326c-23.729-12.707-35.475-40.287-25.521-66.17
			c3.373-8.764,8.914-17.129,15.271-23.997c0.267-0.288,0.563-0.57,0.872-0.852c-8.363,5.71-17.993,19.811-21.78,29.651
			c-9.795,25.471,1.763,52.613,25.111,65.118c28.522,15.272,59.657,10.856,86.505-4.101
			C263.794,383.998,235.21,386.455,208.825,372.326z"/>
		
			<linearGradient id="SVGID_15_" gradientUnits="userSpaceOnUse" x1="203.6863" y1="759.1318" x2="320.9783" y2="711.4546" gradientTransform="matrix(1 0 0 1 -83.2002 -328.9805)">
			<stop  offset="0" style="stop-color:#00C7F7"/>
			<stop  offset="0.0933" style="stop-color:#09BFEF"/>
			<stop  offset="0.4692" style="stop-color:#29A5D2"/>
			<stop  offset="0.7848" style="stop-color:#3D95C0"/>
			<stop  offset="1" style="stop-color:#448FBA"/>
		</linearGradient>
		<path fill="url(#SVGID_15_)" d="M131.794,454.416c1.726,7.169,8.479,8.974,25.534-1.524c16.156-9.944,38.563-32.431,38.831-52.386
			c0.273-20.732-34.603-34.675-48.179-17.912c-6.323,7.809-6.438,22.166-8.826,31.396
			C135.996,426.186,129.519,444.965,131.794,454.416z"/>
		
			<linearGradient id="SVGID_16_" gradientUnits="userSpaceOnUse" x1="272.0344" y1="728.5713" x2="232.7433" y2="786.2805" gradientTransform="matrix(1 0 0 1 -83.2002 -328.9805)">
			<stop  offset="0" style="stop-color:#0074B8"/>
			<stop  offset="0.465" style="stop-color:#0079BC;stop-opacity:0.535"/>
			<stop  offset="1" style="stop-color:#0087C7;stop-opacity:0"/>
		</linearGradient>
		<path fill="url(#SVGID_16_)" d="M195.66,396.089c-4.266,20.228-26.079,42.354-43.021,54.175
			c-8.094,5.647-11.002,7.604-19.001,7.94c3.233,3.587,10.273,2.946,23.688-5.313c16.154-9.945,38.563-32.431,38.831-52.386
			C196.181,398.992,195.992,397.521,195.66,396.089z"/>
		
			<linearGradient id="SVGID_17_" gradientUnits="userSpaceOnUse" x1="204.3137" y1="759.1152" x2="236.4795" y2="746.0404" gradientTransform="matrix(1 0 0 1 -83.2002 -328.9805)">
			<stop  offset="0" style="stop-color:#48D5F7"/>
			<stop  offset="1" style="stop-color:#00AFEA"/>
		</linearGradient>
		<path fill="url(#SVGID_17_)" d="M142.863,416.807c1.729-9.729,2.698-25.57,4.999-34.045c-6.197,7.844-6.333,22.063-8.707,31.229
			c-3.158,12.194-9.637,30.975-7.36,40.426c0.735,3.055,2.387,5.126,5.353,5.7C135.757,447.785,140.51,430.087,142.863,416.807z"/>
		<path fill="#046EA3" d="M156.952,220.955c-1.447,2.609-4.212,4.074-5.613,6.718c-0.779,1.466-3.563,7.208-2.728,8.688
			c-2.827-5.011,0.967-14.232,5.065-17.41C156.032,217.123,158.741,217.728,156.952,220.955z"/>
		
			<linearGradient id="SVGID_18_" gradientUnits="userSpaceOnUse" x1="274.5168" y1="557.7266" x2="258.4564" y2="595.5611" gradientTransform="matrix(1 0 0 1 -83.2002 -328.9805)">
			<stop  offset="0" style="stop-color:#CCCCCC"/>
			<stop  offset="1" style="stop-color:#F2F2F2"/>
		</linearGradient>
		<path fill="url(#SVGID_18_)" d="M171.433,265.872c-5.188-0.53-7.777-9.666-8.214-13.716c-0.678-6.333-0.006-13.184,3.324-18.727
			c7.269-12.101,23.783-12.498,33.135-2.544c4.492,4.78,5.558,11.232,6.315,17.507c-6.934-0.574-13.471,0.826-19.62,4.111
			c-3.067,1.636-5.529,3.936-7.745,6.591C177.057,260.973,174.311,266.165,171.433,265.872z"/>
		<path fill="#046EA3" d="M165.35,234.628c-0.364,0.608-0.687,1.239-0.989,1.876c2.229,9.122,9.243,16.35,18.228,18.86
			c0.821-0.604,1.742-1.822,2.66-2.314c6.15-3.286,13.48-5.646,20.41-5.072c-0.762-6.273-2.68-11.11-7.173-15.895
			C189.134,222.129,172.619,222.527,165.35,234.628z"/>
		<path fill="#009CFC" d="M166.544,233.431c-0.367,0.608-0.688,1.239-0.99,1.877c2.229,9.122,9.247,16.351,18.227,18.86
			c0.819-0.604,1.676-1.172,2.596-1.663c6.151-3.285,12.688-4.687,19.62-4.111c-0.76-6.273-1.823-12.727-6.315-17.507
			C190.327,220.933,173.812,221.33,166.544,233.431z"/>
		<path fill="#0B0146" d="M173.23,226.68c1.905,11.223,10.453,20.166,21.447,22.626c3.649-0.911,7.418-1.233,11.316-0.912
			c-0.762-6.273-1.823-12.727-6.315-17.507C192.594,223.346,181.405,221.753,173.23,226.68z"/>
		<path fill="#046EA3" d="M281.019,212.118c-12.752,8.169-15.721,22.399-23.59,34.542c-10.494,16.189-30.711,37.521-52.213,30.59
			c-0.801-0.259-2.716,0.913-1.391,1.341c17.211,5.547,35.051-6.744,46.117-18.974c6.678-7.379,11.865-15.9,16.115-24.86
			c4.178-8.811,7.992-16.453,16.414-21.851c0.207-0.132,0.291-0.272,0.303-0.407c0.029-0.487-0.91-0.943-0.91-0.943
			S281.247,211.971,281.019,212.118L281.019,212.118z"/>
		<path fill="#046EA3" d="M189.96,284.317c5.673-0.461,11.074-2.561,15.277-6.459c3.377-3.135,6.861-8.229,4.645-12.922
			c-0.335-0.719-2.577,0.041-2.302,0.619c4.333,9.184-9.676,17.021-16.688,17.596C190.152,283.212,188.427,284.442,189.96,284.317
			L189.96,284.317z"/>
		<path fill="#046EA3" d="M188.932,224.498c-6.346-2.116-12.256-1.116-17.609,3.111c-3.202,2.532-5.455,5.677-7.564,9.133
			c-3.098,5.076-10.175,11.395-17.039,10.032c-0.778-0.153-3.166,0.228-2.159,0.598c5.13,1.889,11.314-0.984,15.565-3.822
			c3.095-2.065,5.354-4.773,7.362-7.828C177.835,219.974,188.932,224.498,188.932,224.498z"/>
		<path fill="#046EA3" d="M162.829,240.096c-1.658,3.214-2.156,6.81-3.973,9.966c-2.491,4.335-6.611,7.496-11.594,8.197
			c-1.152,0.163-1.869,1.622-0.282,1.401c4.104-0.58,7.521-2.269,10.566-5.08c4.41-4.072,4.846-9.346,7.443-14.372
			C165.533,239.163,163.208,239.359,162.829,240.096L162.829,240.096z"/>
		<path fill="#046EA3" d="M163.428,238.96c-1.52,5.169-2.304,10.177-1.945,15.552c0.536,8.059-1.495,15.368-9.295,19.197
			c-1.438,0.708-0.111,1.423,0.904,0.927c4.374-2.15,7.354-5.138,9.45-9.574c1.347-2.848,1.493-5.974,1.404-9.057
			c-0.178-6.108,0.053-11.448,1.784-17.342C165.968,237.856,163.655,238.189,163.428,238.96L163.428,238.96z"/>
		
			<linearGradient id="SVGID_19_" gradientUnits="userSpaceOnUse" x1="306.1584" y1="646.6982" x2="310.9457" y2="683.8" gradientTransform="matrix(1 0 0 1 -83.2002 -328.9805)">
			<stop  offset="0" style="stop-color:#8BDAFC"/>
			<stop  offset="1" style="stop-color:#ABE5FC;stop-opacity:0"/>
		</linearGradient>
		<path fill="url(#SVGID_19_)" d="M239.195,339.445c-4.588-4.662-5.066-6.979-5.426-8.072c-0.861-2.667-1.129-4.665,0.74-9.486
			c-1.479,1.608-1.73,2.264-4.49,4.079c-3.326,2.195-7.076,4.345-13.666,5.736c-4.479,0.944-15.471,1.254-18.021,1.042
			c3.466,6.257,17.559,12.952,21.405,14.419c13.719,5.237,27.951,3.265,33.586,0.004
			C248.615,346.402,241.601,341.895,239.195,339.445z"/>
		<path fill="#177199" d="M268.079,217.798c-0.396,0.615-1.303,0.736-2.027,0.269c-0.729-0.467-0.992-1.347-0.598-1.963
			c0.395-0.614,1.301-0.733,2.025-0.268C268.206,216.303,268.474,217.182,268.079,217.798z"/>
		<ellipse fill="#EBF2FC" cx="176.572" cy="233.286" rx="2.36" ry="2.37"/>
		<ellipse fill="#EBF2FC" cx="189.973" cy="241.787" rx="4.142" ry="4.152"/>
		
			<linearGradient id="SVGID_20_" gradientUnits="userSpaceOnUse" x1="397.2073" y1="664.8027" x2="418.5287" y2="648.7035" gradientTransform="matrix(1 0 0 1 -83.2002 -328.9805)">
			<stop  offset="0" style="stop-color:#FFFFFF"/>
			<stop  offset="0.8559" style="stop-color:#FFFFFF;stop-opacity:0.1441"/>
			<stop  offset="1" style="stop-color:#FFFFFF;stop-opacity:0"/>
		</linearGradient>
		<path opacity="0.32" fill="url(#SVGID_20_)" enable-background="new    " d="M340.187,315.598
			c0.123-0.097,0.232-0.181,0.354-0.274c-1.967,0.416-4.768,1.927-8.479,4.929c-4.275,3.457-14.188,14.043-25.547,21.391
			C321.111,334.906,334.894,319.875,340.187,315.598z"/>
		<path opacity="0.46" fill="#48D5F7" enable-background="new    " d="M174.25,266.187c2.417-1.088,3.114-1.447,4.601-3.62
			c3.003-4.392,7.117-8.212,12.052-10.229c4.933-2.012,13.841-4.366,19.223-1.604c-0.229-0.248-0.484-0.484-0.789-0.702
			c-5.198-3.714-14.995-1.175-20.261,0.975c-5.706,2.33-9.894,6.77-13.176,11.91c-1.205,1.89-3.62,2.778-4.687,4.383
			c-0.131,0.194-0.22,0.388-0.292,0.579C172.003,267.106,173.445,266.548,174.25,266.187z"/>
		
			<radialGradient id="SVGID_21_" cx="204.0452" cy="635.5547" r="11.7" gradientTransform="matrix(1.0478 0 0 1.0511 -98.3281 -345.1873)" gradientUnits="userSpaceOnUse">
			<stop  offset="0" style="stop-color:#FFFFFF"/>
			<stop  offset="0.8559" style="stop-color:#FFFFFF;stop-opacity:0.1441"/>
			<stop  offset="1" style="stop-color:#FFFFFF;stop-opacity:0"/>
		</radialGradient>
		<ellipse opacity="0.18" fill="url(#SVGID_21_)" enable-background="new    " cx="115.471" cy="322.845" rx="12.259" ry="12.298"/>
		
			<radialGradient id="SVGID_22_" cx="233.6848" cy="624.3438" r="7.3113" gradientTransform="matrix(1.0478 0 0 1.0511 -98.3281 -345.1873)" gradientUnits="userSpaceOnUse">
			<stop  offset="0" style="stop-color:#FFFFFF"/>
			<stop  offset="0.8559" style="stop-color:#FFFFFF;stop-opacity:0.1441"/>
			<stop  offset="1" style="stop-color:#FFFFFF;stop-opacity:0"/>
		</radialGradient>
		<ellipse opacity="0.2" fill="url(#SVGID_22_)" enable-background="new    " cx="146.528" cy="311.061" rx="7.66" ry="7.685"/>
		
			<radialGradient id="SVGID_23_" cx="222.7649" cy="655.543" r="7.303" gradientTransform="matrix(1.0478 0 0 1.0511 -98.3281 -345.1873)" gradientUnits="userSpaceOnUse">
			<stop  offset="0" style="stop-color:#0074B8"/>
			<stop  offset="0.4822" style="stop-color:#0077BA;stop-opacity:0.5178"/>
			<stop  offset="0.8533" style="stop-color:#0081C2;stop-opacity:0.1467"/>
			<stop  offset="1" style="stop-color:#0087C7;stop-opacity:0"/>
		</radialGradient>
		<ellipse opacity="0.44" fill="url(#SVGID_23_)" enable-background="new    " cx="135.085" cy="343.854" rx="7.662" ry="7.685"/>
		
			<radialGradient id="SVGID_24_" cx="488.9084" cy="607.0664" r="4.3775" gradientTransform="matrix(1.0478 0 0 1.0511 -98.3281 -345.1873)" gradientUnits="userSpaceOnUse">
			<stop  offset="0" style="stop-color:#0074B8"/>
			<stop  offset="0.4822" style="stop-color:#0077BA;stop-opacity:0.5178"/>
			<stop  offset="0.8533" style="stop-color:#0081C2;stop-opacity:0.1467"/>
			<stop  offset="1" style="stop-color:#0087C7;stop-opacity:0"/>
		</radialGradient>
		<ellipse opacity="0.44" fill="url(#SVGID_24_)" enable-background="new    " cx="413.964" cy="292.89" rx="4.584" ry="4.6"/>
		
			<radialGradient id="SVGID_25_" cx="409.97" cy="670.7773" r="5.9302" gradientTransform="matrix(1.0478 0 0 1.0511 -98.3281 -345.1873)" gradientUnits="userSpaceOnUse">
			<stop  offset="0" style="stop-color:#0074B8"/>
			<stop  offset="0.4822" style="stop-color:#0077BA;stop-opacity:0.5178"/>
			<stop  offset="0.8533" style="stop-color:#0081C2;stop-opacity:0.1467"/>
			<stop  offset="1" style="stop-color:#0087C7;stop-opacity:0"/>
		</radialGradient>
		<path opacity="0.44" fill="url(#SVGID_25_)" enable-background="new    " d="M337.466,359.867c0,3.449-2.791,6.244-6.227,6.244
			c-3.439,0-6.229-2.795-6.229-6.244c0-3.448,2.787-6.244,6.229-6.244C334.675,353.623,337.466,356.419,337.466,359.867z"/>
		
			<radialGradient id="SVGID_26_" cx="405.1858" cy="689.4199" r="3.7622" gradientTransform="matrix(1.0478 0 0 1.0511 -98.3281 -345.1873)" gradientUnits="userSpaceOnUse">
			<stop  offset="0" style="stop-color:#FFFFFF"/>
			<stop  offset="0.8559" style="stop-color:#FFFFFF;stop-opacity:0.1441"/>
			<stop  offset="1" style="stop-color:#FFFFFF;stop-opacity:0"/>
		</radialGradient>
		<ellipse opacity="0.2" fill="url(#SVGID_26_)" enable-background="new    " cx="326.236" cy="379.45" rx="3.943" ry="3.955"/>
		
			<radialGradient id="SVGID_27_" cx="492.6458" cy="592.0879" r="4.2285" gradientTransform="matrix(1.0478 0 0 1.0511 -98.3281 -345.1873)" gradientUnits="userSpaceOnUse">
			<stop  offset="0" style="stop-color:#FFFFFF"/>
			<stop  offset="0.8559" style="stop-color:#FFFFFF;stop-opacity:0.1441"/>
			<stop  offset="1" style="stop-color:#FFFFFF;stop-opacity:0"/>
		</radialGradient>
		<path opacity="0.2" fill="url(#SVGID_27_)" enable-background="new    " d="M422.31,277.147c0,2.453-1.986,4.44-4.432,4.44
			c-2.447,0-4.43-1.987-4.43-4.44c0-2.455,1.98-4.444,4.43-4.444C420.323,272.703,422.31,274.692,422.31,277.147z"/>
		
			<radialGradient id="SVGID_28_" cx="210.2844" cy="603.5771" r="4.5625" gradientTransform="matrix(1.0478 0 0 1.0511 -98.3281 -345.1873)" gradientUnits="userSpaceOnUse">
			<stop  offset="0" style="stop-color:#FFFFFF"/>
			<stop  offset="0.8559" style="stop-color:#FFFFFF;stop-opacity:0.1441"/>
			<stop  offset="1" style="stop-color:#FFFFFF;stop-opacity:0"/>
		</radialGradient>
		<path opacity="0.26" fill="url(#SVGID_28_)" enable-background="new    " d="M126.797,289.234c0,2.652-2.144,4.802-4.788,4.802
			c-2.646,0-4.789-2.149-4.789-4.802c0-2.654,2.146-4.806,4.789-4.806C124.654,284.431,126.797,286.58,126.797,289.234z"/>
		
			<radialGradient id="SVGID_29_" cx="219.6438" cy="678.4531" r="7.303" gradientTransform="matrix(1.0478 0 0 1.0511 -98.3281 -345.1873)" gradientUnits="userSpaceOnUse">
			<stop  offset="0" style="stop-color:#FFFFFF"/>
			<stop  offset="0.8559" style="stop-color:#FFFFFF;stop-opacity:0.1441"/>
			<stop  offset="1" style="stop-color:#FFFFFF;stop-opacity:0"/>
		</radialGradient>
		<path opacity="0.2" fill="url(#SVGID_29_)" enable-background="new    " d="M139.476,367.936c0,4.244-3.43,7.688-7.663,7.688
			c-4.228,0-7.659-3.439-7.659-7.688c0-4.246,3.434-7.688,7.659-7.688C136.047,360.248,139.476,363.688,139.476,367.936z"/>
	</g>
</g>
</svg>
