<?xml version="1.0" encoding="utf-8"?>
<!-- Generator: Adobe Illustrator 15.1.0, SVG Export Plug-In . SVG Version: 6.00 Build 0)  -->
<!DOCTYPE svg PUBLIC "-//W3C//DTD SVG 1.1//EN" "http://www.w3.org/Graphics/SVG/1.1/DTD/svg11.dtd">
<svg version="1.1" id="Layer_1" xmlns="http://www.w3.org/2000/svg" xmlns:xlink="http://www.w3.org/1999/xlink" x="0px" y="0px"
	 width="512px" height="512px" viewBox="0 0 512 512" enable-background="new 0 0 512 512" xml:space="preserve">
<g>
	<g>
		<path fill="#B51D04" d="M162.375,71.379c0.838,0.875,1.165,1.702,1.318,4.599c0.149,2.831,0.305,12.045-0.762,22.718
			c-0.208,2.077-0.458,10.367-1.94,13.286c-1.341,2.64-5.491,1.868-7.932,1.698c-5.205-0.361-14.312-2.563-18.438,1.738
			c-2.214,2.314-2.705,6.979-2.762,9.986c-0.117,6.215,6.787,6.833,11.509,6.861c3.913,0.024,10.226-2.182,12.987,1.306
			c3.473,4.389,1.805,9.366,0.521,14.202c-1.813,6.816-6.699,4.949-12.468,4.4c-4.677-0.445-10.485-0.977-12.958,3.672
			c-1.579,2.973-2.202,8.958,0.834,11.464c1.952,1.614,5.211,0.895,7.508,0.895c6.289,0,14.819-1.327,14.316,8.247
			c-0.36,6.893-2.608,12.56-8.715,13.199c-5.912,0.619-12.613,0.667-18.546,0.648c-6.18-0.022-12.366,0.042-18.543,0.085
			c-4.847,0.035-9.713,0.085-14.558,0.036c-4.798-0.044-7.102-1.806-7.351-7.097C85.25,158.875,81.548,79.178,81.89,75.469
			c0.357-3.905,2.882-5.698,6.586-5.626c5.661,0.112,11.33,0.06,16.997,0.015c13.989-0.113,28.042-0.305,42.024-0.068
			c2.97,0.052,5.929,0.049,8.885,0.125C159.125,69.988,161.198,70.15,162.375,71.379z"/>
		<g>
			<path fill="#B51D04" d="M162.584,103.458c-0.029,0.301-0.057,0.605-0.09,0.909c-0.015,0.163-0.033,0.369-0.049,0.602
				C162.496,104.458,162.543,103.949,162.584,103.458z"/>
			<path fill="#FF6F52" d="M88.56,74.512c6.131-0.875,14.725-0.454,20.392-0.499c13.991-0.114,49.42-0.75,53.797,1.877
				c1.039,0.621,1.087,2.829,0.944,0.088c-0.153-2.896-0.48-3.724-1.318-4.599c-1.178-1.229-3.25-1.392-5.994-1.465
				c-2.956-0.076-5.915-0.073-8.885-0.125c-13.983-0.236-28.036-0.045-42.024,0.068c-5.667,0.045-11.336,0.098-16.997-0.015
				c-3.704-0.072-6.229,1.721-6.586,5.626c-0.037,0.395-0.027,1.653,0.021,3.616C82.853,76.607,85.612,74.933,88.56,74.512z"/>
		</g>
		<g>
			<path fill="#B51D04" d="M151.557,169.707c0.313,1.004,0.45,2.218,0.372,3.69c-0.36,6.894-2.608,12.56-8.715,13.2
				c-5.912,0.619-12.613,0.667-18.548,0.647c-6.178-0.022-12.364,0.043-18.542,0.086c-4.847,0.037-9.712,0.084-14.557,0.037
				c-1.989-0.019-3.549-0.333-4.71-1.071c0.91,3.004,3.138,4.091,6.891,4.124c4.845,0.049,9.71-0.001,14.558-0.036
				c6.178-0.043,12.364-0.107,18.543-0.085c5.933,0.019,12.634-0.029,18.546-0.648c6.106-0.64,8.355-6.307,8.715-13.199
				C154.294,172.933,153.256,170.888,151.557,169.707z"/>
			<path fill="#B51D04" d="M161.374,95.783c-0.208,2.077-1.081,10.227-2.563,13.145c-1.341,2.64-5.491,1.868-7.932,1.699
				c-5.207-0.361-14.31-2.563-18.438,1.738c-2.216,2.313-3.414,6.557-3.469,9.565c-0.045,2.356,2.251,7.506,4.503,8.007
				c-1.251-1.253-1.627-3.84-1.615-4.532c0.057-3.008,0.548-7.672,2.762-9.986c4.125-4.302,13.233-2.1,18.438-1.738
				c2.441,0.17,6.591,0.941,7.932-1.698c1.482-2.919,1.731-11.209,1.94-13.286c0.899-8.996,0.93-16.955,0.828-20.93
				C163.741,77.025,162.441,85.11,161.374,95.783z"/>
			<path fill="#B51D04" d="M155.499,132.742c1.607,3.808,0.27,7.942-0.804,11.977c-1.813,6.819-6.697,4.95-12.466,4.4
				c-4.677-0.443-11.031-0.789-13.76,3.711c-2.502,4.13-2.375,10.703,0.503,13.388c1.876,1.75,4.099,1.782,4.252,1.877
				c-2.502-1.628-4.503-5.63-1.772-12.248c2.007-4.866,8.281-4.117,12.958-3.672c5.769,0.549,10.655,2.416,12.468-4.4
				c1.284-4.836,2.952-9.813-0.521-14.202C156.1,133.247,155.813,132.974,155.499,132.742z"/>
		</g>
		<circle fill="#FF6F52" cx="104.35" cy="86.909" r="6.382"/>
		<circle fill="#FF6F52" cx="127.828" cy="100.787" r="6.684"/>
		<circle fill="#FF6F52" cx="123.468" cy="140.923" r="4.2"/>
		<circle fill="#FF6F52" cx="140.482" cy="176.699" r="4.198"/>
		<circle fill="#FF6F52" cx="99.908" cy="123.911" r="5.542"/>
		<circle fill="#FF6F52" cx="103.833" cy="171.463" r="6.047"/>
		<circle fill="#FF6F52" cx="150.078" cy="83.365" r="4.335"/>
	</g>
	<g>
		
			<radialGradient id="SVGID_1_" cx="146.7271" cy="357.0625" r="16.8798" gradientTransform="matrix(1 0 0 2.7409 0 -621.603)" gradientUnits="userSpaceOnUse">
			<stop  offset="0" style="stop-color:#FFB48A"/>
			<stop  offset="1" style="stop-color:#FFE5D4"/>
		</radialGradient>
		<path fill="url(#SVGID_1_)" d="M138.357,366.188c6.777-13.635,10.019-26.924,10.123-39.354c0.043-5.64-1.277-15.422-5.595-18.307
			c-7.75-5.174-4.669,9.817-4.471,15.019c0.241,6.409-0.879,18.665-0.891,18.759c-0.99,7.634-2.484,13.667-5.538,22.635
			c-1.466,4.295-9.316,16.713-6.004,16.144C128.074,380.723,136.771,369.383,138.357,366.188z"/>
		<path opacity="0.28" fill="#FFFFFF" d="M131.854,369.075c3.937-8.619,6.026-14.471,7.774-21.97
			c0.021-0.092,2.359-12.172,2.758-18.574c0.284-4.545-0.881-16.77,3.639-15.788c-0.801-1.832-1.833-3.342-3.14-4.217
			c-7.75-5.174-4.669,9.817-4.471,15.019c0.241,6.409-0.879,18.665-0.891,18.759c-0.99,7.634-2.484,13.667-5.538,22.635
			c-1.159,3.399-6.315,11.882-6.775,14.991C127.313,376.293,130.772,371.451,131.854,369.075z"/>
		
			<radialGradient id="SVGID_2_" cx="305.5078" cy="401.1504" r="28.544" gradientTransform="matrix(1 0 0 1.4862 0 -195.0273)" gradientUnits="userSpaceOnUse">
			<stop  offset="0" style="stop-color:#FFB182"/>
			<stop  offset="0.3466" style="stop-color:#FFB385"/>
			<stop  offset="0.5962" style="stop-color:#FDB88E"/>
			<stop  offset="0.8147" style="stop-color:#FAC29E"/>
			<stop  offset="1" style="stop-color:#F7CEB2"/>
		</radialGradient>
		<path fill="url(#SVGID_2_)" d="M329.082,393.688c-0.363,1.831-0.764,3.542-0.949,4.925c-0.832,6.111-2.016,12.201-2.822,18.334
			c-0.791,5.988-0.242,12.632-5.363,16.798c-3.896,3.173-9.305,3.621-14.133,3.62c-5.037,0-11.342,0.617-14.727-3.679
			c-3.369-4.282-2.555-9.979-2.867-15.071c-0.523-8.546-2.338-20.635,4.041-27.375c6.125-6.469,15.533-8.915,23.908-10.879
			c3.043-0.714,9.607-1.168,11.971,1.584C330.553,384.758,329.906,389.525,329.082,393.688z"/>
		
			<radialGradient id="SVGID_3_" cx="366.249" cy="241.4004" r="49.4439" gradientTransform="matrix(0.9528 0.3036 -0.4381 1.3752 123.0518 -201.7496)" gradientUnits="userSpaceOnUse">
			<stop  offset="0.7758" style="stop-color:#FF6F52"/>
			<stop  offset="1" style="stop-color:#FFA189"/>
		</radialGradient>
		<path fill="url(#SVGID_3_)" d="M414.82,244.465c-10.539,35.675-39.873,58.456-65.52,50.881
			c-25.648-7.576-37.9-42.639-27.361-78.313c10.539-35.676,39.873-58.456,65.521-50.881S425.355,208.789,414.82,244.465z"/>
		<path opacity="0.3" fill="#F8E8DB" d="M385.285,173.961c19.525,4.297,26.879,21.121,31.789,38.351
			c-1.74-21.786-12.631-39.481-29.699-44.522c-16.711-4.937-35.049,3.533-48.291,20.18
			C352.381,176.865,365.848,169.685,385.285,173.961z"/>
		
			<radialGradient id="SVGID_4_" cx="265.1758" cy="324.2168" r="127.7454" gradientTransform="matrix(1 0.0018 -0.0017 0.9583 0.5538 13.0425)" gradientUnits="userSpaceOnUse">
			<stop  offset="0" style="stop-color:#FFB385"/>
			<stop  offset="0.3953" style="stop-color:#FFB487"/>
			<stop  offset="0.5814" style="stop-color:#FFB98F"/>
			<stop  offset="0.7237" style="stop-color:#FFC19C"/>
			<stop  offset="0.8438" style="stop-color:#FFCDAE"/>
			<stop  offset="0.9487" style="stop-color:#FFDCC5"/>
			<stop  offset="1" style="stop-color:#FFE5D4"/>
		</radialGradient>
		<path fill="url(#SVGID_4_)" d="M250.833,200.649c-62.733,0-113.591,49.707-113.591,111.021c0,29.96,12.145,57.2,31.881,77.203
			c0.668,0.912,1.347,1.808,1.94,2.707c3.623,5.52,7.627,11.147,11.771,16.25c5.645,6.946,10.16,14.984,16.757,21.119
			c7.03,6.539,14.753,8.709,24.392,8.049c4.913-0.333,14.343-1.142,14.881-7.406c0.208-2.417-0.166-4.947-0.28-7.499
			c4.023,0.407,13.331,0.595,13.87,0.59c0.242,0.936,1.068,7.628,3.125,9.789c8.01,8.412,20.063,7.652,30.307,4.917
			c6.238-1.669,8.42-8.92,8.75-14.492c0.088-1.499,0.211-3.182,0.281-4.921c15.068-7.482,28.65-14.034,35.305-25.058
			c20.879-34.584,19.176-74.499,19.176-108.645C349.398,222.957,313.57,200.649,250.833,200.649z"/>
		<linearGradient id="SVGID_5_" gradientUnits="userSpaceOnUse" x1="316.5205" y1="397.2813" x2="320.5799" y2="407.7193">
			<stop  offset="0" style="stop-color:#FFB385"/>
			<stop  offset="0.1847" style="stop-color:#FFA779"/>
			<stop  offset="0.5188" style="stop-color:#FF8759"/>
			<stop  offset="0.9615" style="stop-color:#FF5426"/>
			<stop  offset="1" style="stop-color:#FF4F21"/>
		</linearGradient>
		<path opacity="0.21" fill="url(#SVGID_5_)" d="M330.221,392.923c1.797-2.975,3.805-6.673,5.043-9.919
			c0.934-2.447,1.154-4.556,2.85-6.697c-3.264,5.465-7.529,9.558-12.496,13.556c-5.344,4.3-11.328,7.498-17.996,11.045
			c-3.244,1.723-12.391,5.545-12.391,6.661c0,3.261-0.285,10.734-0.285,10.734s16.723-8.535,20.031-10.694
			C321.441,403.384,326.41,399.231,330.221,392.923z"/>
		<path opacity="0.28" fill="#FFFFFF" d="M144.698,321.285c0-63.096,52.332-114.246,116.888-114.246
			c18.828,0,38.32,1.683,55.973,8.672c2.246,0.89,4.529,1.83,6.814,2.832c-16.732-12.191-40.686-17.36-70.877-17.36
			c-62.733,0-113.589,49.707-113.589,111.021c0,20.013,6.368,41.963,15.852,58.203C150.854,354.862,144.698,338.16,144.698,321.285z
			"/>
		
			<radialGradient id="SVGID_6_" cx="303.75" cy="284.0576" r="103.4716" gradientTransform="matrix(0.9955 -0.011 -0.011 0.9733 2.1 4.3791)" gradientUnits="userSpaceOnUse">
			<stop  offset="0" style="stop-color:#FF6D17"/>
			<stop  offset="0.3405" style="stop-color:#FF6E19"/>
			<stop  offset="0.5066" style="stop-color:#FF7321"/>
			<stop  offset="0.635" style="stop-color:#FF7C2E"/>
			<stop  offset="0.744" style="stop-color:#FF8840"/>
			<stop  offset="0.8406" style="stop-color:#FF9859"/>
			<stop  offset="0.9272" style="stop-color:#FFAB76"/>
			<stop  offset="0.9939" style="stop-color:#FFBE92"/>
		</radialGradient>
		<path opacity="0.25" fill="url(#SVGID_6_)" d="M393.432,348.868c3.172-2.852,6.338-6.147,8.096-9.691
			c1.836-3.705,1.232-8.043,1.971-12.058c2.291-12.523,3.598-25.006,3.125-37.687c-0.547-14.527-2.654-30.001-8.467-43.408
			c-21.74-50.155-69.609-62.642-117.994-42.702c-19.533,8.051-37.693,20.785-49.822,38.303c-5.487,7.924-7.482,16.9-12.053,25.08
			c-4.671,8.356-16.416,10.39-23.337,16.504c-8.873,7.834-9.964,21.359-8.016,32.619c3.046,17.584,19.677,25.094,35.047,29.74
			c7.311,2.21,16.379,3.13,23.16,6.68c4.725,2.476,8.754,7.369,13.213,10.521c4.967,3.511,10.26,6.563,15.791,9.094
			c11.102,5.074,23.229,8.084,35.574,8.593c22.359,0.919,48.486-8.501,67.645-20.085c4.85-2.932,8.639-5.187,12.949-8.809
			C391.316,350.719,392.373,349.816,393.432,348.868z"/>
		
			<radialGradient id="SVGID_7_" cx="351.6758" cy="327.2832" r="157.9147" gradientTransform="matrix(0.3434 0.9392 -0.8278 0.3026 501.8585 -102.0618)" gradientUnits="userSpaceOnUse">
			<stop  offset="0" style="stop-color:#FCC7A7"/>
			<stop  offset="0.4403" style="stop-color:#FCC8A9"/>
			<stop  offset="0.6475" style="stop-color:#FBCDB1"/>
			<stop  offset="0.806" style="stop-color:#FAD5BE"/>
			<stop  offset="0.9389" style="stop-color:#F9E1D0"/>
			<stop  offset="1" style="stop-color:#F8E8DB"/>
		</radialGradient>
		<path fill="url(#SVGID_7_)" d="M406.512,434.732c2.992-2.01,8.725-6.296,7.975-10.569c-0.355-2.035-2.74-2.56-4.529-3.823
			c-1.703-1.197-3.188-3.54-3.754-5.31c-1.004-3.137-0.518-8.745-5.041-9c-2.129-0.12-6.34,3.522-8.838,4.054
			c-6.168,1.311-14.838,0.052-17.574-6.495c-3.52-8.415,5.428-20.031,10.578-25.679c38.656-42.366,42.652-89.743,42.459-100.772
			c-0.992-56.422-42.424-102.175-94.754-102.175c-52.334,0-94.755,45.745-94.755,102.175c0,26.063,9.36,51.926,26.904,71.321
			c8.328,9.21,18.393,16.854,29.613,22.194c5.615,2.67,11.443,5.026,17.545,6.217c19.65,3.836,15.793,0.178,18.129,3.907
			c2.42,3.869,4.131,11.396,3.785,17.538c-0.355,6.224,0.654,13.039,3.256,18.773c5.688,12.535,19.447,21.75,32.803,24.067
			c11.258,1.955,19.537,1.75,29.795-2.911C402.029,437.373,404.332,436.194,406.512,434.732z"/>
		
			<radialGradient id="SVGID_8_" cx="376.1514" cy="410.6719" r="68.7289" gradientTransform="matrix(0.9935 0.1142 -0.063 0.5475 28.3188 142.8608)" gradientUnits="userSpaceOnUse">
			<stop  offset="0" style="stop-color:#FFB385"/>
			<stop  offset="0.4497" style="stop-color:#FFB183"/>
			<stop  offset="0.6117" style="stop-color:#FFAA7C"/>
			<stop  offset="0.7272" style="stop-color:#FF9F71"/>
			<stop  offset="0.8205" style="stop-color:#FF8E60"/>
			<stop  offset="0.9005" style="stop-color:#FF784A"/>
			<stop  offset="0.9701" style="stop-color:#FF5D2F"/>
			<stop  offset="1" style="stop-color:#FF4F21"/>
		</radialGradient>
		<path opacity="0.2" fill="url(#SVGID_8_)" d="M367.504,435.521c-32.74-9.147-28.043-33.451-34.363-47.901
			c0.252,1.558,0.912,3.784,1.051,6.761c0.158,3.394-0.172,6.51-0.01,8.846c0.537,7.56,2.279,11.553,3.328,13.862
			c5.688,12.535,19.447,21.75,32.803,24.067c11.258,1.955,19.537,1.75,29.795-2.911c1.922-0.872,4.225-2.051,6.404-3.513
			c1.848-1.24,2.438-1.813,2.438-1.813S389.031,441.539,367.504,435.521z"/>
		<path opacity="0.2" fill="#FFFFFF" d="M413.799,425.155c-0.715-1.3-2.422-1.527-3.551-2.32c-0.828-0.583-1.295-1.456-1.918-2.228
			c-0.967-1.198-2.232-2.468-2.896-3.861c-0.328-0.698-0.488-1.467-0.621-2.226c-0.354-2.052-0.396-5.021-2.098-6.569
			c-2.705-2.465-4.523,0.939-5.094,3.168c-0.406,1.581-0.465,3.239-0.465,4.886c0,1.447,0.24,2.95,0.486,4.351
			c0.289,1.681,0.67,3.477,1.352,5.062c0.971,2.255,2.695,4.186,4.473,5.852c1.146,1.074,2.461,1.768,4.07,1.788
			c0.9,0.01,4.189-2.619,4.586-3.152c0.775-1.04,2.379-3.302,1.744-4.629C413.844,425.234,413.824,425.194,413.799,425.155z"/>
		<path opacity="0.28" fill="#FFFFFF" d="M329.469,184.22c47.279,0,83.664,36.022,96.492,81.009
			c-7.109-49.526-45.494-87.616-92.891-87.616c-25.633,0-48.865,11.141-65.834,29.201C284.074,194.54,307.346,184.22,329.469,184.22
			z"/>
		
			<radialGradient id="SVGID_9_" cx="311.3008" cy="386.7051" r="28.3648" gradientTransform="matrix(1.3525 0.7109 -0.5268 0.9979 85.784 -271.1441)" gradientUnits="userSpaceOnUse">
			<stop  offset="0" style="stop-color:#F86963"/>
			<stop  offset="0.1902" style="stop-color:#F8776F"/>
			<stop  offset="0.5523" style="stop-color:#F99D8E"/>
			<stop  offset="1" style="stop-color:#FAD4BC"/>
		</radialGradient>
		<path opacity="0.4" fill="url(#SVGID_9_)" d="M354.328,361.184c-10.221,17.716-39.967,19.693-66.438,4.417
			c-26.469-15.276-39.639-42.021-29.416-59.736c10.225-17.713,39.969-19.692,66.441-4.417
			C351.383,316.724,364.555,343.469,354.328,361.184z"/>
		<linearGradient id="SVGID_10_" gradientUnits="userSpaceOnUse" x1="324.5586" y1="371.0645" x2="353.7176" y2="386.6159">
			<stop  offset="0" style="stop-color:#FF4F21"/>
			<stop  offset="0.0385" style="stop-color:#FF5426"/>
			<stop  offset="0.4812" style="stop-color:#FF8759"/>
			<stop  offset="0.8153" style="stop-color:#FFA779"/>
			<stop  offset="1" style="stop-color:#FFB385"/>
		</linearGradient>
		<path opacity="0.21" fill="url(#SVGID_10_)" d="M359.408,386.971c1.537,1.025-14.857,3.902-20.131,2.806
			c-6.479-1.344-13.029-5.937-13.508-12.139c-0.477-6.202,4.572-11.797,11.494-10.844c7.543,1.038,7.51,7.147,10.887,11.047
			C352.17,382.484,356.623,385.113,359.408,386.971z"/>
		<linearGradient id="SVGID_11_" gradientUnits="userSpaceOnUse" x1="328.6035" y1="377.6387" x2="360.083" y2="377.6387">
			<stop  offset="0" style="stop-color:#C4D1D9"/>
			<stop  offset="0.4157" style="stop-color:#CFDAE0"/>
			<stop  offset="1" style="stop-color:#E6ECEF"/>
		</linearGradient>
		<path fill="url(#SVGID_11_)" d="M359.996,386.858c1.395,1.042-14.455,2.509-19.406,1.142c-6.078-1.676-11.986-6.313-11.986-11.989
			c0-5.673,5.225-10.405,11.756-9.056c7.117,1.473,6.639,7.027,9.572,10.812C353.426,382.271,357.477,384.975,359.996,386.858z"/>
		<path opacity="0.4" fill="#FFFFFF" d="M358.697,386.937c-3.492,0.253-7.037-0.382-10.42-1.171
			c-2.979-0.692-5.99-1.651-8.623-3.239c-1.777-1.072-3.398-2.45-4.705-4.069c-1.396-1.736-1.904-4.219-1.195-6.393
			c1.918-5.9,9.072-5.291,12.111-0.607c1.434,2.203,2.008,4.87,3.631,6.964c1.428,1.839,3.068,3.499,4.824,5.023
			c0.885,0.77,1.803,1.501,2.736,2.213C357.336,385.87,358.379,386.958,358.697,386.937z"/>
		<path opacity="0.39" fill="#FF6F52" d="M362.279,281.192c13.156,18.236,4.639,58.391-3.029,63.534
			c-5.031,3.375-37-2.362-53.162-16.283c-17.047-14.684-12.887-41.995,6.15-53.873C328.4,264.484,349.121,262.956,362.279,281.192z"
			/>
		<path fill="#FF846A" d="M360.879,283.24c12.439,17.24,4.387,55.202-2.863,60.065c-4.758,3.19-34.982-2.232-50.262-15.394
			c-16.115-13.881-12.182-39.7,5.816-50.933C328.854,267.446,348.439,266.001,360.879,283.24z"/>
		<linearGradient id="SVGID_12_" gradientUnits="userSpaceOnUse" x1="360.3535" y1="337.5352" x2="319.346" y2="288.5392">
			<stop  offset="0" style="stop-color:#C4D1D9"/>
			<stop  offset="0.1852" style="stop-color:#D6DFE5"/>
			<stop  offset="0.4767" style="stop-color:#EDF1F3"/>
			<stop  offset="0.7541" style="stop-color:#FAFBFC"/>
			<stop  offset="1" style="stop-color:#FFFFFF"/>
		</linearGradient>
		<path fill="url(#SVGID_12_)" d="M358.158,286.575c11.809,14.987,6.252,49.169,0,53.752c-4.102,3.009-31.254-0.834-45.418-12.085
			c-14.945-11.868-9.545-35.792,3.018-45.692C328.318,272.649,346.346,271.587,358.158,286.575z"/>
		<path fill="#FF6F52" d="M290.137,274.332c0.898,2.179,2.844,3.665,4.805,4.857c2.713,1.646,5.748,2.794,8.756,3.763
			c6.609,2.126,13.721,3.447,20.674,3.463c2.939,0.006,6.678-0.083,9.055-2.069c0.965-0.806-0.42-2.172-1.371-1.375
			c-0.484,0.402-1.395,0.746-2.205,0.957c-1.162,0.304-2.365,0.425-3.563,0.492c-3.197,0.183-6.434-0.087-9.6-0.525
			c-6.715-0.93-13.732-2.575-19.742-5.802c-1.816-0.975-4.172-2.435-4.938-4.278C291.537,272.674,289.656,273.175,290.137,274.332
			L290.137,274.332z"/>
		<path fill="#FF6F52" d="M300.969,263.499c0.574,2.849,2.861,5.154,4.99,6.973c2.219,1.896,4.727,3.558,7.375,4.784
			c3.648,1.687,7.891,2.306,11.852,2.709c4.168,0.426,8.371,0.414,12.555,0.414c1.254,0,1.254-1.943,0-1.943
			c-7.797,0-15.758-0.014-23.164-2.758c-2.451-0.908-4.811-2.605-6.824-4.232c-2.037-1.646-4.367-3.781-4.908-6.464
			C302.596,261.753,300.719,262.274,300.969,263.499L300.969,263.499z"/>
		<path fill="#0069B1" d="M361.225,289.807c6.391,13.292-0.322,30.276-15.936,38.416c-15.617,8.137-33.801,4.134-40.615-8.943
			c-6.814-13.078,0.975-29.853,16.59-37.991C336.879,273.15,354.266,275.333,361.225,289.807z"/>
		
			<radialGradient id="SVGID_13_" cx="331.8203" cy="301.2656" r="36.174" gradientTransform="matrix(0.9021 -0.4316 0.3473 0.7259 -72.1402 225.7883)" gradientUnits="userSpaceOnUse">
			<stop  offset="0" style="stop-color:#2BD7FF"/>
			<stop  offset="0.2696" style="stop-color:#2AD4FD"/>
			<stop  offset="0.4507" style="stop-color:#26CBF7"/>
			<stop  offset="0.6057" style="stop-color:#21BCEC"/>
			<stop  offset="0.7461" style="stop-color:#18A7DD"/>
			<stop  offset="0.8753" style="stop-color:#0D8BC9"/>
			<stop  offset="0.9971" style="stop-color:#006AB2"/>
			<stop  offset="1" style="stop-color:#0069B1"/>
		</radialGradient>
		<path fill="url(#SVGID_13_)" d="M360.295,288.075c6.393,13.288-0.234,30.229-15.744,38.313
			c-15.51,8.084-33.607,4.034-40.428-9.042c-6.811-13.079,0.891-29.807,16.398-37.892
			C336.035,271.372,353.334,273.602,360.295,288.075z"/>
		
			<radialGradient id="SVGID_14_" cx="331.8203" cy="301.2656" r="36.174" gradientTransform="matrix(0.9021 -0.4316 0.3473 0.7259 -72.1402 225.7883)" gradientUnits="userSpaceOnUse">
			<stop  offset="0" style="stop-color:#2BD7FF"/>
			<stop  offset="0.2696" style="stop-color:#2AD4FD"/>
			<stop  offset="0.4507" style="stop-color:#26CBF7"/>
			<stop  offset="0.6057" style="stop-color:#21BCEC"/>
			<stop  offset="0.7461" style="stop-color:#18A7DD"/>
			<stop  offset="0.8753" style="stop-color:#0D8BC9"/>
			<stop  offset="0.9971" style="stop-color:#006AB2"/>
			<stop  offset="1" style="stop-color:#0069B1"/>
		</radialGradient>
		<path fill="url(#SVGID_14_)" d="M360.295,288.075c6.393,13.288-0.234,30.229-15.744,38.313
			c-15.51,8.084-33.607,4.034-40.428-9.042c-6.811-13.079,0.891-29.807,16.398-37.892
			C336.035,271.372,353.334,273.602,360.295,288.075z"/>
		<path d="M356.039,284.67c4.678,10.18-2.645,24.007-17.107,31.244s-30.186,5.401-35.201-4.616
			c-5.016-10.021,2.01-23.734,16.137-31.605C333.617,272.036,350.434,272.463,356.039,284.67z"/>
		
			<radialGradient id="SVGID_15_" cx="357.7617" cy="245.2847" r="6.7221" gradientTransform="matrix(1.4261 0 0 1.3868 -171.8046 -50.014)" gradientUnits="userSpaceOnUse">
			<stop  offset="0" style="stop-color:#FFFFFF"/>
			<stop  offset="0.3726" style="stop-color:#FDFDFD"/>
			<stop  offset="0.5069" style="stop-color:#F6F6F6"/>
			<stop  offset="0.6026" style="stop-color:#EBEBEB"/>
			<stop  offset="0.68" style="stop-color:#DADADA"/>
			<stop  offset="0.7463" style="stop-color:#C4C4C4"/>
			<stop  offset="0.805" style="stop-color:#A8A8A8"/>
			<stop  offset="0.8581" style="stop-color:#888888"/>
			<stop  offset="0.9069" style="stop-color:#626262"/>
			<stop  offset="0.9523" style="stop-color:#373737"/>
			<stop  offset="0.9926" style="stop-color:#090909"/>
			<stop  offset="1" style="stop-color:#000000"/>
		</radialGradient>
		<ellipse fill="url(#SVGID_15_)" cx="338.398" cy="290.148" rx="9.969" ry="8.934"/>
		
			<radialGradient id="SVGID_16_" cx="342.3184" cy="250.7813" r="4.2858" gradientTransform="matrix(1.4261 0 0 1.3868 -171.8046 -50.014)" gradientUnits="userSpaceOnUse">
			<stop  offset="0" style="stop-color:#FFFFFF"/>
			<stop  offset="0.3726" style="stop-color:#FDFDFD"/>
			<stop  offset="0.5069" style="stop-color:#F6F6F6"/>
			<stop  offset="0.6026" style="stop-color:#EBEBEB"/>
			<stop  offset="0.68" style="stop-color:#DADADA"/>
			<stop  offset="0.7463" style="stop-color:#C4C4C4"/>
			<stop  offset="0.805" style="stop-color:#A8A8A8"/>
			<stop  offset="0.8581" style="stop-color:#888888"/>
			<stop  offset="0.9069" style="stop-color:#626262"/>
			<stop  offset="0.9523" style="stop-color:#373737"/>
			<stop  offset="0.9926" style="stop-color:#090909"/>
			<stop  offset="1" style="stop-color:#000000"/>
		</radialGradient>
		<ellipse fill="url(#SVGID_16_)" cx="316.375" cy="297.77" rx="6.355" ry="5.696"/>
		<linearGradient id="SVGID_17_" gradientUnits="userSpaceOnUse" x1="227.3125" y1="248.3018" x2="264.2465" y2="273.9611">
			<stop  offset="0" style="stop-color:#FF4F21"/>
			<stop  offset="0.2016" style="stop-color:#FF5325"/>
			<stop  offset="0.4014" style="stop-color:#FF5F31"/>
			<stop  offset="0.6005" style="stop-color:#FF7345"/>
			<stop  offset="0.7993" style="stop-color:#FF8F61"/>
			<stop  offset="0.9962" style="stop-color:#FFB284"/>
			<stop  offset="1" style="stop-color:#FFB385"/>
		</linearGradient>
		<path opacity="0.21" fill="url(#SVGID_17_)" d="M295.096,216.075c0.475,1.55,0.805,3.154,1.043,4.818
			c0.674,4.703,1.627,10.967-1.807,14.567c-7.494,7.865-41.522,36.083-38.409,84.681c0.156,2.46,1.879,8.846,0.545,11.551
			c-0.924,1.874-5.789,2.717-7.674,3.232c-3.582,0.979-7.573,0.437-11.234,0.437c-8.33,0-14.993-4.021-19.071-11.677
			c-3.898-7.324-4.404-17.93-4.925-26.1c-0.732-11.521,1.124-24.102,4.287-35.13c3.604-12.56,12.002-21.161,21.42-29.84
			c5.188-4.775,9.291-10.689,14.871-15.048c3.272-2.555,6.071-6.464,9.629-8.559c2.713-1.594,6.17-2.206,9.191-3.289
			c7.117-2.544,13.383-3.313,18.516,3.315C293.201,211.258,294.332,213.597,295.096,216.075z"/>
		<path fill="#FFBE92" d="M245.404,270.026c-15.41,50.803,19.926,58.52,8.578,63.394c-3.322,1.429-8.441,1.941-16.422,1.941
			c-35.229,0-63.784-32.33-63.784-72.208s28.555-72.208,63.784-72.208c24.557,0,45.874,15.71,56.534,38.734
			C298.727,239.685,257.268,230.934,245.404,270.026z"/>
		
			<radialGradient id="SVGID_18_" cx="256.3008" cy="280.5781" r="54.0036" gradientTransform="matrix(0.9483 0.3174 -0.3534 1.0557 112.4195 -97.0001)" gradientUnits="userSpaceOnUse">
			<stop  offset="0" style="stop-color:#FF988A"/>
			<stop  offset="0.4805" style="stop-color:#FFA88D"/>
			<stop  offset="1" style="stop-color:#FFBE92"/>
		</radialGradient>
		<path fill="url(#SVGID_18_)" d="M245.5,270.294c-4.513,12.614-5.122,27.146-2.045,38.668c1.208,4.523,3.051,8.989,5.633,12.907
			c1.824,2.766,4.289,4.866,1.285,7.836c-6.136,6.063-22.686,1.277-29.461-1.64c-13.59-5.858-23.043-18.193-27.58-32.027
			c-5.272-16.076-4.589-35.777,4.354-50.529c10.888-17.961,33.25-27.421,53.184-31.114c13.092-2.423,24.614-3.88,35.786,5.056
			c2.316,1.851,3.934,5.156,5.131,7.763c4.273,9.287-6.449,8.911-12.164,10.886c-6.123,2.113-12.082,5.617-17.48,9.257
			C254.375,252.591,248.857,260.913,245.5,270.294z"/>
		<linearGradient id="SVGID_19_" gradientUnits="userSpaceOnUse" x1="328.6035" y1="377.6387" x2="360.083" y2="377.6387">
			<stop  offset="0" style="stop-color:#C4D1D9"/>
			<stop  offset="1" style="stop-color:#FFFFFF"/>
		</linearGradient>
		<path fill="url(#SVGID_19_)" d="M359.996,386.858c1.395,1.042-14.455,2.509-19.406,1.142c-6.078-1.676-11.986-6.313-11.986-11.989
			c0-5.673,5.225-10.405,11.756-9.056c7.117,1.473,6.639,7.027,9.572,10.812C353.426,382.271,357.477,384.975,359.996,386.858z"/>
		<path opacity="0.35" fill="#FFFFFF" d="M359.539,386.994c-1.17,0.561-12.465-3.403-16.559-6.678
			c-3.057-2.443-8.18-9.286-4.006-12.068c2.379-1.584,5.316,0.09,7.166,3.001c1.619,2.55,2.617,5.873,3.797,7.259
			C353.223,382.357,359.527,386.971,359.539,386.994z"/>
		
			<radialGradient id="SVGID_20_" cx="237.0366" cy="263.1826" r="60.1671" gradientTransform="matrix(1 0 0 1.2244 0 -59.0634)" gradientUnits="userSpaceOnUse">
			<stop  offset="0.0121" style="stop-color:#FFC39E"/>
			<stop  offset="1" style="stop-color:#FF4F21"/>
		</radialGradient>
		<path opacity="0.21" fill="url(#SVGID_20_)" d="M200.274,285.338c0-37.525,25.971-68.391,61.198-68.391
			c10.971,0,21.289,2.955,30.303,8.151c-11.252-20.502-31.322-34.153-54.215-34.153c-35.229,0-63.784,32.33-63.784,72.208
			c0,30.458,18.724,57.396,42.288,68.007C208.266,316.761,200.274,302.782,200.274,285.338z"/>
		
			<radialGradient id="SVGID_21_" cx="247.7417" cy="269.3203" r="70.7727" gradientTransform="matrix(1 0 0 1.1214 0 -32.7009)" gradientUnits="userSpaceOnUse">
			<stop  offset="0.8303" style="stop-color:#FF6F52"/>
			<stop  offset="0.9164" style="stop-color:#FF876C"/>
			<stop  offset="1" style="stop-color:#FFA189"/>
		</radialGradient>
		<path fill="url(#SVGID_21_)" d="M192.171,281.134c0-39.332,27.383-71.016,66.087-71.016c17.492,0,25.658,9.72,36.543,21.771
			c3.996-35.391-26.438-48.209-52.528-46.652c-36.818,2.195-69.639,36.333-69.639,77.63c0,25.746,13.987,59.205,43.431,68.293
			C199.514,316.319,192.171,296.304,192.171,281.134z"/>
		<path opacity="0.3" fill="#F8E8DB" d="M175.34,269.367c0-41.251,33.416-75.349,70.907-77.541
			c14.34-0.84,30.219,2.259,41.375,11.907c0.342,0.299,0.678,0.602,1.008,0.908c-9.707-13.983-28.744-19.268-45.893-18.237
			c-36.448,2.186-68.938,36.192-68.938,77.334c0,7.687,1.243,16.061,3.77,24.266C176.103,281.875,175.34,275.591,175.34,269.367z"/>
		<path opacity="0.4" fill="#FCA372" d="M319.367,245.365c18.93-8.229,32.188-3.527,38.816,1.394
			c1.295,0.962,2.508,0.546,1.316-0.514c-3.447-3.069-7.361-6.112-11.555-8.038c-4.279-1.963-7.705-3.947-14.277-4.052
			c-7.947-0.127-15.43,1.782-18.162,4.514C311.209,242.962,317.082,246.358,319.367,245.365z"/>
		<path fill="#FF6F52" d="M319.461,244.221c17.545-9.798,32.568-3.295,38.758,2.558c1.176,1.108,2.49,0.62,1.334-0.474
			c-3.355-3.173-7.174-6.332-11.311-8.382c-4.217-2.092-7.582-4.177-14.15-4.478c-7.938-0.363-15.299,1.766-18.111,4.414
			C311.557,242.023,317.916,245.084,319.461,244.221z"/>
		<path opacity="0.3" fill="#F8E8DB" d="M328.361,235.954c10.301-1.327,19.713,3.297,22.855,4.218
			c-0.387-0.153-9.471-6.005-16.871-6.06c-8.229-0.063-15.027,1.855-17.859,3.893c-0.664,0.476-2.732,2.87-0.564,2.923
			C316.674,240.947,320.615,236.949,328.361,235.954z"/>
		<path fill="#FF6F52" d="M317.248,257.161c0.467,1.393,1.078,2.817,1.918,4.009c1.846,2.604,4.465,4.551,7.189,6.151
			c5.969,3.506,13.512,5.02,19.693,8.068c9.578,4.726,11.316,9.418,13.01,12.231c4.203,6.985,6.066,15.51,5.729,23.618
			c-0.959,23.029-6.836,29.715-5.908,28.878c3.375-3.036,8.273-19.685,7.801-30.542c-0.35-8.036-2.07-16.36-6.264-23.247
			c-1.717-2.822-5.502-9.062-13.523-12.557c-6.322-2.752-13.189-4.516-19.207-7.928c-2.516-1.425-4.959-3.188-6.732-5.512
			c-1.813-2.37-1.703-4.738-2.492-5.17C318.121,254.977,316.561,255.128,317.248,257.161z"/>
		<path opacity="0.5" fill="#FFFFFF" d="M405.459,414.641c1.094,4.516,5.68,7.048,8.486,9.032c0.922,0.652,0.1,2.482-0.551,2.805
			c-0.916,0.46-2.393,1.297-2.463,2.396c-0.068,1.06-0.578,2.792-2.123,2.836c-1.43,0.042-3.047-1.373-4.057-2.214
			c-1.285-1.071-2.322-1.978-3.209-3.393c-1.674-2.67-2.889-5.523-2.93-8.653c-0.031-2.132,0.113-4.126,0.475-6.248
			c0.248-1.437,0.521-2.925,1.381-4.154c0.898-1.291,2.271-0.66,3.006,0.476C404.416,408.977,405.311,414.041,405.459,414.641z"/>
		
			<radialGradient id="SVGID_22_" cx="406.6445" cy="418.3369" r="11.1439" gradientTransform="matrix(0.4365 0.8997 -0.527 0.2556 449.5987 -54.4724)" gradientUnits="userSpaceOnUse">
			<stop  offset="0" style="stop-color:#FF6F52"/>
			<stop  offset="0.4206" style="stop-color:#FC6D50"/>
			<stop  offset="0.6832" style="stop-color:#F46648"/>
			<stop  offset="0.9018" style="stop-color:#E55A3B"/>
			<stop  offset="1" style="stop-color:#DC5232"/>
		</radialGradient>
		<path fill="url(#SVGID_22_)" d="M404.85,414.838c0.883,3.123,2.746,5.482,5.533,7.474c0.938,0.667,2.334,1.275,3.018,2.232
			c0.6,0.832-0.918,1.157-1.477,1.483c-0.793,0.462-1.646,1.07-1.664,2.084c-0.018,0.978,0.229,2.273-1.135,2.38
			c-1.264,0.099-2.75-1.133-3.676-1.862c-1.182-0.929-2.135-1.716-2.979-2.979c-1.594-2.382-2.783-4.957-2.955-7.832
			c-0.113-1.959-0.068-3.799,0.166-5.765c0.158-1.331,0.336-2.713,1.043-3.882c0.744-1.226,1.695-0.573,2.389,0.438
			c0.896,1.299,1.121,3.004,1.365,4.523C404.572,413.726,404.695,414.294,404.85,414.838z"/>
		<path opacity="0.28" fill="#FFFFFF" d="M236.89,414.667c0.327,2.693,0.665,10.211,0.08,13.978
			c-0.736,4.731-7.126,6.41-11.403,6.968c-2.913,0.381-13.746,0.321-10.77,0.889c10.009,1.899,19.372-0.642,22.046-2.916
			c2.655-2.259,2.243-6.576,2.028-9.756c-1.19-17.352-3.371-16.547-3.191-16.181C235.68,407.648,236.653,412.718,236.89,414.667z"/>
		<path opacity="0.28" fill="#FFFFFF" d="M250.794,406.447c0.357,5.782,0.908,11.565,2.031,17.257
			c0.467,2.385,0.857,5.092,2.025,7.253c0.977,1.813,2.639,3.222,4.323,4.356c3.912,2.646,8.59,3.639,13.244,3.803
			c4.271,0.15,8.695-0.305,12.754-1.673c2.209-0.742,4.465-1.862,5.916-3.734c0.154-0.196-0.117-0.473-0.271-0.274
			c-2.4,3.087-6.799,4.173-10.463,4.789c-4.373,0.737-8.4,0.417-12.754-0.47c-4.592-0.934-10.258-4.866-12.057-8.908
			c-1.133-2.55-1.318-4.229-1.797-6.968c-0.529-3.028-1.049-6.626-1.572-9.657c-0.375-2.172-0.521-3.817-0.99-5.773
			C251.125,406.202,250.779,406.196,250.794,406.447L250.794,406.447z"/>
		<path opacity="0.15" fill="#FFFFFF" d="M291.494,434.602c1.855,1.342,4.258,1.899,6.48,2.274c3.018,0.513,6.111,0.6,9.166,0.392
			c5.348-0.361,12.146-1.649,15.471-6.333c0.438-0.615-0.576-1.198-1.006-0.59c-1.445,2.039-3.781,3.266-6.078,4.102
			c-2.758,1.003-5.701,1.475-8.619,1.672c-2.871,0.195-5.785,0.095-8.623-0.367c-2.127-0.347-4.428-0.874-6.205-2.155
			C291.469,433.154,290.889,434.167,291.494,434.602L291.494,434.602z"/>
		<g opacity="0.64">
			<path fill="#FF6F52" d="M371.877,385.68c-3.621-1.124-7.363-0.016-7.383,0c0.52-0.503,1.186-0.885,1.848-1.163
				c2.006-0.84,4.16-0.938,6.297-0.755c1.344,0.117,2.855,0.515,4.1,1.06c0.35,0.153,2.238,1.205,2.158,1.321
				c-0.398,0.572-1.764,2.919-1.764,2.919s-1.811-1.599-2.521-2.093C373.793,386.401,372.828,385.974,371.877,385.68z"/>
		</g>
		<g opacity="0.28">
			<path fill="#FFFFFF" d="M371.418,386.546c-3.619-1.124-6.385-0.915-6.883-0.857c1.82-1.327,5.51-1.245,7.646-1.059
				c1.344,0.116,2.855,0.515,4.1,1.058c0.354,0.152,2.174,1.151,2.09,1.265c-0.428,0.603-1.695,2.967-1.695,2.967
				s-1.814-1.59-2.521-2.083C373.336,387.268,372.369,386.841,371.418,386.546z"/>
		</g>
		<radialGradient id="SVGID_23_" cx="320.6377" cy="199.064" r="5.5925" gradientUnits="userSpaceOnUse">
			<stop  offset="0" style="stop-color:#FFFFFF"/>
			<stop  offset="0.4168" style="stop-color:#FDF5EF"/>
			<stop  offset="1" style="stop-color:#F9E2D2"/>
		</radialGradient>
		<circle opacity="0.5" fill="url(#SVGID_23_)" cx="320.638" cy="199.063" r="5.593"/>
		<radialGradient id="SVGID_24_" cx="299.334" cy="201.1924" r="4.5273" gradientUnits="userSpaceOnUse">
			<stop  offset="0" style="stop-color:#FFFFFF"/>
			<stop  offset="0.4168" style="stop-color:#FDF5EF"/>
			<stop  offset="1" style="stop-color:#F9E2D2"/>
		</radialGradient>
		<path opacity="0.5" fill="url(#SVGID_24_)" d="M303.861,201.194c0,2.498-2.023,4.525-4.527,4.525c-2.5,0-4.527-2.027-4.527-4.525
			c0-2.501,2.027-4.529,4.527-4.529C301.838,196.665,303.861,198.693,303.861,201.194z"/>
		<radialGradient id="SVGID_25_" cx="344.6025" cy="202.79" r="6.6572" gradientUnits="userSpaceOnUse">
			<stop  offset="0" style="stop-color:#FFFFFF"/>
			<stop  offset="0.4168" style="stop-color:#FDF5EF"/>
			<stop  offset="1" style="stop-color:#F9E2D2"/>
		</radialGradient>
		<circle opacity="0.5" fill="url(#SVGID_25_)" cx="344.603" cy="202.791" r="6.657"/>
		<radialGradient id="SVGID_26_" cx="370.6982" cy="214.2407" r="7.1897" gradientUnits="userSpaceOnUse">
			<stop  offset="0" style="stop-color:#FFFFFF"/>
			<stop  offset="0.4168" style="stop-color:#FDF5EF"/>
			<stop  offset="1" style="stop-color:#F9E2D2"/>
		</radialGradient>
		<circle opacity="0.5" fill="url(#SVGID_26_)" cx="370.698" cy="214.239" r="7.188"/>
		<radialGradient id="SVGID_27_" cx="394.6631" cy="233.147" r="6.6575" gradientUnits="userSpaceOnUse">
			<stop  offset="0" style="stop-color:#FFFFFF"/>
			<stop  offset="0.4168" style="stop-color:#FDF5EF"/>
			<stop  offset="1" style="stop-color:#F9E2D2"/>
		</radialGradient>
		<circle opacity="0.5" fill="url(#SVGID_27_)" cx="394.663" cy="233.147" r="6.657"/>
		<radialGradient id="SVGID_28_" cx="410.6416" cy="253.9175" r="5.5925" gradientUnits="userSpaceOnUse">
			<stop  offset="0" style="stop-color:#FFFFFF"/>
			<stop  offset="0.4168" style="stop-color:#FDF5EF"/>
			<stop  offset="1" style="stop-color:#F9E2D2"/>
		</radialGradient>
		<path opacity="0.5" fill="url(#SVGID_28_)" d="M416.234,253.917c0,3.088-2.502,5.593-5.594,5.593
			c-3.088,0-5.592-2.505-5.592-5.593s2.504-5.592,5.592-5.592C413.732,248.325,416.234,250.829,416.234,253.917z"/>
		<radialGradient id="SVGID_29_" cx="420.7598" cy="273.623" r="3.9946" gradientUnits="userSpaceOnUse">
			<stop  offset="0" style="stop-color:#FFFFFF"/>
			<stop  offset="0.4168" style="stop-color:#FDF5EF"/>
			<stop  offset="1" style="stop-color:#F9E2D2"/>
		</radialGradient>
		<circle opacity="0.5" fill="url(#SVGID_29_)" cx="420.76" cy="273.623" r="3.994"/>
		<linearGradient id="SVGID_30_" gradientUnits="userSpaceOnUse" x1="243.6152" y1="407.2637" x2="244.8194" y2="422.3152">
			<stop  offset="0" style="stop-color:#FFB385"/>
			<stop  offset="0.1847" style="stop-color:#FFA779"/>
			<stop  offset="0.5188" style="stop-color:#FF8759"/>
			<stop  offset="0.9615" style="stop-color:#FF5426"/>
			<stop  offset="1" style="stop-color:#FF4F21"/>
		</linearGradient>
		<path opacity="0.21" fill="url(#SVGID_30_)" d="M238.752,421.89c0.366,0.087,3.948,0.164,6.435,0.308
			c3.598,0.207,6.523,0.113,7.201,0.207c-0.924-5.73-1.66-15.631-1.66-15.631s-3.748,0.065-7.025,0.266
			c-4.855,0.298-6.638,0.298-7.625,0.534C238.02,409.783,238.586,421.85,238.752,421.89z"/>
		<g opacity="0.64">
			<path fill="#FF6F52" d="M367.854,397.895c-3.758,0.52-6.672,3.11-6.682,3.133c0.256-0.676,0.693-1.303,1.176-1.837
				c1.463-1.612,3.369-2.614,5.383-3.354c1.268-0.464,2.805-0.746,4.16-0.781c0.385-0.01,2.672,0.166,2.637,0.301
				c-0.076,0.285-0.26,1.032-0.398,1.767c-0.152,0.814-0.176,1.595-0.176,1.595s-2.223-0.667-3.074-0.814
				C369.898,397.736,368.84,397.759,367.854,397.895z"/>
		</g>
		<g opacity="0.28">
			<path fill="#FFFFFF" d="M367.807,398.874c-3.754,0.521-6.17,1.882-6.598,2.145c1.086-1.973,4.463-3.466,6.477-4.202
				c1.264-0.465,2.805-0.747,4.158-0.782c0.387-0.01,2.496,0.11,2.461,0.244c-0.076,0.296-0.246,1.099-0.314,1.825
				c-0.072,0.845-0.041,1.574-0.041,1.574s-2.266-0.649-3.117-0.796C369.852,398.715,368.793,398.738,367.807,398.874z"/>
		</g>
		<g opacity="0.64">
			<path fill="#FF6F52" d="M366.582,415.636c-0.166-0.702-0.148-3.476,3.178-6.895c2.461-2.527,5.818-3.58,5.895-3.463
				c0.17,0.255,0.514,0.699,1.088,1.335c0.559,0.621,1.5,1.278,1.5,1.278s-3.906,1.193-4.885,1.749
				C367.18,413.148,366.578,415.614,366.582,415.636z"/>
		</g>
		<g opacity="0.28">
			<path fill="#FFFFFF" d="M366.582,415.636c-0.201-2.241,3.934-6.046,5.037-6.833c1.676-1.202,4.543-2.859,4.635-2.754
				c0.215,0.256,0.727,0.869,1.332,1.349c0.646,0.51,1.555,1.072,1.555,1.072s-3.842,0.931-6.563,2.581
				C370.748,412.16,367.482,414.737,366.582,415.636z"/>
		</g>
		<path opacity="0.28" fill="#FFFFFF" d="M374.742,403.848c-0.539-1.285-0.771-2.641-0.789-4.007
			c-0.408,2.277-0.357,4.635,0.549,6.795c1.75,4.187,6.055,6.812,10.371,6.789c10.594-0.053,15.367-6.082,16.068-6.654
			c-2.74,1.587-5.619,3.064-8.936,3.787C385.846,411.896,377.48,410.396,374.742,403.848z"/>
	</g>
</g>
</svg>
